%FSTAX43Y43*%
%MOMM*%
G71*
G01*
G75*
G04:AMPARAMS|DCode=10|XSize=2.5mm|YSize=2mm|CornerRadius=0.5mm|HoleSize=0mm|Usage=FLASHONLY|Rotation=90.000|XOffset=0mm|YOffset=0mm|HoleType=Round|Shape=RoundedRectangle|*
%AMROUNDEDRECTD10*
21,1,2.500,1.000,0,0,90.0*
21,1,1.500,2.000,0,0,90.0*
1,1,1.000,0.500,0.750*
1,1,1.000,0.500,-0.750*
1,1,1.000,-0.500,-0.750*
1,1,1.000,-0.500,0.750*
%
%ADD10ROUNDEDRECTD10*%
%ADD11O,0.500X2.250*%
G04:AMPARAMS|DCode=12|XSize=1.3mm|YSize=1mm|CornerRadius=0.25mm|HoleSize=0mm|Usage=FLASHONLY|Rotation=0.000|XOffset=0mm|YOffset=0mm|HoleType=Round|Shape=RoundedRectangle|*
%AMROUNDEDRECTD12*
21,1,1.300,0.500,0,0,0.0*
21,1,0.800,1.000,0,0,0.0*
1,1,0.500,0.400,-0.250*
1,1,0.500,-0.400,-0.250*
1,1,0.500,-0.400,0.250*
1,1,0.500,0.400,0.250*
%
%ADD12ROUNDEDRECTD12*%
G04:AMPARAMS|DCode=13|XSize=1mm|YSize=2.8mm|CornerRadius=0.25mm|HoleSize=0mm|Usage=FLASHONLY|Rotation=270.000|XOffset=0mm|YOffset=0mm|HoleType=Round|Shape=RoundedRectangle|*
%AMROUNDEDRECTD13*
21,1,1.000,2.300,0,0,270.0*
21,1,0.500,2.800,0,0,270.0*
1,1,0.500,-1.150,-0.250*
1,1,0.500,-1.150,0.250*
1,1,0.500,1.150,0.250*
1,1,0.500,1.150,-0.250*
%
%ADD13ROUNDEDRECTD13*%
G04:AMPARAMS|DCode=14|XSize=0.9mm|YSize=2.7mm|CornerRadius=0.225mm|HoleSize=0mm|Usage=FLASHONLY|Rotation=270.000|XOffset=0mm|YOffset=0mm|HoleType=Round|Shape=RoundedRectangle|*
%AMROUNDEDRECTD14*
21,1,0.900,2.250,0,0,270.0*
21,1,0.450,2.700,0,0,270.0*
1,1,0.450,-1.125,-0.225*
1,1,0.450,-1.125,0.225*
1,1,0.450,1.125,0.225*
1,1,0.450,1.125,-0.225*
%
%ADD14ROUNDEDRECTD14*%
G04:AMPARAMS|DCode=15|XSize=1.5mm|YSize=1.25mm|CornerRadius=0.313mm|HoleSize=0mm|Usage=FLASHONLY|Rotation=180.000|XOffset=0mm|YOffset=0mm|HoleType=Round|Shape=RoundedRectangle|*
%AMROUNDEDRECTD15*
21,1,1.500,0.625,0,0,180.0*
21,1,0.875,1.250,0,0,180.0*
1,1,0.625,-0.438,0.313*
1,1,0.625,0.438,0.313*
1,1,0.625,0.438,-0.313*
1,1,0.625,-0.438,-0.313*
%
%ADD15ROUNDEDRECTD15*%
G04:AMPARAMS|DCode=16|XSize=1.9mm|YSize=0.5mm|CornerRadius=0.125mm|HoleSize=0mm|Usage=FLASHONLY|Rotation=0.000|XOffset=0mm|YOffset=0mm|HoleType=Round|Shape=RoundedRectangle|*
%AMROUNDEDRECTD16*
21,1,1.900,0.250,0,0,0.0*
21,1,1.650,0.500,0,0,0.0*
1,1,0.250,0.825,-0.125*
1,1,0.250,-0.825,-0.125*
1,1,0.250,-0.825,0.125*
1,1,0.250,0.825,0.125*
%
%ADD16ROUNDEDRECTD16*%
G04:AMPARAMS|DCode=17|XSize=1.9mm|YSize=0.5mm|CornerRadius=0.125mm|HoleSize=0mm|Usage=FLASHONLY|Rotation=90.000|XOffset=0mm|YOffset=0mm|HoleType=Round|Shape=RoundedRectangle|*
%AMROUNDEDRECTD17*
21,1,1.900,0.250,0,0,90.0*
21,1,1.650,0.500,0,0,90.0*
1,1,0.250,0.125,0.825*
1,1,0.250,0.125,-0.825*
1,1,0.250,-0.125,-0.825*
1,1,0.250,-0.125,0.825*
%
%ADD17ROUNDEDRECTD17*%
G04:AMPARAMS|DCode=18|XSize=1.3mm|YSize=1mm|CornerRadius=0.25mm|HoleSize=0mm|Usage=FLASHONLY|Rotation=90.000|XOffset=0mm|YOffset=0mm|HoleType=Round|Shape=RoundedRectangle|*
%AMROUNDEDRECTD18*
21,1,1.300,0.500,0,0,90.0*
21,1,0.800,1.000,0,0,90.0*
1,1,0.500,0.250,0.400*
1,1,0.500,0.250,-0.400*
1,1,0.500,-0.250,-0.400*
1,1,0.500,-0.250,0.400*
%
%ADD18ROUNDEDRECTD18*%
G04:AMPARAMS|DCode=19|XSize=2.65mm|YSize=1.75mm|CornerRadius=0.438mm|HoleSize=0mm|Usage=FLASHONLY|Rotation=270.000|XOffset=0mm|YOffset=0mm|HoleType=Round|Shape=RoundedRectangle|*
%AMROUNDEDRECTD19*
21,1,2.650,0.875,0,0,270.0*
21,1,1.775,1.750,0,0,270.0*
1,1,0.875,-0.438,-0.887*
1,1,0.875,-0.438,0.887*
1,1,0.875,0.438,0.887*
1,1,0.875,0.438,-0.887*
%
%ADD19ROUNDEDRECTD19*%
G04:AMPARAMS|DCode=20|XSize=1.5mm|YSize=1.3mm|CornerRadius=0.325mm|HoleSize=0mm|Usage=FLASHONLY|Rotation=0.000|XOffset=0mm|YOffset=0mm|HoleType=Round|Shape=RoundedRectangle|*
%AMROUNDEDRECTD20*
21,1,1.500,0.650,0,0,0.0*
21,1,0.850,1.300,0,0,0.0*
1,1,0.650,0.425,-0.325*
1,1,0.650,-0.425,-0.325*
1,1,0.650,-0.425,0.325*
1,1,0.650,0.425,0.325*
%
%ADD20ROUNDEDRECTD20*%
G04:AMPARAMS|DCode=21|XSize=1.5mm|YSize=1.3mm|CornerRadius=0.325mm|HoleSize=0mm|Usage=FLASHONLY|Rotation=270.000|XOffset=0mm|YOffset=0mm|HoleType=Round|Shape=RoundedRectangle|*
%AMROUNDEDRECTD21*
21,1,1.500,0.650,0,0,270.0*
21,1,0.850,1.300,0,0,270.0*
1,1,0.650,-0.325,-0.425*
1,1,0.650,-0.325,0.425*
1,1,0.650,0.325,0.425*
1,1,0.650,0.325,-0.425*
%
%ADD21ROUNDEDRECTD21*%
%ADD22C,1.000*%
%ADD23C,0.500*%
%ADD24C,0.300*%
%ADD25C,1.300*%
%ADD26C,1.600*%
%ADD27C,1.000*%
%ADD28C,1.100*%
%ADD29C,0.700*%
G04:AMPARAMS|DCode=30|XSize=0.9mm|YSize=0.8mm|CornerRadius=0.2mm|HoleSize=0mm|Usage=FLASHONLY|Rotation=270.000|XOffset=0mm|YOffset=0mm|HoleType=Round|Shape=RoundedRectangle|*
%AMROUNDEDRECTD30*
21,1,0.900,0.400,0,0,270.0*
21,1,0.500,0.800,0,0,270.0*
1,1,0.400,-0.200,-0.250*
1,1,0.400,-0.200,0.250*
1,1,0.400,0.200,0.250*
1,1,0.400,0.200,-0.250*
%
%ADD30ROUNDEDRECTD30*%
%ADD31C,0.178*%
%ADD32C,0.005*%
%ADD33C,0.254*%
%ADD34C,0.250*%
G36*
X0086511Y0104006D02*
X0084939D01*
X0085725Y0104791D01*
X0086511Y0104006D01*
D02*
G37*
G36*
X0096901Y0061255D02*
X0094894D01*
Y006184D01*
X0096901D01*
Y0061255D01*
D02*
G37*
G36*
X0105156Y010607D02*
X0103149D01*
Y0106655D01*
X0105156D01*
Y010607D01*
D02*
G37*
G36*
X0089051Y0104006D02*
X0087479D01*
X0088265Y0104791D01*
X0089051Y0104006D01*
D02*
G37*
D24*
X0103457Y0084217D02*
G03*
X0105457Y0084217I0001J0D01*
G01*
X0081925Y0057775D02*
G03*
X0081645Y0058055I-000028J0D01*
G01*
X0079645Y0058055D02*
G03*
X0079365Y0057775I0J-000028D01*
G01*
X0081645Y0047895D02*
G03*
X0081925Y0048135I000002J000026D01*
G01*
X0079365D02*
G03*
X0079645Y0047895I000026J000002D01*
G01*
X0106488Y0110096D02*
G03*
X0101792Y0110096I-0002348J-0000558D01*
G01*
Y0102629D02*
G03*
X0106488Y0102629I0002348J0000558D01*
G01*
X011193Y0114652D02*
G03*
X011193Y0114652I-00001J0D01*
G01*
X011593D02*
G03*
X011593Y0114652I-00001J0D01*
G01*
X011888Y0108503D02*
G03*
X011888Y0108503I-00001J0D01*
G01*
X011513Y0103152D02*
G03*
X011513Y0103152I-00001J0D01*
G01*
X011113D02*
G03*
X011113Y0103152I-00001J0D01*
G01*
X010738Y0108503D02*
G03*
X010738Y0108503I-00001J0D01*
G01*
X0093257Y004472D02*
G03*
X0093257Y004472I-00015J0D01*
G01*
X0088884Y0043858D02*
G03*
X0094616Y004381I0002873J0000862D01*
G01*
X0094604Y0045669D02*
G03*
X0088897Y0045623I-0002846J-0000949D01*
G01*
X0098233Y0065281D02*
G03*
X0093537Y0065281I-0002348J-0000558D01*
G01*
Y0057814D02*
G03*
X0098233Y0057814I0002348J0000558D01*
G01*
X0115878Y0054167D02*
G03*
X0116158Y0053928I000026J000002D01*
G01*
X0118158Y0053928D02*
G03*
X0118438Y0054167I000002J000026D01*
G01*
X0116158Y0059007D02*
G03*
X0115878Y0058728I0J-000028D01*
G01*
X0118438D02*
G03*
X0118158Y0059007I-000028J0D01*
G01*
X011962Y0094625D02*
G03*
X011938Y0094345I000002J-000026D01*
G01*
X011938Y0092345D02*
G03*
X011962Y0092065I000026J-000002D01*
G01*
X013208Y0094345D02*
G03*
X01318Y0094625I-000028J0D01*
G01*
Y0092065D02*
G03*
X013208Y0092345I0J000028D01*
G01*
X0132975Y0063135D02*
G03*
X0132695Y0062895I-000002J-000026D01*
G01*
X0135255D02*
G03*
X0134975Y0063135I-000026J-000002D01*
G01*
Y0047895D02*
G03*
X0135255Y0048135I000002J000026D01*
G01*
X0132695D02*
G03*
X0132975Y0047895I000026J000002D01*
G01*
X0134975Y0066628D02*
G03*
X0135255Y0066868I000002J000026D01*
G01*
X0132695D02*
G03*
X0132975Y0066628I000026J000002D01*
G01*
Y0086948D02*
G03*
X0132695Y0086707I-000002J-000026D01*
G01*
X0135255D02*
G03*
X0134975Y0086948I-000026J-000002D01*
G01*
X0081645Y0061548D02*
G03*
X0081925Y0061787I000002J000026D01*
G01*
X0079365D02*
G03*
X0079645Y0061548I000026J000002D01*
G01*
Y0086948D02*
G03*
X0079365Y0086707I-000002J-000026D01*
G01*
X0081925D02*
G03*
X0081645Y0086948I-000026J-000002D01*
G01*
X0106603Y0094625D02*
G03*
X0106363Y0094345I000002J-000026D01*
G01*
X0106363Y0092345D02*
G03*
X0106603Y0092065I000026J-000002D01*
G01*
X0111442Y0094345D02*
G03*
X0111162Y0094625I-000028J0D01*
G01*
Y0092065D02*
G03*
X0111442Y0092345I0J000028D01*
G01*
X0119052Y0054167D02*
G03*
X0119332Y0053928I000026J000002D01*
G01*
X0121332Y0053928D02*
G03*
X0121613Y0054167I000002J000026D01*
G01*
X0119332Y0059007D02*
G03*
X0119052Y0058728I0J-000028D01*
G01*
X0121613D02*
G03*
X0121332Y0059007I-000028J0D01*
G01*
X0114945Y0096915D02*
G03*
X0114665Y0097155I-000026J-000002D01*
G01*
X0112665Y0097155D02*
G03*
X0112385Y0096915I-000002J-000026D01*
G01*
X0114665Y0092075D02*
G03*
X0114945Y0092355I0J000028D01*
G01*
X0112385D02*
G03*
X0112665Y0092075I000028J0D01*
G01*
X0115878Y0092315D02*
G03*
X0116158Y0092075I000026J000002D01*
G01*
X0118158Y0092075D02*
G03*
X0118438Y0092315I000002J000026D01*
G01*
X0116158Y0097155D02*
G03*
X0115878Y0096875I0J-000028D01*
G01*
X0118438D02*
G03*
X0118158Y0097155I-000028J0D01*
G01*
X011962Y0097165D02*
G03*
X011938Y0096885I000002J-000026D01*
G01*
X011938Y0094885D02*
G03*
X011962Y0094605I000026J-000002D01*
G01*
X013208Y0096885D02*
G03*
X01318Y0097165I-000028J0D01*
G01*
Y0094605D02*
G03*
X013208Y0094885I0J000028D01*
G01*
X0120562Y004472D02*
G03*
X0120562Y004472I-00015J0D01*
G01*
X0116189Y0043858D02*
G03*
X0121921Y004381I0002873J0000862D01*
G01*
X0121909Y0045669D02*
G03*
X0116202Y0045623I-0002846J-0000949D01*
G01*
X0111202Y0094605D02*
G03*
X0111442Y0094885I-000002J000026D01*
G01*
X0111442Y0096885D02*
G03*
X0111202Y0097165I-000026J000002D01*
G01*
X0106363Y0094885D02*
G03*
X0106643Y0094605I000028J0D01*
G01*
Y0097165D02*
G03*
X0106363Y0096885I0J-000028D01*
G01*
X0135255Y0121045D02*
G03*
X0134975Y0121285I-000026J-000002D01*
G01*
X0132975Y0121285D02*
G03*
X0132695Y0121045I-000002J-000026D01*
G01*
X0134975Y0116205D02*
G03*
X0135255Y0116485I0J000028D01*
G01*
X0132695D02*
G03*
X0132975Y0116205I000028J0D01*
G01*
X0107247Y0049037D02*
Y0084217D01*
X0101647Y0049037D02*
X0107247D01*
X0101647D02*
Y0084217D01*
X0103457D01*
X0105457D02*
X0107247D01*
X0099378Y0048912D02*
Y0084342D01*
Y0048912D02*
X0109537D01*
Y0084342D01*
X0099378D02*
X0109537D01*
X0099378Y0082037D02*
X0101647D01*
Y0066128D02*
X0107247D01*
X0101647Y0067128D02*
X0107247D01*
X0101647Y0050127D02*
X0107247D01*
X0101647Y0083427D02*
X0103857D01*
X0105058D02*
X0107247D01*
X0079629Y0050435D02*
X0081671D01*
X0079375Y0055769D02*
X0079629Y0055515D01*
X0081671D02*
X0081925Y0055769D01*
X0079365D02*
Y0057801D01*
X0081925Y0055769D02*
Y0057801D01*
X0079645Y0058055D02*
X0081645D01*
X0079645Y0047895D02*
X0081645D01*
X0079375Y0050181D02*
X0079629Y0050435D01*
X0079375Y0050689D02*
X0079629Y0050435D01*
X0081915Y0050181D02*
X0081925D01*
X0081661Y0050435D02*
X0081915Y0050181D01*
X0081661Y0050435D02*
X0081671D01*
X0081925Y0050689D01*
X0079365Y0048135D02*
Y0050181D01*
X0079375Y0052721D02*
X0079629Y0052975D01*
X0079375Y0053229D02*
X0079629Y0052975D01*
X0079365Y0050689D02*
Y0052721D01*
X0079375D01*
X0081925Y0048135D02*
Y0050171D01*
X0081915Y0050181D02*
X0081925Y0050171D01*
Y0050689D02*
Y0052721D01*
X0081915D02*
X0081925D01*
X0081661Y0052975D02*
X0081915Y0052721D01*
X0081661Y0052975D02*
X0081915Y0053229D01*
X0079365Y0053215D02*
Y0055261D01*
X0079375D02*
X0079629Y0055515D01*
X0079365Y0057801D02*
X0079375D01*
X0081915Y0055261D02*
X0081925Y0055251D01*
Y0053215D02*
Y0055251D01*
X0081661Y0055515D02*
X0081671D01*
X0081661D02*
X0081915Y0055261D01*
X0081925D01*
X0081915Y0057801D02*
X0081925D01*
X0090527Y0119507D02*
Y012095D01*
X0082827Y0119507D02*
Y012095D01*
X0088811Y011175D02*
X0089853D01*
X0090527Y0114046D02*
Y0116459D01*
X0083553Y011175D02*
X0084544D01*
X0082827Y0114071D02*
Y0116459D01*
X008091Y011016D02*
Y011336D01*
X007911D02*
X008091D01*
X007911Y011016D02*
Y011336D01*
Y011016D02*
X008091D01*
X0084939Y010483D02*
X0086511D01*
X0084939Y0104006D02*
X0086511D01*
X0085725Y0101577D02*
Y0107348D01*
Y0104791D02*
X0086511Y0104006D01*
X0084939D02*
X0085725Y0104791D01*
X0087479Y010483D02*
X0089051D01*
X0087479Y0104006D02*
X0089051D01*
X0088265Y0101577D02*
Y0107348D01*
Y0104791D02*
X0089051Y0104006D01*
X0087479D02*
X0088265Y0104791D01*
X0089905Y0105715D02*
Y0108915D01*
Y0105715D02*
X0091705D01*
Y0108915D01*
X0089905D02*
X0091705D01*
X0092128Y0105715D02*
Y0108915D01*
Y0105715D02*
X0093927D01*
Y0108915D01*
X0092128D02*
X0093927D01*
X0082285Y0105715D02*
Y0108915D01*
Y0105715D02*
X0084085D01*
Y0108915D01*
X0082285D02*
X0084085D01*
X0096683Y0112555D02*
Y0117315D01*
X0093155Y0112555D02*
X0096683D01*
X0093155D02*
Y0117315D01*
X0096683D01*
X0097058Y0113135D02*
Y0116735D01*
X0099158D01*
Y0113135D02*
Y0116735D01*
X0097058Y0113135D02*
X0099158D01*
X010649Y0102629D02*
Y0110096D01*
X010179Y0102629D02*
Y0110096D01*
X010743Y0111503D02*
Y0112302D01*
X010963D01*
X010993Y0112003D01*
Y0105802D02*
X011613D01*
Y0112003D01*
X010993D02*
X011613D01*
X010993Y0105802D02*
Y0112003D01*
X0120067Y0107938D02*
Y0111137D01*
Y0107938D02*
X0121868D01*
Y0111137D01*
X0120067D02*
X0121868D01*
Y0111747D02*
Y0114948D01*
X0120067D02*
X0121868D01*
X0120067Y0111747D02*
Y0114948D01*
Y0111747D02*
X0121868D01*
X0111747Y0117105D02*
X0114948D01*
X0111747Y0115305D02*
Y0117105D01*
Y0115305D02*
X0114948D01*
Y0117105D01*
X0132775Y0107438D02*
X0135176D01*
X0132501Y0107043D02*
Y0115192D01*
Y0107243D02*
X0135451D01*
X0132501Y0107543D02*
X0135451D01*
X0132501Y0115192D02*
X0135451D01*
X0132501Y0107043D02*
X0135451D01*
Y0115192D01*
X0132501Y0107692D02*
X0135451D01*
X0128958Y0112065D02*
Y0115265D01*
Y0112065D02*
X0130758D01*
Y0115265D01*
X0128958D02*
X0130758D01*
X0122492Y0107315D02*
X0124523D01*
Y0106553D02*
Y0111125D01*
X0122492Y0106553D02*
X0124523D01*
X0122492Y0106934D02*
X0124523D01*
X0122492Y0106553D02*
Y0111125D01*
X0124523D01*
X0122492Y0112713D02*
X0124523D01*
Y0111951D02*
Y0116522D01*
X0122492Y0111951D02*
X0124523D01*
X0122492Y0112331D02*
X0124523D01*
X0122492Y0111951D02*
Y0116522D01*
X0124523D01*
X0128842Y011049D02*
X0130874D01*
X0128842Y010668D02*
Y0111252D01*
X0130874D01*
X0128842Y0110871D02*
X0130874D01*
Y010668D02*
Y0111252D01*
X0128842Y010668D02*
X0130874D01*
X012409Y0097777D02*
Y0100978D01*
X012229D02*
X012409D01*
X012229Y0097777D02*
Y0100978D01*
Y0097777D02*
X012409D01*
X012663D02*
Y0100978D01*
X012483D02*
X012663D01*
X012483Y0097777D02*
Y0100978D01*
Y0097777D02*
X012663D01*
X013171D02*
Y0100978D01*
X012991D02*
X013171D01*
X012991Y0097777D02*
Y0100978D01*
Y0097777D02*
X013171D01*
X012229Y0053915D02*
Y0057115D01*
Y0053915D02*
X012409D01*
Y0057115D01*
X012229D02*
X012409D01*
X01134Y0053915D02*
Y0057115D01*
Y0053915D02*
X01152D01*
Y0057115D01*
X01134D02*
X01152D01*
X01143Y0051324D02*
Y0053356D01*
X0113538Y0051324D02*
X011811D01*
X0113538D02*
Y0053356D01*
X0113919Y0051324D02*
Y0053356D01*
X0113538D02*
X011811D01*
Y0051324D02*
Y0053356D01*
X012319Y0051324D02*
Y0053356D01*
X011938D02*
X0123952D01*
Y0051324D02*
Y0053356D01*
X0123571Y0051324D02*
Y0053356D01*
X011938Y0051324D02*
X0123952D01*
X011938D02*
Y0053356D01*
X0098235Y0057814D02*
Y0065281D01*
X0093535Y0057814D02*
Y0065281D01*
X0118427Y0058754D02*
X0118438D01*
X0115878D02*
X0115887D01*
X0118438Y0054167D02*
Y0056203D01*
X0115878Y0054167D02*
Y0056214D01*
X0116158Y0053928D02*
X0118158D01*
X0116158Y0059007D02*
X0118158D01*
X0118438Y0056722D02*
Y0058754D01*
X0115878Y0056722D02*
Y0058754D01*
X0118174Y0056467D02*
X0118427Y0056214D01*
X0118174Y0056467D02*
X0118184D01*
X0118438Y0056722D01*
X0115887D02*
X0116142Y0056467D01*
X0115887Y0056214D02*
X0116142Y0056467D01*
X012192Y0092329D02*
Y0094361D01*
X0131826Y0092065D02*
Y0092075D01*
X0126746Y0092065D02*
Y0092075D01*
X0127Y0092329D01*
Y0092319D02*
Y0092329D01*
Y0092319D02*
X0127254Y0092065D01*
X01247D02*
X0126736D01*
X0126746Y0092075D01*
X0127254Y0092065D02*
X0129286D01*
X0131826Y0094615D02*
Y0094625D01*
X0126746Y0094615D02*
X0127Y0094361D01*
X0127254Y0094615D01*
X01247Y0094625D02*
X0126746D01*
X0127254D02*
X0129286D01*
X012446Y0092329D02*
X0124714Y0092075D01*
X0124206D02*
X012446Y0092329D01*
X0124206Y0092065D02*
Y0092075D01*
X0122174Y0092065D02*
X0124206D01*
X0121656D02*
X0121666Y0092075D01*
X011962Y0092065D02*
X0121656D01*
X0124206Y0094615D02*
Y0094625D01*
X0122174D02*
X0124206D01*
X012446Y0094361D02*
X0124714Y0094615D01*
X0124206D02*
X012446Y0094361D01*
X011962Y0094625D02*
X0121666D01*
X012192Y0092319D02*
X0122174Y0092065D01*
X012192Y0092319D02*
Y0092329D01*
X0121666Y0092075D02*
X012192Y0092329D01*
X0121666Y0092065D02*
Y0092075D01*
X012192Y0094361D02*
X0122174Y0094615D01*
X0121666D02*
X012192Y0094361D01*
X011938Y0092345D02*
Y0094345D01*
X013208Y0092345D02*
Y0094345D01*
X0129794Y0092065D02*
X0131826D01*
X0129794Y0094625D02*
X0131826D01*
X0129286Y0092075D02*
X012954Y0092329D01*
Y0092319D02*
Y0092329D01*
Y0092319D02*
X0129794Y0092065D01*
X012954Y0094361D02*
X0129794Y0094615D01*
X0129286D02*
X012954Y0094361D01*
X0132975Y0063135D02*
X0134975D01*
X0132975Y0047895D02*
X0134975D01*
X0132706Y0050181D02*
X013296Y0050435D01*
X0132706Y0050689D02*
X013296Y0050435D01*
X0135245Y0050181D02*
X0135255D01*
X0134992Y0050435D02*
X0135245Y0050181D01*
X0134992Y0050435D02*
X0135001D01*
X0135255Y0050689D01*
X0132695Y0048135D02*
Y0050181D01*
X0132706Y0052721D02*
X013296Y0052975D01*
X0132706Y0053229D02*
X013296Y0052975D01*
X0132695Y0050689D02*
Y0052721D01*
X0132706D01*
X0135255Y0048135D02*
Y0050171D01*
X0135245Y0050181D02*
X0135255Y0050171D01*
Y0050689D02*
Y0052721D01*
X0135245D02*
X0135255D01*
X0134992Y0052975D02*
X0135245Y0052721D01*
X0134992Y0052975D02*
X0135245Y0053229D01*
X0132695Y0057801D02*
X0132706D01*
X0132695Y0055769D02*
Y0057801D01*
X0132706Y0058309D02*
X013296Y0058055D01*
X0132706Y0057801D02*
X013296Y0058055D01*
X0132695Y0053215D02*
Y0055261D01*
X0132706Y0055769D02*
X013296Y0055515D01*
X0132706Y0055261D02*
X013296Y0055515D01*
X0132695Y0060849D02*
Y0062881D01*
Y0058295D02*
Y0060341D01*
X0132706Y0060849D02*
X013296Y0060595D01*
X0132706Y0060341D02*
X013296Y0060595D01*
X0134992Y0058055D02*
X0135245Y0058309D01*
X0134992Y0058055D02*
X0135245Y0057801D01*
X0135255D01*
Y0055769D02*
Y0057801D01*
X0135245Y0055261D02*
X0135255Y0055251D01*
Y0053215D02*
Y0055251D01*
X0135001Y0055515D02*
X0135255Y0055769D01*
X0134992Y0055515D02*
X0135001D01*
X0134992D02*
X0135245Y0055261D01*
X0135255D01*
Y0060849D02*
Y0062881D01*
X0135245Y0060341D02*
X0135255Y0060331D01*
Y0058295D02*
Y0060331D01*
X0135001Y0060595D02*
X0135255Y0060849D01*
X0134992Y0060595D02*
X0135001D01*
X0134992D02*
X0135245Y0060341D01*
X0135255D01*
X013296Y0050435D02*
X0135001D01*
X013296Y0069168D02*
X0135001D01*
X0132975Y0066628D02*
X0134975D01*
X0132706Y0068913D02*
X013296Y0069168D01*
X0132706Y0069422D02*
X013296Y0069168D01*
X0135245Y0068913D02*
X0135255D01*
X0134992Y0069168D02*
X0135245Y0068913D01*
X0134992Y0069168D02*
X0135001D01*
X0135255Y0069422D01*
X0132695Y0066868D02*
Y0068913D01*
X0132706Y0071453D02*
X013296Y0071707D01*
X0132706Y0071962D02*
X013296Y0071707D01*
X0132695Y0069422D02*
Y0071453D01*
X0132706D01*
X0135255Y0066868D02*
Y0068904D01*
X0135245Y0068913D02*
X0135255Y0068904D01*
Y0069422D02*
Y0071453D01*
X0135245D02*
X0135255D01*
X0134992Y0071707D02*
X0135245Y0071453D01*
X0134992Y0071707D02*
X0135245Y0071962D01*
X0132695Y0076534D02*
X0132706D01*
X0132695Y0074502D02*
Y0076534D01*
X0132706Y0077041D02*
X013296Y0076787D01*
X0132706Y0076534D02*
X013296Y0076787D01*
X0132695Y0071948D02*
Y0073993D01*
X0132706Y0074502D02*
X013296Y0074247D01*
X0132706Y0073993D02*
X013296Y0074247D01*
X0132695Y0081614D02*
X0132706D01*
X0132695Y0079581D02*
Y0081614D01*
X0132706Y0082121D02*
X013296Y0081868D01*
X0132706Y0081614D02*
X013296Y0081868D01*
X0132695Y0077027D02*
Y0079074D01*
X0132706Y0079581D02*
X013296Y0079327D01*
X0132706Y0079074D02*
X013296Y0079327D01*
X0132695Y0084661D02*
Y0086693D01*
Y0082107D02*
Y0084154D01*
X0132706Y0084661D02*
X013296Y0084408D01*
X0132706Y0084154D02*
X013296Y0084408D01*
X0134992Y0076787D02*
X0135245Y0077041D01*
X0134992Y0076787D02*
X0135245Y0076534D01*
X0135255D01*
Y0074502D02*
Y0076534D01*
X0135245Y0073993D02*
X0135255Y0073983D01*
Y0071948D02*
Y0073983D01*
X0135001Y0074247D02*
X0135255Y0074502D01*
X0134992Y0074247D02*
X0135001D01*
X0134992D02*
X0135245Y0073993D01*
X0135255D01*
X0134992Y0081868D02*
X0135245Y0082121D01*
X0134992Y0081868D02*
X0135245Y0081614D01*
X0135255D01*
Y0079581D02*
Y0081614D01*
X0135245Y0079074D02*
X0135255Y0079063D01*
Y0077027D02*
Y0079063D01*
X0135001Y0079327D02*
X0135255Y0079581D01*
X0134992Y0079327D02*
X0135001D01*
X0134992D02*
X0135245Y0079074D01*
X0135255D01*
Y0084661D02*
Y0086693D01*
X0135245Y0084154D02*
X0135255Y0084144D01*
Y0082107D02*
Y0084144D01*
X0135001Y0084408D02*
X0135255Y0084661D01*
X0134992Y0084408D02*
X0135001D01*
X0134992D02*
X0135245Y0084154D01*
X0135255D01*
X0132975Y0086948D02*
X0134975D01*
X0079619Y0084408D02*
X0081661D01*
X0079645Y0061548D02*
X0081645D01*
X0079645Y0086948D02*
X0081645D01*
X0081661Y0084408D02*
X0081915Y0084661D01*
X0081661Y0084408D02*
X0081915Y0084154D01*
X0079365Y0084661D02*
X0079375D01*
X0079629Y0084408D01*
X0079619D02*
X0079629D01*
X0079365Y0084154D02*
X0079619Y0084408D01*
X0081925Y0084661D02*
Y0086707D01*
X0081661Y0081868D02*
X0081915Y0082121D01*
X0081661Y0081868D02*
X0081915Y0081614D01*
X0081925Y0082121D02*
Y0084154D01*
X0081915Y0082121D02*
X0081925D01*
X0079365Y0084672D02*
Y0086707D01*
Y0084672D02*
X0079375Y0084661D01*
X0079365Y0082121D02*
Y0084154D01*
Y0082121D02*
X0079375D01*
X0079629Y0081868D01*
X0079375Y0081614D02*
X0079629Y0081868D01*
X0081915Y0077041D02*
X0081925D01*
Y0079074D01*
X0081661Y0076787D02*
X0081915Y0076534D01*
X0081661Y0076787D02*
X0081915Y0077041D01*
X0081925Y0079581D02*
Y0081628D01*
X0081661Y0079327D02*
X0081915Y0079074D01*
X0081661Y0079327D02*
X0081915Y0079581D01*
Y0071962D02*
X0081925D01*
Y0073993D01*
X0081661Y0071707D02*
X0081915Y0071453D01*
X0081661Y0071707D02*
X0081915Y0071962D01*
X0081925Y0074502D02*
Y0076548D01*
X0081661Y0074247D02*
X0081915Y0073993D01*
X0081661Y0074247D02*
X0081915Y0074502D01*
Y0066882D02*
X0081925D01*
Y0068913D01*
X0081661Y0066628D02*
X0081915Y0066373D01*
X0081661Y0066628D02*
X0081915Y0066882D01*
X0081925Y0069422D02*
Y0071467D01*
X0081661Y0069168D02*
X0081915Y0068913D01*
X0081661Y0069168D02*
X0081915Y0069422D01*
X0081925Y0061801D02*
Y0063833D01*
Y0064341D02*
Y0066387D01*
X0081661Y0064088D02*
X0081915Y0063833D01*
X0081661Y0064088D02*
X0081915Y0064341D01*
X0079375Y0076534D02*
X0079629Y0076787D01*
X0079375Y0077041D02*
X0079629Y0076787D01*
X0079365Y0077041D02*
X0079375D01*
X0079365D02*
Y0079074D01*
Y0079591D02*
X0079375Y0079581D01*
X0079365Y0079591D02*
Y0081628D01*
Y0079074D02*
X0079619Y0079327D01*
X0079629D01*
X0079375Y0079581D02*
X0079629Y0079327D01*
X0079365Y0079581D02*
X0079375D01*
Y0071453D02*
X0079629Y0071707D01*
X0079375Y0071962D02*
X0079629Y0071707D01*
X0079365Y0071962D02*
X0079375D01*
X0079365D02*
Y0073993D01*
Y0074511D02*
X0079375Y0074502D01*
X0079365Y0074511D02*
Y0076548D01*
Y0073993D02*
X0079619Y0074247D01*
X0079629D01*
X0079375Y0074502D02*
X0079629Y0074247D01*
X0079365Y0074502D02*
X0079375D01*
Y0066373D02*
X0079629Y0066628D01*
X0079375Y0066882D02*
X0079629Y0066628D01*
X0079365Y0066882D02*
X0079375D01*
X0079365D02*
Y0068913D01*
Y0069432D02*
X0079375Y0069422D01*
X0079365Y0069432D02*
Y0071467D01*
Y0068913D02*
X0079619Y0069168D01*
X0079629D01*
X0079375Y0069422D02*
X0079629Y0069168D01*
X0079365Y0069422D02*
X0079375D01*
X0079365Y0061801D02*
Y0063833D01*
Y0064352D02*
X0079375Y0064341D01*
X0079365Y0064352D02*
Y0066387D01*
Y0063833D02*
X0079619Y0064088D01*
X0079629D01*
X0079375Y0064341D02*
X0079629Y0064088D01*
X0079365Y0064341D02*
X0079375D01*
X0111188Y0092065D02*
Y0092075D01*
Y0094615D02*
Y0094625D01*
X0106603Y0092065D02*
X0108638D01*
X0106603Y0094625D02*
X0108648D01*
X0106363Y0092345D02*
Y0094345D01*
X0111442Y0092345D02*
Y0094345D01*
X0109157Y0092065D02*
X0111188D01*
X0109157Y0094625D02*
X0111188D01*
X0108648Y0092075D02*
X0108902Y0092329D01*
Y0092319D02*
Y0092329D01*
Y0092319D02*
X0109157Y0092065D01*
X0108902Y0094361D02*
X0109157Y0094615D01*
X0108648D02*
X0108902Y0094361D01*
X0121603Y0058754D02*
X0121613D01*
X0119052D02*
X0119062D01*
X0121613Y0054167D02*
Y0056203D01*
X0119052Y0054167D02*
Y0056214D01*
X0119332Y0053928D02*
X0121332D01*
X0119332Y0059007D02*
X0121332D01*
X0121613Y0056722D02*
Y0058754D01*
X0119052Y0056722D02*
Y0058754D01*
X0121349Y0056467D02*
X0121603Y0056214D01*
X0121349Y0056467D02*
X0121358D01*
X0121613Y0056722D01*
X0119062D02*
X0119316Y0056467D01*
X0119062Y0056214D02*
X0119316Y0056467D01*
X0112385Y0092329D02*
X0112395D01*
X0114935D02*
X0114945D01*
X0112385Y0094879D02*
Y0096915D01*
X0114945Y0094869D02*
Y0096915D01*
X0112665Y0097155D02*
X0114665D01*
X0112665Y0092075D02*
X0114665D01*
X0112385Y0092329D02*
Y0094361D01*
X0114945Y0092329D02*
Y0094361D01*
X0112395Y0094869D02*
X0112649Y0094615D01*
X0112639D02*
X0112649D01*
X0112385Y0094361D02*
X0112639Y0094615D01*
X0114681D02*
X0114935Y0094361D01*
X0114681Y0094615D02*
X0114935Y0094869D01*
X0118427Y0096901D02*
X0118438D01*
X0115878D02*
X0115887D01*
X0118438Y0092315D02*
Y0094351D01*
X0115878Y0092315D02*
Y0094361D01*
X0116158Y0092075D02*
X0118158D01*
X0116158Y0097155D02*
X0118158D01*
X0118438Y0094869D02*
Y0096901D01*
X0115878Y0094869D02*
Y0096901D01*
X0118174Y0094615D02*
X0118427Y0094361D01*
X0118174Y0094615D02*
X0118184D01*
X0118438Y0094869D01*
X0115887D02*
X0116142Y0094615D01*
X0115887Y0094361D02*
X0116142Y0094615D01*
X012192Y0094869D02*
Y0096901D01*
X0131826Y0094605D02*
Y0094615D01*
X0126746Y0094605D02*
Y0094615D01*
X0127Y0094869D01*
Y0094859D02*
Y0094869D01*
Y0094859D02*
X0127254Y0094605D01*
X01247D02*
X0126736D01*
X0126746Y0094615D01*
X0127254Y0094605D02*
X0129286D01*
X0131826Y0097155D02*
Y0097165D01*
X0126746Y0097155D02*
X0127Y0096901D01*
X0127254Y0097155D01*
X01247Y0097165D02*
X0126746D01*
X0127254D02*
X0129286D01*
X012446Y0094869D02*
X0124714Y0094615D01*
X0124206D02*
X012446Y0094869D01*
X0124206Y0094605D02*
Y0094615D01*
X0122174Y0094605D02*
X0124206D01*
X0121656D02*
X0121666Y0094615D01*
X011962Y0094605D02*
X0121656D01*
X0124206Y0097155D02*
Y0097165D01*
X0122174D02*
X0124206D01*
X012446Y0096901D02*
X0124714Y0097155D01*
X0124206D02*
X012446Y0096901D01*
X011962Y0097165D02*
X0121666D01*
X012192Y0094859D02*
X0122174Y0094605D01*
X012192Y0094859D02*
Y0094869D01*
X0121666Y0094615D02*
X012192Y0094869D01*
X0121666Y0094605D02*
Y0094615D01*
X012192Y0096901D02*
X0122174Y0097155D01*
X0121666D02*
X012192Y0096901D01*
X011938Y0094885D02*
Y0096885D01*
X013208Y0094885D02*
Y0096885D01*
X0129794Y0094605D02*
X0131826D01*
X0129794Y0097165D02*
X0131826D01*
X0129286Y0094615D02*
X012954Y0094869D01*
Y0094859D02*
Y0094869D01*
Y0094859D02*
X0129794Y0094605D01*
X012954Y0096901D02*
X0129794Y0097155D01*
X0129286D02*
X012954Y0096901D01*
X0106617Y0097155D02*
Y0097165D01*
Y0094605D02*
Y0094615D01*
X0109166Y0097165D02*
X0111202D01*
X0109157Y0094605D02*
X0111202D01*
X0111442Y0094885D02*
Y0096885D01*
X0106363Y0094885D02*
Y0096885D01*
X0106617Y0097165D02*
X0108648D01*
X0106617Y0094605D02*
X0108648D01*
X0108902Y0096901D02*
X0109157Y0097155D01*
X0108902Y0096901D02*
Y0096911D01*
X0108648Y0097165D02*
X0108902Y0096911D01*
X0108648Y0094615D02*
X0108902Y0094869D01*
X0109157Y0094615D01*
X0132695Y0116459D02*
X0132706D01*
X0135245D02*
X0135255D01*
X0132695Y0119009D02*
Y0121045D01*
X0135255Y0118999D02*
Y0121045D01*
X0132975Y0121285D02*
X0134975D01*
X0132975Y0116205D02*
X0134975D01*
X0132695Y0116459D02*
Y0118491D01*
X0135255Y0116459D02*
Y0118491D01*
X0132706Y0118999D02*
X013296Y0118745D01*
X0132949D02*
X013296D01*
X0132695Y0118491D02*
X0132949Y0118745D01*
X0134992D02*
X0135245Y0118491D01*
X0134992Y0118745D02*
X0135245Y0118999D01*
X01084Y01161D02*
Y01151D01*
X01086Y01149D01*
X0109D01*
X01092Y01151D01*
Y01161D01*
X0110399Y01149D02*
X01096D01*
X0110399Y01157D01*
Y01159D01*
X0110199Y01161D01*
X01098D01*
X01096Y01159D01*
X01036Y01125D02*
X01048Y01133D01*
X01036D02*
X01048Y01125D01*
Y0114499D02*
Y01137D01*
X0104Y0114499D01*
X01038D01*
X01036Y0114299D01*
Y01139D01*
X01038Y01137D01*
X00917Y00607D02*
X00929Y00615D01*
X00917D02*
X00929Y00607D01*
Y00619D02*
Y0062299D01*
Y00621D01*
X00917D01*
X00919Y00619D01*
X00795Y01161D02*
X00805D01*
X00807Y01163D01*
Y01167D01*
X00805Y01169D01*
X00795D01*
X00797Y0118099D02*
X00795Y0117899D01*
Y01175D01*
X00797Y01173D01*
X00799D01*
X00801Y01175D01*
Y0117899D01*
X00803Y0118099D01*
X00805D01*
X00807Y0117899D01*
Y01175D01*
X00805Y01173D01*
X00795Y0118499D02*
X00807D01*
Y0119099D01*
X00805Y0119299D01*
X00803D01*
X00801Y0119099D01*
Y0118499D01*
Y0119099D01*
X00799Y0119299D01*
X00797D01*
X00795Y0119099D01*
Y0118499D01*
X00807Y0119699D02*
Y0120099D01*
Y0119899D01*
X00795D01*
X00797Y0119699D01*
X01035Y00865D02*
Y00855D01*
X01037Y00853D01*
X01041D01*
X01043Y00855D01*
Y00865D01*
X01047Y00853D02*
X0105099D01*
X01049D01*
Y00865D01*
X01047Y00863D01*
X00807Y01064D02*
X00795D01*
Y0107D01*
X00797Y01072D01*
X00801D01*
X00803Y0107D01*
Y01064D01*
Y01068D02*
X00807Y01072D01*
Y01076D02*
Y0107999D01*
Y01078D01*
X00795D01*
X00797Y01076D01*
X00795Y0108599D02*
Y0109399D01*
X00797D01*
X00805Y0108599D01*
X00807D01*
X01285Y01122D02*
X01273D01*
Y01128D01*
X01275Y0113D01*
X01279D01*
X01281Y01128D01*
Y01122D01*
Y01126D02*
X01285Y0113D01*
Y01134D02*
Y0113799D01*
Y01136D01*
X01273D01*
X01275Y01134D01*
X01273Y0115199D02*
X01275Y0114799D01*
X01279Y0114399D01*
X01283D01*
X01285Y0114599D01*
Y0114999D01*
X01283Y0115199D01*
X01281D01*
X01279Y0114999D01*
Y0114399D01*
X00837Y0102D02*
X00825D01*
Y01026D01*
X00827Y01028D01*
X00831D01*
X00833Y01026D01*
Y0102D01*
Y01024D02*
X00837Y01028D01*
Y01032D02*
Y0103599D01*
Y01034D01*
X00825D01*
X00827Y01032D01*
X00825Y0104999D02*
Y0104199D01*
X00831D01*
X00829Y0104599D01*
Y0104799D01*
X00831Y0104999D01*
X00835D01*
X00837Y0104799D01*
Y0104399D01*
X00835Y0104199D01*
X00914Y01022D02*
X00902D01*
Y01028D01*
X00904Y0103D01*
X00908D01*
X0091Y01028D01*
Y01022D01*
Y01026D02*
X00914Y0103D01*
Y01034D02*
Y0103799D01*
Y01036D01*
X00902D01*
X00904Y01034D01*
X00914Y0104999D02*
X00902D01*
X00908Y0104399D01*
Y0105199D01*
X00937Y01021D02*
X00925D01*
Y01027D01*
X00927Y01029D01*
X00931D01*
X00933Y01027D01*
Y01021D01*
Y01025D02*
X00937Y01029D01*
Y01033D02*
Y0103699D01*
Y01035D01*
X00925D01*
X00927Y01033D01*
Y0104299D02*
X00925Y0104499D01*
Y0104899D01*
X00927Y0105099D01*
X00929D01*
X00931Y0104899D01*
Y0104699D01*
Y0104899D01*
X00933Y0105099D01*
X00935D01*
X00937Y0104899D01*
Y0104499D01*
X00935Y0104299D01*
X01314Y01017D02*
X01302D01*
Y01023D01*
X01304Y01025D01*
X01308D01*
X0131Y01023D01*
Y01017D01*
Y01021D02*
X01314Y01025D01*
Y01029D02*
Y0103299D01*
Y01031D01*
X01302D01*
X01304Y01029D01*
Y0103899D02*
X01302Y0104099D01*
Y0104499D01*
X01304Y0104699D01*
X01312D01*
X01314Y0104499D01*
Y0104099D01*
X01312Y0103899D01*
X01304D01*
X01263Y01016D02*
X01251D01*
Y01022D01*
X01253Y01024D01*
X01257D01*
X01259Y01022D01*
Y01016D01*
Y0102D02*
X01263Y01024D01*
X01261Y01028D02*
X01263Y0103D01*
Y0103399D01*
X01261Y0103599D01*
X01253D01*
X01251Y0103399D01*
Y0103D01*
X01253Y01028D01*
X01255D01*
X01257Y0103D01*
Y0103599D01*
X01238Y01016D02*
X01226D01*
Y01022D01*
X01228Y01024D01*
X01232D01*
X01234Y01022D01*
Y01016D01*
Y0102D02*
X01238Y01024D01*
X01228Y01028D02*
X01226Y0103D01*
Y0103399D01*
X01228Y0103599D01*
X0123D01*
X01232Y0103399D01*
X01234Y0103599D01*
X01236D01*
X01238Y0103399D01*
Y0103D01*
X01236Y01028D01*
X01234D01*
X01232Y0103D01*
X0123Y01028D01*
X01228D01*
X01232Y0103D02*
Y0103399D01*
X01216Y01055D02*
X01204D01*
Y01061D01*
X01206Y01063D01*
X0121D01*
X01212Y01061D01*
Y01055D01*
Y01059D02*
X01216Y01063D01*
X01204Y01067D02*
Y0107499D01*
X01206D01*
X01214Y01067D01*
X01216D01*
X01215Y01154D02*
X01203D01*
Y0116D01*
X01205Y01162D01*
X01209D01*
X01211Y0116D01*
Y01154D01*
Y01158D02*
X01215Y01162D01*
X01203Y0117399D02*
X01205Y0116999D01*
X01209Y01166D01*
X01213D01*
X01215Y01168D01*
Y0117199D01*
X01213Y0117399D01*
X01211D01*
X01209Y0117199D01*
Y01166D01*
X01124Y01176D02*
Y01188D01*
X0113D01*
X01132Y01186D01*
Y01182D01*
X0113Y0118D01*
X01124D01*
X01128D02*
X01132Y01176D01*
X0114399Y01188D02*
X01136D01*
Y01182D01*
X0113999Y01184D01*
X0114199D01*
X0114399Y01182D01*
Y01178D01*
X0114199Y01176D01*
X01138D01*
X01136Y01178D01*
X01237Y00578D02*
X01225D01*
Y00584D01*
X01227Y00586D01*
X01231D01*
X01233Y00584D01*
Y00578D01*
Y00582D02*
X01237Y00586D01*
Y0059599D02*
X01225D01*
X01231Y0059D01*
Y0059799D01*
X01148Y00578D02*
X01136D01*
Y00584D01*
X01138Y00586D01*
X01142D01*
X01144Y00584D01*
Y00578D01*
Y00582D02*
X01148Y00586D01*
X01138Y0059D02*
X01136Y00592D01*
Y0059599D01*
X01138Y0059799D01*
X0114D01*
X01142Y0059599D01*
Y0059399D01*
Y0059599D01*
X01144Y0059799D01*
X01146D01*
X01148Y0059599D01*
Y00592D01*
X01146Y0059D01*
X01272Y01066D02*
X01284D01*
Y01074D01*
X01272Y0108599D02*
Y01078D01*
X01284D01*
Y0108599D01*
X01278Y01078D02*
Y0108199D01*
X01272Y0108999D02*
X01284D01*
Y0109599D01*
X01282Y0109799D01*
X01274D01*
X01272Y0109599D01*
Y0108999D01*
Y0110999D02*
Y0110199D01*
X01278D01*
X01276Y0110599D01*
Y0110799D01*
X01278Y0110999D01*
X01282D01*
X01284Y0110799D01*
Y0110399D01*
X01282Y0110199D01*
X01249Y01067D02*
X01261D01*
Y01075D01*
X01249Y0108699D02*
Y01079D01*
X01261D01*
Y0108699D01*
X01255Y01079D02*
Y0108299D01*
X01249Y0109099D02*
X01261D01*
Y0109699D01*
X01259Y0109899D01*
X01251D01*
X01249Y0109699D01*
Y0109099D01*
X01261Y0110899D02*
X01249D01*
X01255Y0110299D01*
Y0111099D01*
X0125Y01122D02*
X01262D01*
Y0113D01*
X0125Y0114199D02*
Y01134D01*
X01262D01*
Y0114199D01*
X01256Y01134D02*
Y0113799D01*
X0125Y0114599D02*
X01262D01*
Y0115199D01*
X0126Y0115399D01*
X01252D01*
X0125Y0115199D01*
Y0114599D01*
X01252Y0115799D02*
X0125Y0115999D01*
Y0116399D01*
X01252Y0116599D01*
X01254D01*
X01256Y0116399D01*
Y0116199D01*
Y0116399D01*
X01258Y0116599D01*
X0126D01*
X01262Y0116399D01*
Y0115999D01*
X0126Y0115799D01*
X01195Y00509D02*
Y00497D01*
X01203D01*
X0121499Y00509D02*
X01207D01*
Y00497D01*
X0121499D01*
X01207Y00503D02*
X0121099D01*
X0121899Y00509D02*
Y00497D01*
X0122499D01*
X0122699Y00499D01*
Y00507D01*
X0122499Y00509D01*
X0121899D01*
X0123899Y00497D02*
X0123099D01*
X0123899Y00505D01*
Y00507D01*
X0123699Y00509D01*
X0123299D01*
X0123099Y00507D01*
X01136Y00509D02*
Y00497D01*
X01144D01*
X0115599Y00509D02*
X01148D01*
Y00497D01*
X0115599D01*
X01148Y00503D02*
X0115199D01*
X0115999Y00509D02*
Y00497D01*
X0116599D01*
X0116799Y00499D01*
Y00507D01*
X0116599Y00509D01*
X0115999D01*
X0117199Y00497D02*
X0117599D01*
X0117399D01*
Y00509D01*
X0117199Y00507D01*
X00851Y00971D02*
X00863D01*
Y00977D01*
X00861Y00979D01*
X00853D01*
X00851Y00977D01*
Y00971D01*
X00853Y00983D02*
X00851Y00985D01*
Y0098899D01*
X00853Y0099099D01*
X00855D01*
X00857Y0098899D01*
Y0098699D01*
Y0098899D01*
X00859Y0099099D01*
X00861D01*
X00863Y0098899D01*
Y00985D01*
X00861Y00983D01*
X00877Y00971D02*
X00889D01*
Y00977D01*
X00887Y00979D01*
X00879D01*
X00877Y00977D01*
Y00971D01*
X00889Y0099099D02*
Y00983D01*
X00881Y0099099D01*
X00879D01*
X00877Y0098899D01*
Y00985D01*
X00879Y00983D01*
X01334Y01047D02*
X01346D01*
Y01053D01*
X01344Y01055D01*
X01336D01*
X01334Y01053D01*
Y01047D01*
X01346Y01059D02*
Y0106299D01*
Y01061D01*
X01334D01*
X01336Y01059D01*
X00976Y01181D02*
X00974Y01179D01*
Y01175D01*
X00976Y01173D01*
X00984D01*
X00986Y01175D01*
Y01179D01*
X00984Y01181D01*
X00986Y01185D02*
Y0118899D01*
Y01187D01*
X00974D01*
X00976Y01185D01*
X00986Y0120299D02*
Y0119499D01*
X00978Y0120299D01*
X00976D01*
X00974Y0120099D01*
Y0119699D01*
X00976Y0119499D01*
X00944Y01187D02*
X00942Y01185D01*
Y01181D01*
X00944Y01179D01*
X00952D01*
X00954Y01181D01*
Y01185D01*
X00952Y01187D01*
X00954Y01191D02*
Y0119499D01*
Y01193D01*
X00942D01*
X00944Y01191D01*
X00954Y0120099D02*
Y0120499D01*
Y0120299D01*
X00942D01*
X00944Y0120099D01*
X01224Y00699D02*
X01216D01*
X01212Y00703D01*
X01216Y00707D01*
X01224D01*
X01218D01*
Y00699D01*
X01212Y00711D02*
X0122D01*
X01224Y0071499D01*
X0122Y0071899D01*
X01212D01*
X01224Y0072299D02*
X01212D01*
Y0072899D01*
X01214Y0073099D01*
X01218D01*
X0122Y0072899D01*
Y0072299D01*
Y0072699D02*
X01224Y0073099D01*
X01212Y0074698D02*
X01224D01*
X0122Y0075098D01*
X01224Y0075498D01*
X01212D01*
Y0075898D02*
Y0076298D01*
Y0076098D01*
X01224D01*
Y0075898D01*
Y0076298D01*
Y0076898D02*
X01212D01*
X01224Y0077697D01*
X01212D01*
Y0078097D02*
Y0078897D01*
Y0078497D01*
X01224D01*
X01212Y0080097D02*
Y0079297D01*
X01224D01*
Y0080097D01*
X01218Y0079297D02*
Y0079697D01*
X01224Y0080497D02*
X01212D01*
Y0081096D01*
X01214Y0081296D01*
X01218D01*
X0122Y0081096D01*
Y0080497D01*
Y0080896D02*
X01224Y0081296D01*
X01119Y00547D02*
X01111D01*
X01107Y00551D01*
X01111Y00555D01*
X01119D01*
X01113D01*
Y00547D01*
X01107Y00559D02*
Y0056699D01*
Y0056299D01*
X01119D01*
Y0057099D02*
X01111D01*
Y0057299D01*
X01113Y0057499D01*
X01119D01*
X01113D01*
X01111Y0057699D01*
X01113Y0057899D01*
X01119D01*
Y0058899D02*
Y0058499D01*
X01117Y0058299D01*
X01113D01*
X01111Y0058499D01*
Y0058899D01*
X01113Y0059099D01*
X01115D01*
Y0058299D01*
X01123Y0059898D02*
Y0060098D01*
X01121Y0060298D01*
X01111D01*
Y0059698D01*
X01113Y0059498D01*
X01117D01*
X01119Y0059698D01*
Y0060298D01*
X01111Y0060898D02*
Y0061298D01*
X01113Y0061498D01*
X01119D01*
Y0060898D01*
X01117Y0060698D01*
X01115Y0060898D01*
Y0061498D01*
X01109Y0061898D02*
X01107Y0062098D01*
Y0062497D01*
X01109Y0062697D01*
X01111D01*
X01113Y0062497D01*
X01115Y0062697D01*
X01117D01*
X01119Y0062497D01*
Y0062098D01*
X01117Y0061898D01*
X01115D01*
X01113Y0062098D01*
X01111Y0061898D01*
X01109D01*
X01113Y0062098D02*
Y0062497D01*
X01119Y0063097D02*
X01111Y0063897D01*
X01119Y0064897D02*
X01107D01*
X01113Y0064297D01*
Y0065097D01*
X01109Y0065496D02*
X01107Y0065696D01*
Y0066096D01*
X01109Y0066296D01*
X01111D01*
X01113Y0066096D01*
X01115Y0066296D01*
X01117D01*
X01119Y0066096D01*
Y0065696D01*
X01117Y0065496D01*
X01115D01*
X01113Y0065696D01*
X01111Y0065496D01*
X01109D01*
X01113Y0065696D02*
Y0066096D01*
X01119Y0066696D02*
X01111Y0067496D01*
X01109Y0067896D02*
X01107Y0068096D01*
Y0068496D01*
X01109Y0068695D01*
X01111D01*
X01113Y0068496D01*
X01115Y0068695D01*
X01117D01*
X01119Y0068496D01*
Y0068096D01*
X01117Y0067896D01*
X01115D01*
X01113Y0068096D01*
X01111Y0067896D01*
X01109D01*
X01113Y0068096D02*
Y0068496D01*
X01109Y0069095D02*
X01107Y0069295D01*
Y0069695D01*
X01109Y0069895D01*
X01111D01*
X01113Y0069695D01*
X01115Y0069895D01*
X01117D01*
X01119Y0069695D01*
Y0069295D01*
X01117Y0069095D01*
X01115D01*
X01113Y0069295D01*
X01111Y0069095D01*
X01109D01*
X01113Y0069295D02*
Y0069695D01*
X01119Y0070295D02*
X01111Y0071095D01*
X01119Y0071495D02*
Y0071894D01*
Y0071695D01*
X01107D01*
X01109Y0071495D01*
X01107Y0073294D02*
X01109Y0072894D01*
X01113Y0072494D01*
X01117D01*
X01119Y0072694D01*
Y0073094D01*
X01117Y0073294D01*
X01115D01*
X01113Y0073094D01*
Y0072494D01*
X01109Y0073694D02*
X01107Y0073894D01*
Y0074294D01*
X01109Y0074494D01*
X01111D01*
X01113Y0074294D01*
X01115Y0074494D01*
X01117D01*
X01119Y0074294D01*
Y0073894D01*
X01117Y0073694D01*
X01115D01*
X01113Y0073894D01*
X01111Y0073694D01*
X01109D01*
X01113Y0073894D02*
Y0074294D01*
X01119Y0074893D02*
X01111Y0075693D01*
X01109Y0076093D02*
X01107Y0076293D01*
Y0076693D01*
X01109Y0076893D01*
X01111D01*
X01113Y0076693D01*
Y0076493D01*
Y0076693D01*
X01115Y0076893D01*
X01117D01*
X01119Y0076693D01*
Y0076293D01*
X01117Y0076093D01*
X01119Y0078092D02*
Y0077293D01*
X01111Y0078092D01*
X01109D01*
X01107Y0077892D01*
Y0077493D01*
X01109Y0077293D01*
Y0078492D02*
X01107Y0078692D01*
Y0079092D01*
X01109Y0079292D01*
X01111D01*
X01113Y0079092D01*
X01115Y0079292D01*
X01117D01*
X01119Y0079092D01*
Y0078692D01*
X01117Y0078492D01*
X01115D01*
X01113Y0078692D01*
X01111Y0078492D01*
X01109D01*
X01113Y0078692D02*
Y0079092D01*
X01278Y0048528D02*
Y0049727D01*
X01284D01*
X01286Y0049527D01*
Y0049127D01*
X01284Y0048927D01*
X01278D01*
X0129Y0049727D02*
Y0048528D01*
X0129599D01*
X0129799Y0048727D01*
Y0048927D01*
X0129599Y0049127D01*
X0129D01*
X0129599D01*
X0129799Y0049327D01*
Y0049527D01*
X0129599Y0049727D01*
X0129D01*
X0130199Y0049527D02*
X0130399Y0049727D01*
X0130799D01*
X0130999Y0049527D01*
Y0048727D01*
X0130799Y0048528D01*
X0130399D01*
X0130199Y0048727D01*
Y0049527D01*
X01278Y0051068D02*
Y0052267D01*
X01284D01*
X01286Y0052067D01*
Y0051667D01*
X01284Y0051467D01*
X01278D01*
X0129Y0052267D02*
Y0051068D01*
X0129599D01*
X0129799Y0051267D01*
Y0051467D01*
X0129599Y0051667D01*
X0129D01*
X0129599D01*
X0129799Y0051867D01*
Y0052067D01*
X0129599Y0052267D01*
X0129D01*
X0130199Y0051068D02*
X0130599D01*
X0130399D01*
Y0052267D01*
X0130199Y0052067D01*
X01278Y0053607D02*
Y0054807D01*
X01284D01*
X01286Y0054607D01*
Y0054207D01*
X01284Y0054007D01*
X01278D01*
X0129Y0054807D02*
Y0053607D01*
X0129599D01*
X0129799Y0053807D01*
Y0054007D01*
X0129599Y0054207D01*
X0129D01*
X0129599D01*
X0129799Y0054407D01*
Y0054607D01*
X0129599Y0054807D01*
X0129D01*
X0130999Y0053607D02*
X0130199D01*
X0130999Y0054407D01*
Y0054607D01*
X0130799Y0054807D01*
X0130399D01*
X0130199Y0054607D01*
X01278Y0056147D02*
Y0057347D01*
X01284D01*
X01286Y0057147D01*
Y0056747D01*
X01284Y0056547D01*
X01278D01*
X0129Y0057347D02*
Y0056147D01*
X0129599D01*
X0129799Y0056347D01*
Y0056547D01*
X0129599Y0056747D01*
X0129D01*
X0129599D01*
X0129799Y0056947D01*
Y0057147D01*
X0129599Y0057347D01*
X0129D01*
X0130199Y0057147D02*
X0130399Y0057347D01*
X0130799D01*
X0130999Y0057147D01*
Y0056947D01*
X0130799Y0056747D01*
X0130599D01*
X0130799D01*
X0130999Y0056547D01*
Y0056347D01*
X0130799Y0056147D01*
X0130399D01*
X0130199Y0056347D01*
X01278Y0058688D02*
Y0059887D01*
X01284D01*
X01286Y0059687D01*
Y0059287D01*
X01284Y0059087D01*
X01278D01*
X0129Y0059887D02*
Y0058688D01*
X0129599D01*
X0129799Y0058887D01*
Y0059087D01*
X0129599Y0059287D01*
X0129D01*
X0129599D01*
X0129799Y0059487D01*
Y0059687D01*
X0129599Y0059887D01*
X0129D01*
X0130799Y0058688D02*
Y0059887D01*
X0130199Y0059287D01*
X0130999D01*
X01278Y0061228D02*
Y0062427D01*
X01284D01*
X01286Y0062227D01*
Y0061827D01*
X01284Y0061627D01*
X01278D01*
X0129Y0062427D02*
Y0061228D01*
X0129599D01*
X0129799Y0061427D01*
Y0061627D01*
X0129599Y0061827D01*
X0129D01*
X0129599D01*
X0129799Y0062027D01*
Y0062227D01*
X0129599Y0062427D01*
X0129D01*
X0130999D02*
X0130199D01*
Y0061827D01*
X0130599Y0062027D01*
X0130799D01*
X0130999Y0061827D01*
Y0061427D01*
X0130799Y0061228D01*
X0130399D01*
X0130199Y0061427D01*
X01278Y00672D02*
Y0068D01*
X01282Y00684D01*
X01286Y0068D01*
Y00672D01*
Y00678D01*
X01278D01*
X0129Y00672D02*
Y00684D01*
X0129599D01*
X0129799Y00682D01*
Y00678D01*
X0129599Y00676D01*
X0129D01*
X0129399D02*
X0129799Y00672D01*
X0130999Y00684D02*
X0130199D01*
Y00672D01*
X0130999D01*
X0130199Y00678D02*
X0130599D01*
X0132199Y00684D02*
X0131399D01*
Y00678D01*
X0131799D01*
X0131399D01*
Y00672D01*
X01278Y00698D02*
Y0071D01*
X01284D01*
X01286Y00708D01*
Y00704D01*
X01284Y00702D01*
X01278D01*
X0129799Y00708D02*
X0129599Y0071D01*
X01292D01*
X0129Y00708D01*
Y007D01*
X01292Y00698D01*
X0129599D01*
X0129799Y007D01*
X0130199Y00708D02*
X0130399Y0071D01*
X0130799D01*
X0130999Y00708D01*
Y007D01*
X0130799Y00698D01*
X0130399D01*
X0130199Y007D01*
Y00708D01*
X01278Y007234D02*
Y007354D01*
X01284D01*
X01286Y007334D01*
Y007294D01*
X01284Y007274D01*
X01278D01*
X0129799Y007334D02*
X0129599Y007354D01*
X01292D01*
X0129Y007334D01*
Y007254D01*
X01292Y007234D01*
X0129599D01*
X0129799Y007254D01*
X0130199Y007234D02*
X0130599D01*
X0130399D01*
Y007354D01*
X0130199Y007334D01*
X01278Y007488D02*
Y007608D01*
X01284D01*
X01286Y007588D01*
Y007548D01*
X01284Y007528D01*
X01278D01*
X0129799Y007588D02*
X0129599Y007608D01*
X01292D01*
X0129Y007588D01*
Y007508D01*
X01292Y007488D01*
X0129599D01*
X0129799Y007508D01*
X0130999Y007488D02*
X0130199D01*
X0130999Y007568D01*
Y007588D01*
X0130799Y007608D01*
X0130399D01*
X0130199Y007588D01*
X01278Y007742D02*
Y007862D01*
X01284D01*
X01286Y007842D01*
Y007802D01*
X01284Y007782D01*
X01278D01*
X0129799Y007842D02*
X0129599Y007862D01*
X01292D01*
X0129Y007842D01*
Y007762D01*
X01292Y007742D01*
X0129599D01*
X0129799Y007762D01*
X0130199Y007842D02*
X0130399Y007862D01*
X0130799D01*
X0130999Y007842D01*
Y007822D01*
X0130799Y007802D01*
X0130599D01*
X0130799D01*
X0130999Y007782D01*
Y007762D01*
X0130799Y007742D01*
X0130399D01*
X0130199Y007762D01*
X0123Y00849D02*
Y00861D01*
X01236D01*
X01238Y00859D01*
Y00855D01*
X01236Y00853D01*
X0123D01*
X01234D02*
X01238Y00849D01*
X0124999Y00859D02*
X0124799Y00861D01*
X01244D01*
X01242Y00859D01*
Y00857D01*
X01244Y00855D01*
X0124799D01*
X0124999Y00853D01*
Y00851D01*
X0124799Y00849D01*
X01244D01*
X01242Y00851D01*
X0125399Y00861D02*
X0126199D01*
X0125799D01*
Y00849D01*
X0126599D02*
X0127399Y00857D01*
X0127798Y00849D02*
Y00861D01*
X0128398D01*
X0128598Y00859D01*
Y00855D01*
X0128398Y00853D01*
X0127798D01*
X0129798Y00859D02*
X0129598Y00861D01*
X0129198D01*
X0128998Y00859D01*
Y00851D01*
X0129198Y00849D01*
X0129598D01*
X0129798Y00851D01*
X0130997Y00861D02*
X0130598Y00859D01*
X0130198Y00855D01*
Y00851D01*
X0130398Y00849D01*
X0130797D01*
X0130997Y00851D01*
Y00853D01*
X0130797Y00855D01*
X0130198D01*
X01278Y007996D02*
Y008116D01*
X01284D01*
X01286Y008096D01*
Y008056D01*
X01284Y008036D01*
X01278D01*
X0129799Y008096D02*
X0129599Y008116D01*
X01292D01*
X0129Y008096D01*
Y008016D01*
X01292Y007996D01*
X0129599D01*
X0129799Y008016D01*
X0130799Y007996D02*
Y008116D01*
X0130199Y008056D01*
X0130999D01*
X01278Y00825D02*
Y00837D01*
X01284D01*
X01286Y00835D01*
Y00831D01*
X01284Y00829D01*
X01278D01*
X0129799Y00835D02*
X0129599Y00837D01*
X01292D01*
X0129Y00835D01*
Y00827D01*
X01292Y00825D01*
X0129599D01*
X0129799Y00827D01*
X0130999Y00837D02*
X0130199D01*
Y00831D01*
X0130599Y00833D01*
X0130799D01*
X0130999Y00831D01*
Y00827D01*
X0130799Y00825D01*
X0130399D01*
X0130199Y00827D01*
X00835Y0057187D02*
X00833Y0057387D01*
X00829D01*
X00827Y0057187D01*
Y0056387D01*
X00829Y0056188D01*
X00833D01*
X00835Y0056387D01*
Y0056787D01*
X00831D01*
X00839Y0056188D02*
Y0057387D01*
X0084699Y0056188D01*
Y0057387D01*
X0085099D02*
Y0056188D01*
X0085699D01*
X0085899Y0056387D01*
Y0057187D01*
X0085699Y0057387D01*
X0085099D01*
X00835Y0054647D02*
X00833Y0054847D01*
X00829D01*
X00827Y0054647D01*
Y0053847D01*
X00829Y0053647D01*
X00833D01*
X00835Y0053847D01*
Y0054247D01*
X00831D01*
X00839Y0053647D02*
Y0054847D01*
X0084699Y0053647D01*
Y0054847D01*
X0085099D02*
Y0053647D01*
X0085699D01*
X0085899Y0053847D01*
Y0054647D01*
X0085699Y0054847D01*
X0085099D01*
X00835Y0052307D02*
X00827D01*
Y0051707D01*
X00831Y0051907D01*
X00833D01*
X00835Y0051707D01*
Y0051307D01*
X00833Y0051107D01*
X00829D01*
X00827Y0051307D01*
X00839Y0052307D02*
Y0051507D01*
X0084299Y0051107D01*
X0084699Y0051507D01*
Y0052307D01*
X00835Y0049767D02*
X00827D01*
Y0049167D01*
X00831Y0049367D01*
X00833D01*
X00835Y0049167D01*
Y0048767D01*
X00833Y0048568D01*
X00829D01*
X00827Y0048767D01*
X00839Y0049767D02*
Y0048967D01*
X0084299Y0048568D01*
X0084699Y0048967D01*
Y0049767D01*
X00835Y008608D02*
X00833Y008628D01*
X00829D01*
X00827Y008608D01*
Y008528D01*
X00829Y008508D01*
X00833D01*
X00835Y008528D01*
Y008568D01*
X00831D01*
X00839Y008508D02*
Y008628D01*
X0084699Y008508D01*
Y008628D01*
X0085099D02*
Y008508D01*
X0085699D01*
X0085899Y008528D01*
Y008608D01*
X0085699Y008628D01*
X0085099D01*
X00835Y008374D02*
X00827D01*
Y008314D01*
X00831Y008334D01*
X00833D01*
X00835Y008314D01*
Y008274D01*
X00833Y008254D01*
X00829D01*
X00827Y008274D01*
X00839Y008374D02*
Y008294D01*
X0084299Y008254D01*
X0084699Y008294D01*
Y008374D01*
X00827Y006476D02*
Y006596D01*
X00833D01*
X00835Y006576D01*
Y006536D01*
X00833Y006516D01*
X00827D01*
X00839Y006596D02*
Y006476D01*
X0084499D01*
X0084699Y006496D01*
Y006576D01*
X0084499Y006596D01*
X00839D01*
X0085899D02*
X0085499Y006576D01*
X0085099Y006536D01*
Y006496D01*
X0085299Y006476D01*
X0085699D01*
X0085899Y006496D01*
Y006516D01*
X0085699Y006536D01*
X0085099D01*
X00827Y006222D02*
Y006342D01*
X00833D01*
X00835Y006322D01*
Y006282D01*
X00833Y006262D01*
X00827D01*
X00839Y006342D02*
Y006222D01*
X0084499D01*
X0084699Y006242D01*
Y006322D01*
X0084499Y006342D01*
X00839D01*
X0085099D02*
X0085899D01*
Y006322D01*
X0085099Y006242D01*
Y006222D01*
X00827Y006984D02*
Y007104D01*
X00833D01*
X00835Y007084D01*
Y007044D01*
X00833Y007024D01*
X00827D01*
X00839Y007104D02*
Y006984D01*
X0084499D01*
X0084699Y007004D01*
Y007084D01*
X0084499Y007104D01*
X00839D01*
X0085699Y006984D02*
Y007104D01*
X0085099Y007044D01*
X0085899D01*
X00827Y00673D02*
Y00685D01*
X00833D01*
X00835Y00683D01*
Y00679D01*
X00833Y00677D01*
X00827D01*
X00839Y00685D02*
Y00673D01*
X0084499D01*
X0084699Y00675D01*
Y00683D01*
X0084499Y00685D01*
X00839D01*
X0085899D02*
X0085099D01*
Y00679D01*
X0085499Y00681D01*
X0085699D01*
X0085899Y00679D01*
Y00675D01*
X0085699Y00673D01*
X0085299D01*
X0085099Y00675D01*
X00827Y007492D02*
Y007612D01*
X00833D01*
X00835Y007592D01*
Y007552D01*
X00833Y007532D01*
X00827D01*
X00839Y007612D02*
Y007492D01*
X0084499D01*
X0084699Y007512D01*
Y007592D01*
X0084499Y007612D01*
X00839D01*
X0085899Y007492D02*
X0085099D01*
X0085899Y007572D01*
Y007592D01*
X0085699Y007612D01*
X0085299D01*
X0085099Y007592D01*
X0087898Y007492D02*
X0087498Y007532D01*
Y007572D01*
X0087898Y007612D01*
X0088498D02*
Y007492D01*
X0089098D01*
X0089298Y007512D01*
Y007532D01*
X0089098Y007552D01*
X0088498D01*
X0089098D01*
X0089298Y007572D01*
Y007592D01*
X0089098Y007612D01*
X0088498D01*
X0089698D02*
Y007512D01*
X0089898Y007492D01*
X0090298D01*
X0090497Y007512D01*
Y007612D01*
X0090897D02*
X0091697D01*
X0091297D01*
Y007492D01*
X0092097Y007612D02*
X0092897D01*
X0092497D01*
Y007492D01*
X0093896Y007612D02*
X0093497D01*
X0093297Y007592D01*
Y007512D01*
X0093497Y007492D01*
X0093896D01*
X0094096Y007512D01*
Y007592D01*
X0093896Y007612D01*
X0094496Y007492D02*
Y007612D01*
X0095296Y007492D01*
Y007612D01*
X0095696Y007492D02*
X0096096Y007532D01*
Y007572D01*
X0095696Y007612D01*
X00827Y007238D02*
Y007358D01*
X00833D01*
X00835Y007338D01*
Y007298D01*
X00833Y007278D01*
X00827D01*
X00839Y007358D02*
Y007238D01*
X0084499D01*
X0084699Y007258D01*
Y007338D01*
X0084499Y007358D01*
X00839D01*
X0085099Y007338D02*
X0085299Y007358D01*
X0085699D01*
X0085899Y007338D01*
Y007318D01*
X0085699Y007298D01*
X0085499D01*
X0085699D01*
X0085899Y007278D01*
Y007258D01*
X0085699Y007238D01*
X0085299D01*
X0085099Y007258D01*
X00827Y007746D02*
Y007866D01*
X00833D01*
X00835Y007846D01*
Y007806D01*
X00833Y007786D01*
X00827D01*
X00839Y007866D02*
Y007746D01*
X0084499D01*
X0084699Y007766D01*
Y007846D01*
X0084499Y007866D01*
X00839D01*
X0085099Y007746D02*
X0085499D01*
X0085299D01*
Y007866D01*
X0085099Y007846D01*
X0087698Y007746D02*
X0087299Y007786D01*
Y007826D01*
X0087698Y007866D01*
X0088298D02*
X0089098D01*
X0088698D01*
Y007746D01*
X0089498Y007866D02*
X0090298Y007746D01*
Y007866D02*
X0089498Y007746D01*
X0090697D02*
X0091097Y007786D01*
Y007826D01*
X0090697Y007866D01*
X00827Y008D02*
Y00812D01*
X00833D01*
X00835Y0081D01*
Y00806D01*
X00833Y00804D01*
X00827D01*
X00839Y00812D02*
Y008D01*
X0084499D01*
X0084699Y00802D01*
Y0081D01*
X0084499Y00812D01*
X00839D01*
X0085099Y0081D02*
X0085299Y00812D01*
X0085699D01*
X0085899Y0081D01*
Y00802D01*
X0085699Y008D01*
X0085299D01*
X0085099Y00802D01*
Y0081D01*
X0087898Y008D02*
X0087498Y00804D01*
Y00808D01*
X0087898Y00812D01*
X0088498Y008D02*
Y00812D01*
X0089098D01*
X0089298Y0081D01*
Y00806D01*
X0089098Y00804D01*
X0088498D01*
X0088898D02*
X0089298Y008D01*
X0089698Y00812D02*
X0090497Y008D01*
Y00812D02*
X0089698Y008D01*
X0090897D02*
X0091297Y00804D01*
Y00808D01*
X0090897Y00812D01*
X01308Y01185D02*
X013D01*
Y01179D01*
X01304Y01181D01*
X01306D01*
X01308Y01179D01*
Y01175D01*
X01306Y01173D01*
X01302D01*
X013Y01175D01*
X01312Y01185D02*
Y01177D01*
X0131599Y01173D01*
X0131999Y01177D01*
Y01185D01*
X01301Y01204D02*
X01303Y01206D01*
X01307D01*
X01309Y01204D01*
Y01196D01*
X01307Y01194D01*
X01303D01*
X01301Y01196D01*
Y01204D01*
X01313Y01206D02*
Y01198D01*
X0131699Y01194D01*
X0132099Y01198D01*
Y01206D01*
X01306Y0089199D02*
X01304Y0088999D01*
Y00886D01*
X01306Y00884D01*
X01308D01*
X0131Y00886D01*
Y0088999D01*
X01312Y0089199D01*
X01314D01*
X01316Y0088999D01*
Y00886D01*
X01314Y00884D01*
X01306Y0090399D02*
X01304Y0090199D01*
Y0089799D01*
X01306Y0089599D01*
X01314D01*
X01316Y0089799D01*
Y0090199D01*
X01314Y0090399D01*
X01304Y0090799D02*
X01316D01*
X01312D01*
X01304Y0091599D01*
X0131Y0090999D01*
X01316Y0091599D01*
X0129Y00874D02*
X01278D01*
X01282Y00878D01*
X01278Y00882D01*
X0129D01*
X01278Y00886D02*
Y0088999D01*
Y00888D01*
X0129D01*
Y00886D01*
Y0088999D01*
X0128Y0090399D02*
X01278Y0090199D01*
Y0089799D01*
X0128Y0089599D01*
X01282D01*
X01284Y0089799D01*
Y0090199D01*
X01286Y0090399D01*
X01288D01*
X0129Y0090199D01*
Y0089799D01*
X01288Y0089599D01*
X01278Y0091399D02*
Y0090999D01*
X0128Y0090799D01*
X01288D01*
X0129Y0090999D01*
Y0091399D01*
X01288Y0091599D01*
X0128D01*
X01278Y0091399D01*
X01264Y00876D02*
X01252D01*
X01256Y0088D01*
X01252Y00884D01*
X01264D01*
X01252Y0089399D02*
Y0088999D01*
X01254Y00888D01*
X01262D01*
X01264Y0088999D01*
Y0089399D01*
X01262Y0089599D01*
X01254D01*
X01252Y0089399D01*
X01254Y0090799D02*
X01252Y0090599D01*
Y0090199D01*
X01254Y0089999D01*
X01256D01*
X01258Y0090199D01*
Y0090599D01*
X0126Y0090799D01*
X01262D01*
X01264Y0090599D01*
Y0090199D01*
X01262Y0089999D01*
X01252Y0091199D02*
Y0091599D01*
Y0091399D01*
X01264D01*
Y0091199D01*
Y0091599D01*
X01238Y00884D02*
X01226D01*
Y0088999D01*
X01228Y0089199D01*
X01232D01*
X01234Y0088999D01*
Y00884D01*
Y00888D02*
X01238Y0089199D01*
X01228Y0090399D02*
X01226Y0090199D01*
Y0089799D01*
X01228Y0089599D01*
X0123D01*
X01232Y0089799D01*
Y0090199D01*
X01234Y0090399D01*
X01236D01*
X01238Y0090199D01*
Y0089799D01*
X01236Y0089599D01*
X01226Y0090799D02*
Y0091599D01*
Y0091199D01*
X01238D01*
X012Y0090399D02*
Y0089599D01*
X01206D01*
X01204Y0089999D01*
Y0090199D01*
X01206Y0090399D01*
X0121D01*
X01212Y0090199D01*
Y0089799D01*
X0121Y0089599D01*
X012Y0090799D02*
X01208D01*
X01212Y0091199D01*
X01208Y0091599D01*
X012D01*
X01168Y00985D02*
X01166Y00983D01*
Y00979D01*
X01168Y00977D01*
X0117D01*
X01172Y00979D01*
Y00983D01*
X01174Y00985D01*
X01176D01*
X01178Y00983D01*
Y00979D01*
X01176Y00977D01*
X01166Y00989D02*
X01178D01*
Y0099699D01*
X01166Y0100699D02*
Y0100299D01*
X01168Y0100099D01*
X01176D01*
X01178Y0100299D01*
Y0100699D01*
X01176Y0100899D01*
X01168D01*
X01166Y0100699D01*
Y0101299D02*
X01178D01*
X01174Y0101699D01*
X01178Y0102099D01*
X01166D01*
X01142Y00978D02*
X0113D01*
Y00984D01*
X01132Y00986D01*
X01136D01*
X01138Y00984D01*
Y00978D01*
Y00982D02*
X01142Y00986D01*
X01132Y0099799D02*
X0113Y0099599D01*
Y00992D01*
X01132Y0099D01*
X01134D01*
X01136Y00992D01*
Y0099599D01*
X01138Y0099799D01*
X0114D01*
X01142Y0099599D01*
Y00992D01*
X0114Y0099D01*
X0113Y0100199D02*
Y0100999D01*
Y0100599D01*
X01142D01*
X01097Y00896D02*
Y00904D01*
Y009D01*
X01109D01*
X01097Y00908D02*
X01109Y0091599D01*
X01097D02*
X01109Y00908D01*
X01082Y0089599D02*
X0107D01*
Y0090199D01*
X01072Y0090399D01*
X01076D01*
X01078Y0090199D01*
Y0089599D01*
Y0089999D02*
X01082Y0090399D01*
X0107Y0090799D02*
X01082Y0091599D01*
X0107D02*
X01082Y0090799D01*
X0121Y00597D02*
X01198D01*
Y00603D01*
X012Y00605D01*
X01204D01*
X01206Y00603D01*
Y00597D01*
X01198Y00609D02*
X0121D01*
Y0061499D01*
X01208Y0061699D01*
X01206D01*
X01204Y0061499D01*
Y00609D01*
Y0061499D01*
X01202Y0061699D01*
X012D01*
X01198Y0061499D01*
Y00609D01*
X0121Y0062099D02*
Y0062499D01*
Y0062299D01*
X01198D01*
X012Y0062099D01*
X01178Y00597D02*
X01166D01*
Y00603D01*
X01168Y00605D01*
X01172D01*
X01174Y00603D01*
Y00597D01*
X01166Y00609D02*
X01178D01*
Y0061499D01*
X01176Y0061699D01*
X01174D01*
X01172Y0061499D01*
Y00609D01*
Y0061499D01*
X0117Y0061699D01*
X01168D01*
X01166Y0061499D01*
Y00609D01*
X01168Y0062099D02*
X01166Y0062299D01*
Y0062699D01*
X01168Y0062899D01*
X01176D01*
X01178Y0062699D01*
Y0062299D01*
X01176Y0062099D01*
X01168D01*
X01231Y00443D02*
Y00455D01*
X01237D01*
X01239Y00453D01*
Y00449D01*
X01237Y00447D01*
X01231D01*
X01243Y00455D02*
Y00443D01*
X0124899D01*
X0125099Y00445D01*
Y00453D01*
X0124899Y00455D01*
X01243D01*
X0126299Y00443D02*
X0125499D01*
X0126299Y00451D01*
Y00453D01*
X0126099Y00455D01*
X0125699D01*
X0125499Y00453D01*
X00828Y00443D02*
Y00455D01*
X00834D01*
X00836Y00453D01*
Y00449D01*
X00834Y00447D01*
X00828D01*
X00832D02*
X00836Y00443D01*
X0084799Y00455D02*
X0084D01*
Y00443D01*
X0084799D01*
X0084Y00449D02*
X0084399D01*
X0085999Y00453D02*
X0085799Y00455D01*
X0085399D01*
X0085199Y00453D01*
Y00451D01*
X0085399Y00449D01*
X0085799D01*
X0085999Y00447D01*
Y00445D01*
X0085799Y00443D01*
X0085399D01*
X0085199Y00445D01*
X0087199Y00455D02*
X0086399D01*
Y00443D01*
X0087199D01*
X0086399Y00449D02*
X0086799D01*
X0087598Y00455D02*
X0088398D01*
X0087998D01*
Y00443D01*
X00892Y00915D02*
Y00927D01*
X00898D01*
X009Y00925D01*
Y00921D01*
X00898Y00919D01*
X00892D01*
X00896D02*
X009Y00915D01*
X0090999D02*
X00906D01*
X00904Y00917D01*
Y00921D01*
X00906Y00923D01*
X0090999D01*
X0091199Y00921D01*
Y00919D01*
X00904D01*
X0091599Y00923D02*
X0091999Y00915D01*
X0092399Y00923D01*
X0093998Y00915D02*
X0094398D01*
X0094198D01*
Y00927D01*
X0093998Y00925D01*
X0094998Y00915D02*
Y00917D01*
X0095198D01*
Y00915D01*
X0094998D01*
X0095998Y00925D02*
X0096198Y00927D01*
X0096598D01*
X0096798Y00925D01*
Y00917D01*
X0096598Y00915D01*
X0096198D01*
X0095998Y00917D01*
Y00925D01*
D31*
X0102235Y0103702D02*
G03*
X0106045Y0103721I0001905J0000013D01*
G01*
Y0109131D02*
G03*
X0102235Y0109113I-0001905J-0000013D01*
G01*
X009398Y0058887D02*
G03*
X009779Y0058906I0001905J0000013D01*
G01*
Y0064316D02*
G03*
X009398Y0064298I-0001905J-0000013D01*
G01*
X0104115Y0106896D02*
Y0107683D01*
X0103226Y0106896D02*
X0105105D01*
X0104115Y0105092D02*
Y0105854D01*
X01032D02*
X0105105D01*
X0106045Y010372D02*
Y0109054D01*
X0102235Y0103745D02*
Y010908D01*
X009586Y0062081D02*
Y0062868D01*
X0094971Y0062081D02*
X009685D01*
X009586Y0060278D02*
Y006104D01*
X0094945D02*
X009685D01*
X009779Y0058905D02*
Y0064239D01*
X009398Y005893D02*
Y0064265D01*
D32*
X0115333Y0076043D02*
Y0076048D01*
Y0076058D02*
Y0076063D01*
Y0076068D02*
Y0076073D01*
X0115338Y0075992D02*
Y0076114D01*
X0115343Y0075946D02*
Y0076124D01*
X0115348Y0075901D02*
Y007614D01*
X0115353Y0075855D02*
Y007615D01*
X0115358Y0075809D02*
Y0076165D01*
X0115363Y0075759D02*
Y007618D01*
X0115369Y0075713D02*
Y007619D01*
X0115374Y0075667D02*
Y0076206D01*
X0115379Y0075621D02*
Y0076216D01*
X0115384Y0075576D02*
Y0076231D01*
X0115389Y007553D02*
Y0076246D01*
X0115394Y0075479D02*
Y0076256D01*
X0115399Y0075433D02*
Y0076272D01*
X0115404Y0075388D02*
Y0076287D01*
X0115409Y0075342D02*
Y0076297D01*
X0115414Y0075296D02*
Y0076312D01*
X0115419Y0075245D02*
Y0076322D01*
X0115424Y00752D02*
Y0076338D01*
X011543Y0075154D02*
Y0076338D01*
X0115435Y0075108D02*
Y0076338D01*
X011544Y0075063D02*
Y007616D01*
Y0076165D02*
Y0076338D01*
X0115445Y0075012D02*
Y007616D01*
Y0076165D02*
Y0076338D01*
X011545Y0074966D02*
Y0076338D01*
X0115455Y007492D02*
Y0076211D01*
Y0076216D02*
Y0076338D01*
X011546Y0074875D02*
Y0076338D01*
X0115465Y0074829D02*
Y0076338D01*
X011547Y0074783D02*
Y0076221D01*
Y0076231D02*
Y0076338D01*
X0115475Y0074732D02*
Y00762D01*
Y0076211D02*
Y0076221D01*
Y0076231D02*
Y0076338D01*
X011548Y0074687D02*
Y0076221D01*
Y0076231D02*
Y0076338D01*
X0115485Y0074641D02*
Y0076221D01*
Y0076231D02*
Y0076338D01*
X011549Y0074595D02*
Y0076338D01*
X0115496Y0074549D02*
Y0076338D01*
X0115501Y0074499D02*
Y0076338D01*
X0115506Y0074453D02*
Y0076338D01*
X0115511Y0074407D02*
Y0076338D01*
X0115516Y0074362D02*
Y0076338D01*
X0115521Y0074336D02*
Y0076338D01*
X0115526Y0074331D02*
Y0076338D01*
X0115531Y0074331D02*
Y0076338D01*
X0115536Y0074331D02*
Y0076338D01*
X0115541Y0074336D02*
Y0076338D01*
X0115546Y0074331D02*
Y0076338D01*
X0115551Y0074331D02*
Y0076338D01*
X0115557Y0074331D02*
Y0076338D01*
X0115562Y0074331D02*
Y0076338D01*
X0115567Y0074336D02*
Y0076338D01*
X0115572Y0074336D02*
Y0076338D01*
X0115577Y0074336D02*
Y0076338D01*
X0115582Y0074336D02*
Y0076333D01*
X0115587Y0074336D02*
Y0076333D01*
X0115592Y0074336D02*
Y0076333D01*
X0115597Y0074336D02*
Y0076333D01*
X0115602Y0074336D02*
Y0076333D01*
X0115607Y0074336D02*
Y0076333D01*
X0115612Y0074336D02*
Y0076333D01*
X0115617Y0074336D02*
Y0076333D01*
X0115623Y0074336D02*
Y0076333D01*
X0115628Y0074336D02*
Y0076333D01*
X0115633Y0074336D02*
Y0076333D01*
X0115638Y0074336D02*
Y0076333D01*
X0115643Y0074336D02*
Y0076333D01*
X0115648Y0074336D02*
Y0076333D01*
X0115653Y0074336D02*
Y0076333D01*
X0115658Y0074336D02*
Y0076333D01*
X0115663Y0074336D02*
Y0076333D01*
X0115668Y0074336D02*
Y0076333D01*
X0115673Y0074336D02*
Y0076333D01*
X0115678Y0074336D02*
Y0076333D01*
X0115684Y0074336D02*
Y0076333D01*
X0115689Y0074336D02*
Y0076333D01*
X0115694Y0074341D02*
Y0076333D01*
X0115699Y0074341D02*
Y0076333D01*
X0115704Y0074341D02*
Y0076333D01*
X0115709Y0074341D02*
Y0076333D01*
X0115714Y0074341D02*
Y0076114D01*
Y0076119D02*
Y0076333D01*
X0115719Y0074341D02*
Y0076114D01*
Y0076119D02*
Y0076333D01*
X0115724Y0074341D02*
Y0076333D01*
X0115729Y0074341D02*
Y0076333D01*
X0115734Y0074341D02*
Y0076333D01*
X0115739Y0074341D02*
Y0076333D01*
X0115744Y0074341D02*
Y0076333D01*
X011575Y0074341D02*
Y0076333D01*
X0115755Y0074341D02*
Y0076333D01*
X011576Y0074341D02*
Y0076333D01*
X0115765Y0074341D02*
Y0076333D01*
X011577Y0074341D02*
Y0076333D01*
X0115775Y0074341D02*
Y0076333D01*
X011578Y0074341D02*
Y0076333D01*
X0115785Y0074341D02*
Y0076333D01*
X011579Y0074341D02*
Y0076333D01*
X0115795Y0074341D02*
Y0076333D01*
X01158Y0074341D02*
Y0076333D01*
X0115805Y0074341D02*
Y0076333D01*
X0115811Y0074341D02*
Y0076333D01*
X0115816Y0074341D02*
Y0076333D01*
X0115821Y0074346D02*
Y0076333D01*
X0115826Y0074346D02*
Y0076333D01*
X0115831Y0074346D02*
Y0076333D01*
X0115836Y0074346D02*
Y0076333D01*
X0115841Y0074346D02*
Y0076333D01*
X0115846Y0074346D02*
Y0076333D01*
X0115851Y0074346D02*
Y0076333D01*
X0115856Y0074346D02*
Y0076333D01*
X0115861Y0074346D02*
Y0076333D01*
X0115866Y0074346D02*
Y0076333D01*
X0115871Y0074346D02*
Y0076333D01*
X0115877Y0074346D02*
Y0076333D01*
X0115882Y0074346D02*
Y0076333D01*
X0115887Y0074346D02*
Y0076333D01*
X0115892Y0074346D02*
Y0076333D01*
X0115897Y0074346D02*
Y0076333D01*
X0115902Y0074346D02*
Y0076333D01*
X0115907Y0074346D02*
Y0076333D01*
X0115912Y0074346D02*
Y0076333D01*
X0115917Y0074346D02*
Y0076333D01*
X0115922Y0074346D02*
Y0076327D01*
X0115927Y0074346D02*
Y0076327D01*
X0115932Y0074346D02*
Y0076327D01*
X0115938Y0074346D02*
Y0076327D01*
X0115943Y0074346D02*
Y0076327D01*
X0115948Y0074351D02*
Y0076327D01*
X0115953Y0074351D02*
Y0076327D01*
X0115958Y0074351D02*
Y0076327D01*
X0115963Y0074351D02*
Y0076327D01*
X0115968Y0074351D02*
Y0076327D01*
X0115973Y0074351D02*
Y0076327D01*
X0115978Y0074351D02*
Y0076155D01*
Y007616D02*
Y0076327D01*
X0115983Y0074351D02*
Y007615D01*
Y0076155D02*
Y0076327D01*
X0115988Y0074351D02*
Y0076129D01*
Y007614D02*
Y0076327D01*
X0115993Y0074351D02*
Y0076129D01*
Y007614D02*
Y0076327D01*
X0115998Y0074351D02*
Y007618D01*
Y007619D02*
Y0076327D01*
X0116004Y0074351D02*
Y007618D01*
Y007619D02*
Y0076327D01*
X0116009Y0074351D02*
Y0076327D01*
X0116014Y0074351D02*
Y0076327D01*
X0116019Y0074351D02*
Y0076211D01*
Y0076221D02*
Y0076327D01*
X0116024Y0074351D02*
Y0076216D01*
Y0076221D02*
Y0076327D01*
X0116029Y0074351D02*
Y0076327D01*
X0116034Y0074351D02*
Y0076327D01*
X0116039Y0074351D02*
Y0076327D01*
X0116044Y0074351D02*
Y0076327D01*
X0116049Y0074351D02*
Y0076327D01*
X0116054Y0074351D02*
Y0076327D01*
X0116059Y0074351D02*
Y0076327D01*
X0116065Y0074351D02*
Y0076327D01*
X011607Y0074351D02*
Y0076327D01*
X0116075Y0074356D02*
Y0076327D01*
X011608Y0074356D02*
Y0076327D01*
X0116085Y0074356D02*
Y0076327D01*
X011609Y0074356D02*
Y0076327D01*
X0116095Y0074356D02*
Y0076327D01*
X01161Y0074356D02*
Y0076327D01*
X0116105Y0074356D02*
Y0076327D01*
X011611Y0074356D02*
Y0076327D01*
X0116115Y0074356D02*
Y0076327D01*
X011612Y0074356D02*
Y0076327D01*
X0116125Y0074356D02*
Y0076327D01*
X0116131Y0074356D02*
Y0076327D01*
X0116136Y0074356D02*
Y0076231D01*
Y0076297D02*
Y0076302D01*
X0116141Y0074356D02*
Y0076002D01*
X0116146Y0074356D02*
Y0075789D01*
X0116151Y0074356D02*
Y0075565D01*
X0116156Y0074356D02*
Y0075352D01*
X0116161Y0074356D02*
Y0075256D01*
X0116166Y0074356D02*
Y0075134D01*
Y0075144D02*
Y0075169D01*
Y0075174D02*
Y0075256D01*
X0116171Y0074356D02*
Y0075174D01*
Y0075179D02*
Y0075256D01*
X0116176Y0074356D02*
Y0075174D01*
Y0075179D02*
Y0075256D01*
X0116181Y0074356D02*
Y0075256D01*
X0116186Y0074356D02*
Y0075256D01*
X0116192Y0074356D02*
Y0075256D01*
X0116197Y0074356D02*
Y0075256D01*
X0116202Y0074356D02*
Y0075164D01*
Y0075174D02*
Y0075256D01*
X0116207Y0074362D02*
Y0075164D01*
Y0075174D02*
Y0075256D01*
X0116212Y0074362D02*
Y0075256D01*
X0116217Y0074362D02*
Y0075256D01*
X0116222Y0074362D02*
Y0075256D01*
X0116227Y0074362D02*
Y0075256D01*
X0116232Y0074362D02*
Y0075256D01*
X0116237Y0074362D02*
Y0075256D01*
X0116242Y0074362D02*
Y0075256D01*
X0116247Y0074362D02*
Y0075256D01*
X0116252Y0074362D02*
Y0075256D01*
X0116258Y0074362D02*
Y0075256D01*
X0116263Y0074362D02*
Y0075256D01*
X0116268Y0074362D02*
Y0075256D01*
X0116273Y0074362D02*
Y0075256D01*
X0116278Y0074362D02*
Y0075256D01*
X0116283Y0074362D02*
Y0075256D01*
X0116288Y0074362D02*
Y0075256D01*
X0116293Y0074362D02*
Y0075256D01*
X0116298Y0074362D02*
Y0075256D01*
X0116303Y0074362D02*
Y0074991D01*
Y0075002D02*
Y0075256D01*
X0116308Y0074362D02*
Y0074991D01*
Y0075002D02*
Y0075256D01*
X0116313Y0074362D02*
Y0075063D01*
Y0075073D02*
Y0075256D01*
X0116319Y0074362D02*
Y0075063D01*
Y0075073D02*
Y0075256D01*
X0116324Y0074362D02*
Y0075256D01*
X0116329Y0074362D02*
Y0075256D01*
X0116334Y0074367D02*
Y0075256D01*
X0116339Y0074367D02*
Y007554D01*
X0116344Y0074367D02*
Y0075073D01*
Y0075083D02*
Y0075962D01*
X0116349Y0074367D02*
Y0075073D01*
Y0075078D02*
Y0076211D01*
X0116354Y0074367D02*
Y0076211D01*
X0116359Y0074367D02*
Y0076211D01*
X0116364Y0074367D02*
Y0076211D01*
X0116369Y0074367D02*
Y0076211D01*
X0116374Y0074367D02*
Y0076211D01*
X0116379Y0074367D02*
Y0076216D01*
X0116385Y0074367D02*
Y0076216D01*
X011639Y0074367D02*
Y0076216D01*
X0116395Y0074367D02*
Y0076216D01*
X01164Y0074367D02*
Y0076216D01*
X0116405Y0074367D02*
Y0076216D01*
X011641Y0074367D02*
Y0076216D01*
X0116415Y0070765D02*
Y0071253D01*
Y0071258D02*
Y0071278D01*
Y0072883D02*
Y007334D01*
Y0073732D02*
Y0074224D01*
Y0074367D02*
Y0076216D01*
Y0078045D02*
Y0079248D01*
Y0079569D02*
Y0080046D01*
X011642Y0070765D02*
Y0071283D01*
Y0072055D02*
Y0072741D01*
Y0072873D02*
Y0073351D01*
Y0073721D02*
Y0074235D01*
Y0074367D02*
Y0076216D01*
Y00768D02*
Y0077303D01*
Y0078034D02*
Y0079254D01*
Y0079563D02*
Y0080051D01*
Y0080422D02*
Y0081011D01*
X0116425Y0070765D02*
Y0071283D01*
Y0072055D02*
Y0072741D01*
Y0072873D02*
Y0073356D01*
Y0073721D02*
Y0074229D01*
Y0074367D02*
Y0076216D01*
Y0076795D02*
Y0077303D01*
Y0078034D02*
Y0079254D01*
Y0079558D02*
Y0080051D01*
Y0080417D02*
Y0081011D01*
X011643Y0070765D02*
Y0071288D01*
Y007205D02*
Y0072736D01*
Y0072873D02*
Y0073361D01*
Y0073721D02*
Y0074229D01*
Y0074367D02*
Y0076216D01*
Y0076795D02*
Y0077303D01*
Y0078029D02*
Y0079254D01*
Y0079558D02*
Y0080051D01*
Y0080412D02*
Y0081006D01*
X0116435Y0070765D02*
Y0071288D01*
Y0072045D02*
Y0072731D01*
Y0072868D02*
Y0073366D01*
Y0073716D02*
Y0074229D01*
Y0074367D02*
Y0076216D01*
Y0076795D02*
Y0077298D01*
Y0078029D02*
Y0079248D01*
Y0079558D02*
Y0080051D01*
Y0080407D02*
Y0081001D01*
X011644Y007077D02*
Y0071288D01*
Y007204D02*
Y0072731D01*
Y0072868D02*
Y0073371D01*
Y0073716D02*
Y0074224D01*
Y0074367D02*
Y0076129D01*
Y007614D02*
Y0076216D01*
Y007679D02*
Y0077298D01*
Y0078024D02*
Y0079248D01*
Y0079558D02*
Y0080046D01*
Y0080402D02*
Y0080996D01*
X0116446Y007077D02*
Y0071288D01*
Y007204D02*
Y0072726D01*
Y0072868D02*
Y0073376D01*
Y0073716D02*
Y0074224D01*
Y0074367D02*
Y0076216D01*
Y007679D02*
Y0077298D01*
Y0078019D02*
Y0079248D01*
Y0079553D02*
Y0080046D01*
Y0080397D02*
Y0080991D01*
X0116451Y007077D02*
Y0071293D01*
Y0072035D02*
Y0072721D01*
Y0072868D02*
Y0073381D01*
Y0073716D02*
Y0074224D01*
Y0074367D02*
Y0076216D01*
Y007679D02*
Y0077298D01*
Y0078019D02*
Y0079243D01*
Y0079553D02*
Y0080046D01*
Y0080391D02*
Y0080986D01*
X0116456Y007077D02*
Y0071293D01*
Y007203D02*
Y0072716D01*
Y0072863D02*
Y0073386D01*
Y0073711D02*
Y0074219D01*
Y0074367D02*
Y0076216D01*
Y007679D02*
Y0077293D01*
Y0078014D02*
Y0079243D01*
Y0079553D02*
Y0080041D01*
Y0080386D02*
Y0080981D01*
X0116461Y007077D02*
Y0071293D01*
Y007203D02*
Y0072716D01*
Y0072863D02*
Y0073391D01*
Y0073711D02*
Y0074219D01*
Y0074372D02*
Y0076216D01*
Y0076785D02*
Y0077293D01*
Y0078009D02*
Y0079243D01*
Y0079548D02*
Y0080041D01*
Y0080381D02*
Y0080976D01*
X0116466Y0070775D02*
Y0071293D01*
Y0072025D02*
Y0072711D01*
Y0072863D02*
Y0073396D01*
Y0073711D02*
Y0074219D01*
Y0074372D02*
Y0076216D01*
Y0076785D02*
Y0077293D01*
Y0078009D02*
Y0079243D01*
Y0079548D02*
Y0080041D01*
Y0080376D02*
Y0080971D01*
X0116471Y0070775D02*
Y0071293D01*
Y007202D02*
Y0072705D01*
Y0072858D02*
Y0073401D01*
Y0073711D02*
Y0074219D01*
Y0074372D02*
Y0076216D01*
Y0076785D02*
Y0077288D01*
Y0078004D02*
Y0079238D01*
Y0079548D02*
Y0080041D01*
Y0080371D02*
Y0080966D01*
X0116476Y0070775D02*
Y0071298D01*
Y0072015D02*
Y00727D01*
Y0072858D02*
Y0073406D01*
Y0073706D02*
Y0074214D01*
Y0074372D02*
Y0076216D01*
Y0076785D02*
Y0077288D01*
Y0077999D02*
Y0079238D01*
Y0079548D02*
Y0080036D01*
Y0080366D02*
Y008096D01*
X0116481Y0070775D02*
Y0071298D01*
Y0072015D02*
Y0072695D01*
Y0072858D02*
Y0073412D01*
Y0073706D02*
Y0074214D01*
Y0074372D02*
Y0076216D01*
Y007678D02*
Y0077288D01*
Y0077999D02*
Y0079238D01*
Y0079543D02*
Y0080036D01*
Y0080361D02*
Y0080955D01*
X0116486Y007078D02*
Y0071298D01*
Y0072009D02*
Y0072695D01*
Y0072858D02*
Y0073422D01*
Y0073706D02*
Y0074214D01*
Y0074372D02*
Y0076216D01*
Y007678D02*
Y0077288D01*
Y0077994D02*
Y0079238D01*
Y0079543D02*
Y0080036D01*
Y0080356D02*
Y008095D01*
X0116491Y007078D02*
Y0071298D01*
Y0072004D02*
Y007269D01*
Y0072853D02*
Y0073427D01*
Y0073706D02*
Y0074209D01*
Y0074372D02*
Y0076216D01*
Y007678D02*
Y0077283D01*
Y0077994D02*
Y0079233D01*
Y0079543D02*
Y0080031D01*
Y0080351D02*
Y0080945D01*
X0116496Y007078D02*
Y0071303D01*
Y0072004D02*
Y0072685D01*
Y0072853D02*
Y0073432D01*
Y0073701D02*
Y0074209D01*
Y0074372D02*
Y0076216D01*
Y0076775D02*
Y0077283D01*
Y0077989D02*
Y0079233D01*
Y0079543D02*
Y0080031D01*
Y0080346D02*
Y008094D01*
X0116501Y007078D02*
Y0071303D01*
Y0071999D02*
Y007268D01*
Y0072853D02*
Y0073437D01*
Y0073701D02*
Y0074209D01*
Y0074372D02*
Y0076216D01*
Y0076775D02*
Y0077283D01*
Y0077984D02*
Y0079233D01*
Y0079538D02*
Y0080031D01*
Y0080341D02*
Y0080935D01*
X0116506Y007078D02*
Y0071303D01*
Y0071994D02*
Y007268D01*
Y0072853D02*
Y0073442D01*
Y0073701D02*
Y0074209D01*
Y0074372D02*
Y0076216D01*
Y0076775D02*
Y0077277D01*
Y0077984D02*
Y0079233D01*
Y0079538D02*
Y0080031D01*
Y0080336D02*
Y008093D01*
X0116512Y0070785D02*
Y0071303D01*
Y0071994D02*
Y0072675D01*
Y0072848D02*
Y0073447D01*
Y0073701D02*
Y0074204D01*
Y0074372D02*
Y0076216D01*
Y0076775D02*
Y0077277D01*
Y0077978D02*
Y0079228D01*
Y0079538D02*
Y0080026D01*
Y0080331D02*
Y0080925D01*
X0116517Y0070785D02*
Y0071308D01*
Y0071989D02*
Y007267D01*
Y0072848D02*
Y0073452D01*
Y0073696D02*
Y0074204D01*
Y0074372D02*
Y0076216D01*
Y0076769D02*
Y0077277D01*
Y0077973D02*
Y0079228D01*
Y0079533D02*
Y0080026D01*
Y0080331D02*
Y0080925D01*
X0116522Y0070785D02*
Y0071308D01*
Y0071984D02*
Y0072665D01*
Y0072848D02*
Y0073457D01*
Y0073696D02*
Y0074204D01*
Y0074372D02*
Y0076216D01*
Y0076769D02*
Y0077277D01*
Y0077973D02*
Y0079228D01*
Y0079533D02*
Y0080026D01*
Y0080325D02*
Y008092D01*
X0116527Y0070785D02*
Y0071308D01*
Y0071979D02*
Y0072665D01*
Y0072843D02*
Y0073462D01*
Y0073696D02*
Y0074199D01*
Y0074372D02*
Y0076216D01*
Y0076769D02*
Y0077272D01*
Y0077968D02*
Y0079228D01*
Y0079533D02*
Y0080021D01*
Y008032D02*
Y0080915D01*
X0116532Y0070785D02*
Y0071308D01*
Y0071979D02*
Y007266D01*
Y0072843D02*
Y0073467D01*
Y0073696D02*
Y0074199D01*
Y0074372D02*
Y0076216D01*
Y0076769D02*
Y0077272D01*
Y0077963D02*
Y0079223D01*
Y0079533D02*
Y0080021D01*
Y0080315D02*
Y008091D01*
X0116537Y007079D02*
Y0071314D01*
Y0071974D02*
Y0072655D01*
Y0072843D02*
Y0073473D01*
Y0073691D02*
Y0074199D01*
Y0074372D02*
Y0076216D01*
Y0076764D02*
Y0077272D01*
Y0077963D02*
Y0079223D01*
Y0079528D02*
Y0080021D01*
Y008031D02*
Y0080905D01*
X0116542Y007079D02*
Y0071314D01*
Y0071969D02*
Y007265D01*
Y0072843D02*
Y0073478D01*
Y0073691D02*
Y0074194D01*
Y0074372D02*
Y0076216D01*
Y0076764D02*
Y0077267D01*
Y0077958D02*
Y0079223D01*
Y0079528D02*
Y0080021D01*
Y0080305D02*
Y0080899D01*
X0116547Y007079D02*
Y0071314D01*
Y0071969D02*
Y0072644D01*
Y0072838D02*
Y0073483D01*
Y0073691D02*
Y0074194D01*
Y0074372D02*
Y0076216D01*
Y0076764D02*
Y0077267D01*
Y0077953D02*
Y0079218D01*
Y0079528D02*
Y0080016D01*
Y00803D02*
Y0080894D01*
X0116552Y007079D02*
Y0071314D01*
Y0071964D02*
Y0072644D01*
Y0072838D02*
Y0073488D01*
Y0073691D02*
Y0074194D01*
Y0074372D02*
Y0076216D01*
Y0076759D02*
Y0077267D01*
Y0077953D02*
Y0079218D01*
Y0079523D02*
Y0080016D01*
Y0080295D02*
Y0080889D01*
X0116557Y007079D02*
Y0071319D01*
Y0071959D02*
Y0072639D01*
Y0072838D02*
Y0073493D01*
Y0073686D02*
Y0074194D01*
Y0074372D02*
Y0076216D01*
Y0076759D02*
Y0077262D01*
Y0077948D02*
Y0079218D01*
Y0079523D02*
Y0080016D01*
Y008029D02*
Y0080884D01*
X0116562Y0070795D02*
Y0071319D01*
Y0071954D02*
Y0072634D01*
Y0072832D02*
Y0073498D01*
Y0073686D02*
Y0074189D01*
Y0074372D02*
Y0076216D01*
Y0076759D02*
Y0077262D01*
Y0077948D02*
Y0079218D01*
Y0079523D02*
Y008001D01*
Y0080285D02*
Y0080879D01*
X0116567Y0070795D02*
Y0071319D01*
Y0071954D02*
Y0072629D01*
Y0072832D02*
Y0073503D01*
Y0073686D02*
Y0074189D01*
Y0074372D02*
Y0076216D01*
Y0076759D02*
Y0077262D01*
Y0077943D02*
Y0079213D01*
Y0079523D02*
Y008001D01*
Y008028D02*
Y0080874D01*
X0116573Y0070795D02*
Y0071319D01*
Y0071949D02*
Y0072629D01*
Y0072832D02*
Y0073508D01*
Y0073686D02*
Y0074189D01*
Y0074372D02*
Y0076216D01*
Y0076754D02*
Y0077262D01*
Y0077938D02*
Y0079213D01*
Y0079518D02*
Y008001D01*
Y0080275D02*
Y0080869D01*
X0116578Y0070795D02*
Y0071319D01*
Y0071943D02*
Y0072624D01*
Y0072832D02*
Y0073513D01*
Y0073681D02*
Y0074184D01*
Y0074372D02*
Y0076216D01*
Y0076754D02*
Y0077257D01*
Y0077938D02*
Y0079213D01*
Y0079518D02*
Y008001D01*
Y008027D02*
Y0080864D01*
X0116583Y0070795D02*
Y0071324D01*
Y0071943D02*
Y0072619D01*
Y0072827D02*
Y0073518D01*
Y0073681D02*
Y0074184D01*
Y0074372D02*
Y0076216D01*
Y0076754D02*
Y0077257D01*
Y0077933D02*
Y0079213D01*
Y0079518D02*
Y0080005D01*
Y0080264D02*
Y0080859D01*
X0116588Y00708D02*
Y0071324D01*
Y0071938D02*
Y0072614D01*
Y0072827D02*
Y0073523D01*
Y0073681D02*
Y0074184D01*
Y0074377D02*
Y0076216D01*
Y0076749D02*
Y0077257D01*
Y0077928D02*
Y0079208D01*
Y0079513D02*
Y0080005D01*
Y0080259D02*
Y0080854D01*
X0116593Y00708D02*
Y0071324D01*
Y0071933D02*
Y0072609D01*
Y0072827D02*
Y0073528D01*
Y0073681D02*
Y0074184D01*
Y0074377D02*
Y0076216D01*
Y0076749D02*
Y0077252D01*
Y0077928D02*
Y0079208D01*
Y0079513D02*
Y0080005D01*
Y0080254D02*
Y0080849D01*
X0116598Y00708D02*
Y0071324D01*
Y0071928D02*
Y0072609D01*
Y0072822D02*
Y0073533D01*
Y0073676D02*
Y0074179D01*
Y0074377D02*
Y0076216D01*
Y0076749D02*
Y0077252D01*
Y0077923D02*
Y0079208D01*
Y0079513D02*
Y008D01*
Y0080249D02*
Y0080844D01*
X0116603Y00708D02*
Y0071329D01*
Y0071928D02*
Y0072604D01*
Y0072822D02*
Y0073544D01*
Y0073676D02*
Y0074179D01*
Y0074377D02*
Y0076216D01*
Y0076749D02*
Y0077252D01*
Y0077918D02*
Y0079208D01*
Y0079513D02*
Y008D01*
Y0080244D02*
Y0080839D01*
X0116608Y00708D02*
Y0071329D01*
Y0071923D02*
Y0072599D01*
Y0072822D02*
Y0073549D01*
Y0073676D02*
Y0074179D01*
Y0074377D02*
Y0076216D01*
Y0076744D02*
Y0077252D01*
Y0077918D02*
Y0079203D01*
Y0079508D02*
Y008D01*
Y0080239D02*
Y0080833D01*
X0116613Y0070806D02*
Y0071329D01*
Y0071918D02*
Y0072594D01*
Y0072822D02*
Y0073554D01*
Y0073676D02*
Y0074174D01*
Y0074377D02*
Y0076216D01*
Y0076744D02*
Y0077247D01*
Y0077912D02*
Y0079203D01*
Y0079508D02*
Y008D01*
Y0080234D02*
Y0080828D01*
X0116618Y0070806D02*
Y0071329D01*
Y0071918D02*
Y0072594D01*
Y0072817D02*
Y0073559D01*
Y0073671D02*
Y0074174D01*
Y0074377D02*
Y0076216D01*
Y0076744D02*
Y0077247D01*
Y0077912D02*
Y0079203D01*
Y0079508D02*
Y0079995D01*
Y0080229D02*
Y0080823D01*
X0116623Y0070806D02*
Y0071334D01*
Y0071913D02*
Y0072589D01*
Y0072817D02*
Y0073564D01*
Y0073671D02*
Y0074174D01*
Y0074377D02*
Y0076216D01*
Y0076744D02*
Y0077247D01*
Y0077907D02*
Y0079198D01*
Y0079502D02*
Y0079995D01*
Y0080224D02*
Y0080818D01*
X0116628Y0070806D02*
Y0071334D01*
Y0071908D02*
Y0072584D01*
Y0072817D02*
Y0073569D01*
Y0073671D02*
Y0074168D01*
Y0074377D02*
Y0076216D01*
Y0076739D02*
Y0077242D01*
Y0077902D02*
Y0079198D01*
Y0079502D02*
Y0079995D01*
Y0080219D02*
Y0080813D01*
X0116633Y0070806D02*
Y0071334D01*
Y0071903D02*
Y0072578D01*
Y0072812D02*
Y0073574D01*
Y0073671D02*
Y0074168D01*
Y0074377D02*
Y0076216D01*
Y0076739D02*
Y0077242D01*
Y0077902D02*
Y0079198D01*
Y0079502D02*
Y007999D01*
Y0080214D02*
Y0080808D01*
X0116639Y0070811D02*
Y0071334D01*
Y0071903D02*
Y0072578D01*
Y0072812D02*
Y0073579D01*
Y0073666D02*
Y0074168D01*
Y0074377D02*
Y0076216D01*
Y0076739D02*
Y0077242D01*
Y0077897D02*
Y0079198D01*
Y0079502D02*
Y007999D01*
Y0080209D02*
Y0080803D01*
X0116644Y0070811D02*
Y0071339D01*
Y0071898D02*
Y0072573D01*
Y0072812D02*
Y0073584D01*
Y0073666D02*
Y0074168D01*
Y0074377D02*
Y0076216D01*
Y0076734D02*
Y0077242D01*
Y0077892D02*
Y0079193D01*
Y0079497D02*
Y007999D01*
Y0080204D02*
Y0080803D01*
X0116649Y0070811D02*
Y0071339D01*
Y0071893D02*
Y0072568D01*
Y0072812D02*
Y0073589D01*
Y0073666D02*
Y0074163D01*
Y0074377D02*
Y0076216D01*
Y0076734D02*
Y0077237D01*
Y0077892D02*
Y0079193D01*
Y0079497D02*
Y007999D01*
Y0080198D02*
Y0080798D01*
X0116654Y0070811D02*
Y0071339D01*
Y0071893D02*
Y0072563D01*
Y0072807D02*
Y0073594D01*
Y0073666D02*
Y0074163D01*
Y0074377D02*
Y0076216D01*
Y0076734D02*
Y0077237D01*
Y0077887D02*
Y0079193D01*
Y0079497D02*
Y0079985D01*
Y0080193D02*
Y0080793D01*
X0116659Y0070811D02*
Y0071339D01*
Y0071888D02*
Y0072558D01*
Y0072807D02*
Y00736D01*
Y007366D02*
Y0074163D01*
Y0074377D02*
Y0076216D01*
Y0076734D02*
Y0077237D01*
Y0077882D02*
Y0079193D01*
Y0079492D02*
Y0079985D01*
Y0080188D02*
Y0080788D01*
X0116664Y0070816D02*
Y0071344D01*
Y0071882D02*
Y0072558D01*
Y0072807D02*
Y0073605D01*
Y007366D02*
Y0074158D01*
Y0074377D02*
Y0076216D01*
Y0076729D02*
Y0077232D01*
Y0077882D02*
Y0079188D01*
Y0079492D02*
Y0079985D01*
Y0080183D02*
Y0080783D01*
X0116669Y0070816D02*
Y0071344D01*
Y0071882D02*
Y0072553D01*
Y0072802D02*
Y007361D01*
Y007366D02*
Y0074158D01*
Y0074377D02*
Y0076216D01*
Y0076729D02*
Y0077232D01*
Y0077877D02*
Y0079188D01*
Y0079492D02*
Y007998D01*
Y0080178D02*
Y0080778D01*
X0116674Y0070816D02*
Y0071344D01*
Y0071877D02*
Y0072548D01*
Y0072802D02*
Y0073615D01*
Y007366D02*
Y0074158D01*
Y0074377D02*
Y0076216D01*
Y0076729D02*
Y0077232D01*
Y0077877D02*
Y0079188D01*
Y0079492D02*
Y007998D01*
Y0080173D02*
Y0080772D01*
X0116679Y0070816D02*
Y0071344D01*
Y0071872D02*
Y0072543D01*
Y0072802D02*
Y007362D01*
Y0073655D02*
Y0074158D01*
Y0074377D02*
Y0076216D01*
Y0076729D02*
Y0077227D01*
Y0077872D02*
Y0079188D01*
Y0079487D02*
Y007998D01*
Y0080168D02*
Y0080767D01*
X0116684Y0070816D02*
Y0071344D01*
Y0071867D02*
Y0072543D01*
Y0072802D02*
Y0073625D01*
Y0073655D02*
Y0074153D01*
Y0074377D02*
Y0076216D01*
Y0076724D02*
Y0077227D01*
Y0077867D02*
Y0079182D01*
Y0079487D02*
Y007998D01*
Y0080163D02*
Y0080762D01*
X0116689Y0070821D02*
Y0071349D01*
Y0071867D02*
Y0072538D01*
Y0072797D02*
Y007363D01*
Y0073655D02*
Y0074153D01*
Y0074377D02*
Y0076216D01*
Y0076724D02*
Y0077227D01*
Y0077867D02*
Y0079182D01*
Y0079487D02*
Y0079975D01*
Y0080158D02*
Y0080757D01*
X0116694Y0070821D02*
Y0071349D01*
Y0071862D02*
Y0072533D01*
Y0072797D02*
Y0073635D01*
Y0073655D02*
Y0074153D01*
Y0074377D02*
Y0076216D01*
Y0076724D02*
Y0077227D01*
Y0077862D02*
Y0079182D01*
Y0079482D02*
Y0079975D01*
Y0080153D02*
Y0080752D01*
X01167Y0070821D02*
Y0071349D01*
Y0071857D02*
Y0072528D01*
Y0072797D02*
Y007364D01*
Y007365D02*
Y0074148D01*
Y0074377D02*
Y0076216D01*
Y0076719D02*
Y0077222D01*
Y0077857D02*
Y0079182D01*
Y0079482D02*
Y0079975D01*
Y0080148D02*
Y0080747D01*
X0116705Y0070821D02*
Y0071349D01*
Y0071857D02*
Y0072528D01*
Y0072797D02*
Y0073645D01*
Y007365D02*
Y0074148D01*
Y0074377D02*
Y0076216D01*
Y0076719D02*
Y0077222D01*
Y0077857D02*
Y0079177D01*
Y0079482D02*
Y007997D01*
Y0080143D02*
Y0080742D01*
X011671Y0070821D02*
Y0071354D01*
Y0071852D02*
Y0072523D01*
Y0072792D02*
Y0074148D01*
Y0074377D02*
Y0076216D01*
Y0076719D02*
Y0077222D01*
Y0077851D02*
Y0079177D01*
Y0079482D02*
Y007997D01*
Y0080137D02*
Y0080737D01*
X0116715Y0070826D02*
Y0071354D01*
Y0071847D02*
Y0072517D01*
Y0072792D02*
Y0074148D01*
Y0074382D02*
Y0076216D01*
Y0076719D02*
Y0077216D01*
Y0077846D02*
Y0079177D01*
Y0079477D02*
Y007997D01*
Y0080132D02*
Y0080732D01*
X011672Y0070826D02*
Y0071354D01*
Y0071842D02*
Y0072512D01*
Y0072792D02*
Y0074143D01*
Y0074382D02*
Y0076216D01*
Y0076714D02*
Y0077216D01*
Y0077846D02*
Y0079172D01*
Y0079477D02*
Y007997D01*
Y0080127D02*
Y0080727D01*
X0116725Y0070826D02*
Y0071354D01*
Y0071842D02*
Y0072507D01*
Y0072787D02*
Y0074143D01*
Y0074382D02*
Y0076216D01*
Y0076714D02*
Y0077216D01*
Y0077841D02*
Y0079172D01*
Y0079477D02*
Y0079965D01*
Y0080122D02*
Y0080722D01*
X011673Y0070826D02*
Y0071359D01*
Y0071837D02*
Y0072507D01*
Y0072787D02*
Y0074143D01*
Y0074382D02*
Y0076216D01*
Y0076714D02*
Y0077216D01*
Y0077836D02*
Y0079172D01*
Y0079472D02*
Y0079965D01*
Y0080117D02*
Y0080717D01*
X0116735Y0070826D02*
Y0071359D01*
Y0071832D02*
Y0072502D01*
Y0072787D02*
Y0074138D01*
Y0074382D02*
Y0076216D01*
Y0076714D02*
Y0077211D01*
Y0077836D02*
Y0079172D01*
Y0079472D02*
Y0079965D01*
Y0080112D02*
Y0080712D01*
X011674Y0070831D02*
Y0071359D01*
Y0071832D02*
Y0072497D01*
Y0072787D02*
Y0074138D01*
Y0074382D02*
Y0076216D01*
Y0076708D02*
Y0077211D01*
Y0077831D02*
Y0079167D01*
Y0079472D02*
Y007996D01*
Y0080107D02*
Y0080706D01*
X0116745Y0070831D02*
Y0071359D01*
Y0071827D02*
Y0072492D01*
Y0072782D02*
Y0074138D01*
Y0074382D02*
Y0076216D01*
Y0076708D02*
Y0077211D01*
Y0077831D02*
Y0079167D01*
Y0079472D02*
Y007996D01*
Y0080102D02*
Y0080701D01*
X011675Y0070831D02*
Y0071364D01*
Y0071822D02*
Y0072492D01*
Y0072782D02*
Y0074133D01*
Y0074382D02*
Y0076216D01*
Y0076708D02*
Y0077206D01*
Y0077826D02*
Y0079167D01*
Y0079467D02*
Y007996D01*
Y0080097D02*
Y0080696D01*
X0116755Y0070831D02*
Y0071364D01*
Y0071816D02*
Y0072487D01*
Y0072782D02*
Y0074133D01*
Y0074382D02*
Y0076216D01*
Y0076703D02*
Y0077206D01*
Y0077821D02*
Y0079167D01*
Y0079467D02*
Y007996D01*
Y0080092D02*
Y0080691D01*
X011676Y0070831D02*
Y0071364D01*
Y0071816D02*
Y0072482D01*
Y0072777D02*
Y0074133D01*
Y0074382D02*
Y0076216D01*
Y0076703D02*
Y0077206D01*
Y0077821D02*
Y0079162D01*
Y0079467D02*
Y0079955D01*
Y0080092D02*
Y0080686D01*
X0116766Y0074382D02*
Y0076216D01*
X0116771Y0074382D02*
Y0076216D01*
X0116776Y0074382D02*
Y0076216D01*
X0116781Y0074382D02*
Y0076216D01*
X0116786Y0074382D02*
Y0076216D01*
X0116791Y0074382D02*
Y0076216D01*
X0116796Y0074382D02*
Y0076216D01*
X0116801Y0074382D02*
Y0076216D01*
X0116806Y0074382D02*
Y0076216D01*
X0116811Y0074382D02*
Y0076216D01*
X0116816Y0074382D02*
Y0076216D01*
X0116821Y0074382D02*
Y0076216D01*
X0116827Y0074382D02*
Y0076216D01*
X0116832Y0074382D02*
Y0076216D01*
X0116837Y0074382D02*
Y0076216D01*
X0116842Y0074387D02*
Y0076216D01*
X0116847Y0074387D02*
Y0076216D01*
X0116852Y0074387D02*
Y0076216D01*
X0116857Y0074387D02*
Y0076216D01*
X0116862Y0074387D02*
Y0076216D01*
X0116867Y0074387D02*
Y0076216D01*
X0116872Y0074387D02*
Y0076216D01*
X0116877Y0074387D02*
Y0076216D01*
X0116882Y0074387D02*
Y0076216D01*
X0116887Y0074387D02*
Y0076216D01*
X0116893Y0074387D02*
Y0076216D01*
X0116898Y0070861D02*
Y007139D01*
Y0072253D02*
Y007236D01*
Y0074387D02*
Y0076216D01*
X0116903Y0070861D02*
Y0071395D01*
Y0071695D02*
Y007236D01*
Y0072736D02*
Y0074102D01*
Y0074387D02*
Y0076216D01*
Y0076668D02*
Y0077171D01*
Y0077902D02*
Y0079121D01*
Y0079426D02*
Y0080559D01*
X0116908Y0070861D02*
Y0071395D01*
Y0071689D02*
Y0072355D01*
Y0072736D02*
Y0074102D01*
Y0074387D02*
Y0076216D01*
Y0076668D02*
Y0077166D01*
Y0077902D02*
Y0079121D01*
Y0079426D02*
Y0080554D01*
X0116913Y0070861D02*
Y0071395D01*
Y0071684D02*
Y007235D01*
Y0072736D02*
Y0074102D01*
Y0074387D02*
Y0076216D01*
Y0076663D02*
Y0077166D01*
Y0077897D02*
Y0079116D01*
Y0079421D02*
Y0080549D01*
X0116918Y0070861D02*
Y00714D01*
Y0071679D02*
Y0072345D01*
Y0072731D02*
Y0074097D01*
Y0074387D02*
Y0076216D01*
Y0076663D02*
Y0077166D01*
Y0077897D02*
Y0079116D01*
Y0079421D02*
Y0080544D01*
X0116923Y0070866D02*
Y00714D01*
Y0071679D02*
Y0072345D01*
Y0072731D02*
Y0074097D01*
Y0074387D02*
Y0076216D01*
Y0076663D02*
Y0077166D01*
Y0077897D02*
Y0079116D01*
Y0079421D02*
Y0080539D01*
X0116928Y0070866D02*
Y00714D01*
Y0071674D02*
Y007234D01*
Y0072731D02*
Y0074097D01*
Y0074387D02*
Y0076216D01*
Y0076658D02*
Y0077161D01*
Y0077897D02*
Y0079111D01*
Y0079416D02*
Y0080534D01*
X0116933Y0070866D02*
Y00714D01*
Y0071669D02*
Y0072335D01*
Y0072726D02*
Y0074092D01*
Y0074387D02*
Y0076216D01*
Y0076658D02*
Y0077161D01*
Y0077892D02*
Y0079111D01*
Y0079416D02*
Y0080529D01*
X0116938Y0070866D02*
Y0071405D01*
Y0071669D02*
Y007233D01*
Y0072726D02*
Y0074092D01*
Y0074387D02*
Y0076216D01*
Y0076658D02*
Y0077161D01*
Y0077892D02*
Y0079111D01*
Y0079416D02*
Y0080524D01*
X0116943Y0070866D02*
Y0071405D01*
Y0071664D02*
Y0072324D01*
Y0072726D02*
Y0074092D01*
Y0074387D02*
Y0076216D01*
Y0076658D02*
Y0077161D01*
Y0077892D02*
Y0079111D01*
Y0079416D02*
Y0080518D01*
X0116948Y0070872D02*
Y0071405D01*
Y0071659D02*
Y0072319D01*
Y0072726D02*
Y0074092D01*
Y0074387D02*
Y0076216D01*
Y0076653D02*
Y0077156D01*
Y0077892D02*
Y0079106D01*
Y0079411D02*
Y0080513D01*
X0116954Y0070872D02*
Y0071405D01*
Y0071654D02*
Y0072319D01*
Y0072721D02*
Y0074087D01*
Y0074387D02*
Y0076216D01*
Y0076653D02*
Y0077156D01*
Y0077887D02*
Y0079106D01*
Y0079411D02*
Y0080508D01*
X0116959Y0070872D02*
Y007141D01*
Y0071654D02*
Y0072314D01*
Y0072721D02*
Y0074087D01*
Y0074387D02*
Y0076216D01*
Y0076653D02*
Y0077156D01*
Y0077887D02*
Y0079106D01*
Y0079411D02*
Y0080503D01*
X0116964Y0070872D02*
Y007141D01*
Y0071649D02*
Y0072309D01*
Y0072721D02*
Y0074087D01*
Y0074387D02*
Y0076048D01*
Y0076058D02*
Y0076216D01*
Y0076653D02*
Y007715D01*
Y0077887D02*
Y0079106D01*
Y0079406D02*
Y0080498D01*
X0116969Y0070872D02*
Y007141D01*
Y0071644D02*
Y0072304D01*
Y0072721D02*
Y0074087D01*
Y0074392D02*
Y0076048D01*
Y0076058D02*
Y0076216D01*
Y0076648D02*
Y007715D01*
Y0077882D02*
Y0079101D01*
Y0079406D02*
Y0080493D01*
X0116974Y0070877D02*
Y007141D01*
Y0071644D02*
Y0072299D01*
Y0072716D02*
Y0074082D01*
Y0074392D02*
Y0076216D01*
Y0076648D02*
Y007715D01*
Y0077882D02*
Y0079101D01*
Y0079406D02*
Y0080488D01*
X0116979Y0070877D02*
Y0071415D01*
Y0071639D02*
Y0072294D01*
Y0072716D02*
Y0074082D01*
Y0074392D02*
Y0076216D01*
Y0076648D02*
Y007715D01*
Y0077882D02*
Y0079101D01*
Y0079406D02*
Y0080483D01*
X0116984Y0070877D02*
Y0071415D01*
Y0071634D02*
Y0072294D01*
Y0072716D02*
Y0074082D01*
Y0074392D02*
Y0076216D01*
Y0076642D02*
Y0077145D01*
Y0077882D02*
Y0079101D01*
Y0079401D02*
Y0080478D01*
X0116989Y0070877D02*
Y0071415D01*
Y0071628D02*
Y0072289D01*
Y0072711D02*
Y0074082D01*
Y0074392D02*
Y0076216D01*
Y0076642D02*
Y0077145D01*
Y0077877D02*
Y0079096D01*
Y0079401D02*
Y0080473D01*
X0116994Y0070877D02*
Y0071415D01*
Y0071628D02*
Y0072284D01*
Y0072711D02*
Y0074077D01*
Y0074392D02*
Y0076216D01*
Y0076642D02*
Y0077145D01*
Y0077877D02*
Y0079096D01*
Y0079401D02*
Y0080468D01*
X0116999Y0070882D02*
Y0071415D01*
Y0071623D02*
Y0072279D01*
Y0072711D02*
Y0074077D01*
Y0074392D02*
Y0076216D01*
Y0076642D02*
Y007714D01*
Y0077877D02*
Y0079096D01*
Y0079396D02*
Y0080463D01*
X0117004Y0070882D02*
Y007142D01*
Y0071618D02*
Y0072274D01*
Y0072711D02*
Y0073188D01*
Y0073198D02*
Y0074077D01*
Y0074392D02*
Y0076216D01*
Y0076637D02*
Y007714D01*
Y0077877D02*
Y0079096D01*
Y0079396D02*
Y0080458D01*
X0117009Y0070882D02*
Y007142D01*
Y0071618D02*
Y0072269D01*
Y0072705D02*
Y0073188D01*
Y0073203D02*
Y0074072D01*
Y0074392D02*
Y0076216D01*
Y0076637D02*
Y007714D01*
Y0077872D02*
Y0079091D01*
Y0079396D02*
Y0080452D01*
X0117014Y0070882D02*
Y007142D01*
Y0071613D02*
Y0072269D01*
Y0072705D02*
Y0073188D01*
Y0073208D02*
Y0074072D01*
Y0074392D02*
Y0076216D01*
Y0076637D02*
Y007714D01*
Y0077872D02*
Y0079091D01*
Y0079396D02*
Y0080447D01*
X011702Y0070882D02*
Y007142D01*
Y0071608D02*
Y0072263D01*
Y0072705D02*
Y0073183D01*
Y0073213D02*
Y0074072D01*
Y0074392D02*
Y0076216D01*
Y0076632D02*
Y0077135D01*
Y0077872D02*
Y0079091D01*
Y0079391D02*
Y0080442D01*
X0117025Y0070887D02*
Y0071425D01*
Y0071603D02*
Y0072258D01*
Y0072705D02*
Y0073183D01*
Y0073219D02*
Y0074072D01*
Y0074392D02*
Y0076216D01*
Y0076632D02*
Y0077135D01*
Y0077872D02*
Y0079086D01*
Y0079391D02*
Y0080437D01*
X011703Y0070887D02*
Y0071425D01*
Y0071603D02*
Y0072253D01*
Y00727D02*
Y0073183D01*
Y0073229D02*
Y0074067D01*
Y0074392D02*
Y0076216D01*
Y0076632D02*
Y0077135D01*
Y0077867D02*
Y0079086D01*
Y0079391D02*
Y0080432D01*
X0117035Y0070887D02*
Y0071425D01*
Y0071598D02*
Y0072248D01*
Y00727D02*
Y0073183D01*
Y0073234D02*
Y0074067D01*
Y0074392D02*
Y0076206D01*
Y0076632D02*
Y0077135D01*
Y0077867D02*
Y0079086D01*
Y0079386D02*
Y0080427D01*
X011704Y0070887D02*
Y0071425D01*
Y0071593D02*
Y0072243D01*
Y00727D02*
Y0073178D01*
Y0073239D02*
Y0074067D01*
Y0074392D02*
Y007619D01*
Y0076627D02*
Y007713D01*
Y0077867D02*
Y0079086D01*
Y0079386D02*
Y0080422D01*
X0117045Y0070887D02*
Y007143D01*
Y0071593D02*
Y0072243D01*
Y0072695D02*
Y0073178D01*
Y0073244D02*
Y0074067D01*
Y0074392D02*
Y0075261D01*
Y0075286D02*
Y0076175D01*
Y0076627D02*
Y007713D01*
Y0077867D02*
Y0079081D01*
Y0079386D02*
Y0080417D01*
X011705Y0070892D02*
Y007143D01*
Y0071588D02*
Y0072238D01*
Y0072695D02*
Y0073178D01*
Y0073249D02*
Y0074062D01*
Y0074392D02*
Y0075261D01*
Y0075332D02*
Y007616D01*
Y0076627D02*
Y007713D01*
Y0077862D02*
Y0079081D01*
Y0079386D02*
Y0080412D01*
X0117055Y0070892D02*
Y007143D01*
Y0071583D02*
Y0072233D01*
Y0072695D02*
Y0073173D01*
Y0073254D02*
Y0074062D01*
Y0074392D02*
Y0075261D01*
Y0075383D02*
Y0076145D01*
Y0076622D02*
Y0077125D01*
Y0077862D02*
Y0079081D01*
Y0079381D02*
Y0080407D01*
X011706Y0070892D02*
Y007143D01*
Y0071578D02*
Y0072228D01*
Y0072695D02*
Y0073173D01*
Y0073259D02*
Y0074062D01*
Y0074392D02*
Y0075261D01*
Y0075428D02*
Y0076129D01*
Y0076622D02*
Y0077125D01*
Y0077862D02*
Y0079081D01*
Y0079381D02*
Y0080402D01*
X0117065Y0070892D02*
Y0071435D01*
Y0071578D02*
Y0072223D01*
Y007269D02*
Y0073173D01*
Y0073264D02*
Y0074062D01*
Y0074392D02*
Y0075261D01*
Y0075479D02*
Y0076114D01*
Y0076622D02*
Y0077125D01*
Y0077857D02*
Y0079076D01*
Y0079381D02*
Y0080397D01*
X011707Y0070892D02*
Y0071435D01*
Y0071573D02*
Y0072218D01*
Y007269D02*
Y0073173D01*
Y0073269D02*
Y0074057D01*
Y0074392D02*
Y0075261D01*
Y0075525D02*
Y0076099D01*
Y0076622D02*
Y0077125D01*
Y0077857D02*
Y0079076D01*
Y0079375D02*
Y0080391D01*
X0117075Y0070897D02*
Y0071435D01*
Y0071568D02*
Y0072218D01*
Y007269D02*
Y0073168D01*
Y0073274D02*
Y0074057D01*
Y0074392D02*
Y0075261D01*
Y0075576D02*
Y0076084D01*
Y0076617D02*
Y007712D01*
Y0077857D02*
Y0079076D01*
Y0079375D02*
Y0080386D01*
X0117081Y0070897D02*
Y0071435D01*
Y0071568D02*
Y0072213D01*
Y007269D02*
Y0073168D01*
Y0073279D02*
Y0074057D01*
Y0074392D02*
Y0075261D01*
Y0075626D02*
Y0076068D01*
Y0076617D02*
Y007712D01*
Y0077857D02*
Y0079076D01*
Y0079375D02*
Y0080381D01*
X0117086Y0070897D02*
Y0071441D01*
Y0071562D02*
Y0072208D01*
Y0072685D02*
Y0073168D01*
Y007329D02*
Y0074057D01*
Y0074392D02*
Y0075261D01*
Y0075672D02*
Y0076053D01*
Y0076617D02*
Y007712D01*
Y0077851D02*
Y0079071D01*
Y0079375D02*
Y0080376D01*
X0117091Y0070897D02*
Y0071441D01*
Y0071557D02*
Y0072203D01*
Y0072685D02*
Y0073163D01*
Y0073295D02*
Y0074052D01*
Y0074392D02*
Y0075261D01*
Y0075723D02*
Y0076038D01*
Y0076617D02*
Y0077115D01*
Y0077851D02*
Y0079071D01*
Y007937D02*
Y0080371D01*
X0117096Y0070902D02*
Y0071441D01*
Y0071552D02*
Y0072197D01*
Y0072685D02*
Y0073163D01*
Y00733D02*
Y0074052D01*
Y0074392D02*
Y0075261D01*
Y0075769D02*
Y0076023D01*
Y0076612D02*
Y0077115D01*
Y0077851D02*
Y0079071D01*
Y007937D02*
Y0080371D01*
X0117101Y0070902D02*
Y0071441D01*
Y0071552D02*
Y0072192D01*
Y007268D02*
Y0073163D01*
Y0073305D02*
Y0074052D01*
Y0074397D02*
Y0075261D01*
Y0075819D02*
Y0076007D01*
Y0076612D02*
Y0077115D01*
Y0077851D02*
Y0079071D01*
Y007937D02*
Y0080366D01*
X0117106Y0070902D02*
Y0071446D01*
Y0071547D02*
Y0072192D01*
Y007268D02*
Y0073163D01*
Y007331D02*
Y0074047D01*
Y0074397D02*
Y0075261D01*
Y0075865D02*
Y0075992D01*
Y0076612D02*
Y0077115D01*
Y0077846D02*
Y0079066D01*
Y0079365D02*
Y0080361D01*
X0117111Y0070902D02*
Y0071446D01*
Y0071542D02*
Y0072187D01*
Y007268D02*
Y0073158D01*
Y0073315D02*
Y0074047D01*
Y0074397D02*
Y0075261D01*
Y0075916D02*
Y0075987D01*
Y0076607D02*
Y007711D01*
Y0077846D02*
Y0079066D01*
Y0079365D02*
Y0080356D01*
X0117116Y0070902D02*
Y0071446D01*
Y0071542D02*
Y0072182D01*
Y007268D02*
Y0073158D01*
Y007332D02*
Y0074047D01*
Y0074397D02*
Y0075261D01*
Y0076607D02*
Y007711D01*
Y0077846D02*
Y0079066D01*
Y0079365D02*
Y0080351D01*
X0117121Y0070907D02*
Y0071446D01*
Y0071537D02*
Y0072177D01*
Y0072675D02*
Y0073158D01*
Y0073325D02*
Y0074047D01*
Y0074397D02*
Y0075261D01*
Y0076607D02*
Y007711D01*
Y0077846D02*
Y0079061D01*
Y0079365D02*
Y0080346D01*
X0117126Y0070907D02*
Y0071446D01*
Y0071532D02*
Y0072172D01*
Y0072675D02*
Y0073158D01*
Y007333D02*
Y0074041D01*
Y0074397D02*
Y0075261D01*
Y0076607D02*
Y007711D01*
Y0077841D02*
Y0079061D01*
Y007936D02*
Y0080341D01*
X0117131Y0070907D02*
Y0071451D01*
Y0071527D02*
Y0072167D01*
Y0072675D02*
Y0073152D01*
Y0073335D02*
Y0074041D01*
Y0074397D02*
Y0075261D01*
Y0076602D02*
Y0077105D01*
Y0077841D02*
Y0079061D01*
Y007936D02*
Y0080336D01*
X0117136Y0070907D02*
Y0071451D01*
Y0071527D02*
Y0072167D01*
Y0072675D02*
Y0073152D01*
Y0073346D02*
Y0074041D01*
Y0074397D02*
Y0075261D01*
Y0076602D02*
Y0077105D01*
Y0077841D02*
Y0079061D01*
Y007936D02*
Y0080331D01*
X0117141Y0070907D02*
Y0071451D01*
Y0071522D02*
Y0072162D01*
Y007267D02*
Y0073152D01*
Y0073351D02*
Y0074041D01*
Y0074397D02*
Y0075261D01*
Y0076602D02*
Y0077105D01*
Y0077836D02*
Y0079055D01*
Y0079355D02*
Y0080325D01*
X0117147Y0070912D02*
Y0071451D01*
Y0071517D02*
Y0072157D01*
Y007267D02*
Y0073147D01*
Y0073356D02*
Y0074036D01*
Y0074397D02*
Y0075261D01*
Y0076597D02*
Y00771D01*
Y0077836D02*
Y0079055D01*
Y0079355D02*
Y008032D01*
X0117152Y0070912D02*
Y0071456D01*
Y0071517D02*
Y0072152D01*
Y007267D02*
Y0073147D01*
Y0073361D02*
Y0074036D01*
Y0074397D02*
Y0075261D01*
Y0076597D02*
Y00771D01*
Y0077836D02*
Y0079055D01*
Y0079355D02*
Y0080315D01*
X0117157Y0070912D02*
Y0071456D01*
Y0071512D02*
Y0072147D01*
Y0072665D02*
Y0073147D01*
Y0073366D02*
Y0074036D01*
Y0074397D02*
Y0075261D01*
Y0076597D02*
Y00771D01*
Y0077836D02*
Y0079055D01*
Y0079355D02*
Y008031D01*
X0117162Y0070912D02*
Y0071456D01*
Y0071507D02*
Y0072147D01*
Y0072665D02*
Y0073147D01*
Y0073371D02*
Y0074036D01*
Y0074397D02*
Y0075261D01*
Y0076597D02*
Y00771D01*
Y0077831D02*
Y007905D01*
Y007935D02*
Y0080305D01*
X0117167Y0070912D02*
Y0071456D01*
Y0071501D02*
Y0072142D01*
Y0072665D02*
Y0073142D01*
Y0073376D02*
Y0074031D01*
Y0074397D02*
Y0075261D01*
Y0076592D02*
Y0077095D01*
Y0077831D02*
Y007905D01*
Y007935D02*
Y00803D01*
X0117172Y0070917D02*
Y0071461D01*
Y0071501D02*
Y0072136D01*
Y0072665D02*
Y0073142D01*
Y0073381D02*
Y0074031D01*
Y0074397D02*
Y0075261D01*
Y0076592D02*
Y0077095D01*
Y0077831D02*
Y007905D01*
Y007935D02*
Y0080295D01*
X0117177Y0070917D02*
Y0071461D01*
Y0071496D02*
Y0072131D01*
Y007266D02*
Y0073142D01*
Y0073386D02*
Y0074031D01*
Y0074397D02*
Y0075261D01*
Y0076592D02*
Y0077095D01*
Y0077831D02*
Y007905D01*
Y0079345D02*
Y008029D01*
X0117182Y0070917D02*
Y0071461D01*
Y0071491D02*
Y0072126D01*
Y007266D02*
Y0073137D01*
Y0073391D02*
Y0074026D01*
Y0074397D02*
Y0075261D01*
Y0076587D02*
Y0077089D01*
Y0077826D02*
Y0079045D01*
Y0079345D02*
Y0080285D01*
X0117187Y0070917D02*
Y0071461D01*
Y0071491D02*
Y0072121D01*
Y007266D02*
Y0073137D01*
Y0073396D02*
Y0074026D01*
Y0074397D02*
Y0075261D01*
Y0076587D02*
Y0077089D01*
Y0077826D02*
Y0079045D01*
Y0079345D02*
Y008029D01*
X0117192Y0070917D02*
Y0071466D01*
Y0071486D02*
Y0072121D01*
Y007266D02*
Y0073137D01*
Y0073406D02*
Y0074026D01*
Y0074397D02*
Y0075261D01*
Y0076587D02*
Y0077089D01*
Y0077826D02*
Y0079045D01*
Y0079345D02*
Y008029D01*
X0117197Y0070922D02*
Y0071466D01*
Y0071481D02*
Y0072116D01*
Y0072655D02*
Y0073137D01*
Y0073412D02*
Y0074026D01*
Y0074397D02*
Y0075154D01*
Y0075164D02*
Y0075261D01*
Y0076587D02*
Y0077089D01*
Y0077826D02*
Y0079045D01*
Y007934D02*
Y0080295D01*
X0117202Y0070922D02*
Y0071466D01*
Y0071476D02*
Y0072111D01*
Y0072655D02*
Y0073132D01*
Y0073417D02*
Y0074021D01*
Y0074397D02*
Y0075154D01*
Y0075164D02*
Y0075261D01*
Y0076581D02*
Y0077084D01*
Y0077821D02*
Y007904D01*
Y007934D02*
Y0080295D01*
X0117208Y0070922D02*
Y0071466D01*
Y0071476D02*
Y0072106D01*
Y0072655D02*
Y0073132D01*
Y0073422D02*
Y0074021D01*
Y0074397D02*
Y0075174D01*
Y0075184D02*
Y0075261D01*
Y0076581D02*
Y0077084D01*
Y0077821D02*
Y007904D01*
Y007934D02*
Y00803D01*
X0117213Y0070922D02*
Y0072101D01*
Y007265D02*
Y0073132D01*
Y0073427D02*
Y0074021D01*
Y0074397D02*
Y0075174D01*
Y0075184D02*
Y0075261D01*
Y0076581D02*
Y0077084D01*
Y0077821D02*
Y007904D01*
Y0079335D02*
Y00803D01*
X0117218Y0070922D02*
Y0072096D01*
Y007265D02*
Y0073127D01*
Y0073432D02*
Y0074021D01*
Y0074397D02*
Y0075261D01*
Y0076581D02*
Y0077084D01*
Y0077816D02*
Y0079035D01*
Y0079335D02*
Y0080305D01*
X0117223Y0070927D02*
Y0072096D01*
Y007265D02*
Y0073127D01*
Y0073437D02*
Y0074016D01*
Y0074397D02*
Y0075271D01*
Y0076576D02*
Y0077079D01*
Y0077816D02*
Y0079035D01*
Y0079335D02*
Y0080305D01*
X0117228Y0070927D02*
Y0072091D01*
Y007265D02*
Y0073127D01*
Y0073442D02*
Y0074016D01*
Y0074402D02*
Y0075139D01*
Y0075144D02*
Y0075311D01*
Y0076576D02*
Y0077079D01*
Y0077816D02*
Y0079035D01*
Y0079335D02*
Y008031D01*
X0117233Y0070927D02*
Y0072086D01*
Y0072644D02*
Y0073127D01*
Y0073447D02*
Y0074016D01*
Y0074402D02*
Y0075139D01*
Y0075144D02*
Y0075352D01*
Y0076576D02*
Y0077079D01*
Y0077816D02*
Y0079035D01*
Y007933D02*
Y008031D01*
X0117238Y0070927D02*
Y0072081D01*
Y0072644D02*
Y0073122D01*
Y0073452D02*
Y0074016D01*
Y0074402D02*
Y0075398D01*
Y0076571D02*
Y0077074D01*
Y0077811D02*
Y007903D01*
Y007933D02*
Y0080315D01*
X0117243Y0070927D02*
Y0072076D01*
Y0072644D02*
Y0073122D01*
Y0073457D02*
Y0074011D01*
Y0074402D02*
Y0075438D01*
Y0076571D02*
Y0077074D01*
Y0077811D02*
Y007903D01*
Y007933D02*
Y0080315D01*
X0117248Y0070933D02*
Y007207D01*
Y0072644D02*
Y0073122D01*
Y0073467D02*
Y0074011D01*
Y0074402D02*
Y0075479D01*
Y0076571D02*
Y0077074D01*
Y0077811D02*
Y007903D01*
Y0079325D02*
Y008032D01*
X0117253Y0070933D02*
Y007207D01*
Y0072639D02*
Y0073122D01*
Y0073473D02*
Y0074011D01*
Y0074402D02*
Y007552D01*
Y0076571D02*
Y0077074D01*
Y0077811D02*
Y007903D01*
Y0079325D02*
Y008032D01*
X0117258Y0070933D02*
Y0072065D01*
Y0072639D02*
Y0073117D01*
Y0073478D02*
Y0074011D01*
Y0074402D02*
Y0075083D01*
Y0075088D02*
Y0075565D01*
Y0076566D02*
Y0077069D01*
Y0077806D02*
Y0079025D01*
Y0079325D02*
Y0080325D01*
X0117263Y0070933D02*
Y007206D01*
Y0072639D02*
Y0073117D01*
Y0073483D02*
Y0074006D01*
Y0074402D02*
Y0075083D01*
Y0075093D02*
Y0075606D01*
Y0076566D02*
Y0077069D01*
Y0077806D02*
Y0079025D01*
Y0079325D02*
Y0080325D01*
X0117268Y0070938D02*
Y0072055D01*
Y0072634D02*
Y0073117D01*
Y0073488D02*
Y0074006D01*
Y0074402D02*
Y0075647D01*
Y0076566D02*
Y0077069D01*
Y0077806D02*
Y0079025D01*
Y007932D02*
Y0080331D01*
X0117274Y0070938D02*
Y007205D01*
Y0072634D02*
Y0073112D01*
Y0073493D02*
Y0074006D01*
Y0074402D02*
Y0075687D01*
Y0076561D02*
Y0077064D01*
Y0077806D02*
Y0079025D01*
Y007932D02*
Y0080331D01*
X0117279Y0070938D02*
Y0072045D01*
Y0072634D02*
Y0073112D01*
Y0073493D02*
Y0074001D01*
Y0074402D02*
Y0075728D01*
Y0076561D02*
Y0077064D01*
Y0077801D02*
Y007902D01*
Y007932D02*
Y0079817D01*
Y0079823D02*
Y0080336D01*
X0117284Y0070938D02*
Y0072045D01*
Y0072634D02*
Y0073112D01*
Y0073488D02*
Y0074001D01*
Y0074402D02*
Y0075769D01*
Y0076561D02*
Y0077064D01*
Y0077801D02*
Y0078349D01*
Y0079315D02*
Y0079817D01*
Y0079828D02*
Y0080336D01*
X0117289Y0070938D02*
Y007204D01*
Y0072629D02*
Y0073112D01*
Y0073488D02*
Y0074001D01*
Y0074402D02*
Y0075814D01*
Y0076561D02*
Y0077064D01*
Y0077801D02*
Y0078349D01*
Y0079315D02*
Y0079812D01*
Y0079828D02*
Y0080341D01*
X0117294Y0070943D02*
Y0072035D01*
Y0072629D02*
Y0073107D01*
Y0073488D02*
Y0074001D01*
Y0074402D02*
Y0075855D01*
Y0076556D02*
Y0077059D01*
Y0077796D02*
Y0078349D01*
Y0079315D02*
Y0079812D01*
Y0079833D02*
Y0080341D01*
X0117299Y0070943D02*
Y007203D01*
Y0072629D02*
Y0073107D01*
Y0073488D02*
Y0073996D01*
Y0074402D02*
Y0075896D01*
Y0076556D02*
Y0077059D01*
Y0077796D02*
Y0078344D01*
Y0079309D02*
Y0079812D01*
Y0079833D02*
Y0080346D01*
X0117304Y0070943D02*
Y0072025D01*
Y0072629D02*
Y0073107D01*
Y0073483D02*
Y0073996D01*
Y0074402D02*
Y0075322D01*
Y0075327D02*
Y0075936D01*
Y0076556D02*
Y0077059D01*
Y0077796D02*
Y0078344D01*
Y0079309D02*
Y0079812D01*
Y0079838D02*
Y0080346D01*
X0117309Y0070943D02*
Y007202D01*
Y0072624D02*
Y0073102D01*
Y0073483D02*
Y0073996D01*
Y0074402D02*
Y0075977D01*
Y0076551D02*
Y0077059D01*
Y0077796D02*
Y0078344D01*
Y0079309D02*
Y0079807D01*
Y0079838D02*
Y0080351D01*
X0117314Y0070943D02*
Y007202D01*
Y0072624D02*
Y0073102D01*
Y0073483D02*
Y0073996D01*
Y0074402D02*
Y0075388D01*
Y0075398D02*
Y0075418D01*
Y0075428D02*
Y0076018D01*
Y0076551D02*
Y0077054D01*
Y0077791D02*
Y0078344D01*
Y0079309D02*
Y0079807D01*
Y0079843D02*
Y0080356D01*
X0117319Y0070948D02*
Y0072015D01*
Y0072624D02*
Y0073102D01*
Y0073478D02*
Y0073991D01*
Y0074402D02*
Y0075215D01*
Y0075225D02*
Y0076063D01*
Y0076551D02*
Y0077054D01*
Y0077791D02*
Y0078339D01*
Y0079304D02*
Y0079807D01*
Y0079843D02*
Y0080356D01*
X0117324Y0070948D02*
Y0072009D01*
Y0072624D02*
Y0073102D01*
Y0073478D02*
Y0073991D01*
Y0074402D02*
Y0075215D01*
Y0075225D02*
Y0076104D01*
Y0076551D02*
Y0077054D01*
Y0077791D02*
Y0078339D01*
Y0079304D02*
Y0079802D01*
Y0079848D02*
Y0080361D01*
X0117329Y0070948D02*
Y0072004D01*
Y0072619D02*
Y0073097D01*
Y0073478D02*
Y0073991D01*
Y0074402D02*
Y0076145D01*
Y0076546D02*
Y0077049D01*
Y0077791D02*
Y0078339D01*
Y0079304D02*
Y0079802D01*
Y0079848D02*
Y0080361D01*
X0117335Y0070948D02*
Y0071999D01*
Y0072619D02*
Y0073097D01*
Y0073478D02*
Y0073991D01*
Y0074402D02*
Y0076185D01*
Y0076546D02*
Y0077049D01*
Y0077785D02*
Y0078339D01*
Y0079299D02*
Y0079802D01*
Y0079853D02*
Y0080366D01*
X011734Y0070948D02*
Y0071994D01*
Y0072619D02*
Y0073097D01*
Y0073473D02*
Y0073986D01*
Y0074402D02*
Y0075256D01*
Y0075261D02*
Y0076226D01*
Y0076546D02*
Y0077049D01*
Y0077785D02*
Y0078334D01*
Y0079299D02*
Y0079802D01*
Y0079853D02*
Y0080366D01*
X0117345Y0070953D02*
Y0071994D01*
Y0072614D02*
Y0073092D01*
Y0073473D02*
Y0073986D01*
Y0074402D02*
Y0075144D01*
Y0075154D02*
Y0075256D01*
Y0075266D02*
Y0076267D01*
Y0076541D02*
Y0077049D01*
Y0077785D02*
Y0078334D01*
Y0079299D02*
Y0079797D01*
Y0079858D02*
Y0080371D01*
X011735Y0070953D02*
Y0071989D01*
Y0072614D02*
Y0073092D01*
Y0073473D02*
Y0073986D01*
Y0074402D02*
Y0075139D01*
Y0075154D02*
Y0075174D01*
Y0075184D02*
Y0075479D01*
Y0075489D02*
Y0076312D01*
Y0076541D02*
Y0077044D01*
Y0077785D02*
Y0078334D01*
Y0079299D02*
Y0079797D01*
Y0079858D02*
Y0080371D01*
X0117355Y0070953D02*
Y0071984D01*
Y0072614D02*
Y0073092D01*
Y0073467D02*
Y0073981D01*
Y0074407D02*
Y0075134D01*
Y0075154D02*
Y0075174D01*
Y0075184D02*
Y0075479D01*
Y0075489D02*
Y0075713D01*
Y0075723D02*
Y0076348D01*
Y0076541D02*
Y0077044D01*
Y007778D02*
Y0078329D01*
Y0079294D02*
Y0079797D01*
Y0079863D02*
Y0080376D01*
X011736Y0070953D02*
Y0071979D01*
Y0072614D02*
Y0073092D01*
Y0073467D02*
Y0073981D01*
Y0074407D02*
Y0076353D01*
Y0076541D02*
Y0077044D01*
Y007778D02*
Y0078329D01*
Y0079294D02*
Y0079792D01*
Y0079863D02*
Y0080376D01*
X0117365Y0070953D02*
Y0071974D01*
Y0072609D02*
Y0073086D01*
Y0073467D02*
Y0073981D01*
Y0074407D02*
Y0076358D01*
Y0076536D02*
Y0077039D01*
Y007778D02*
Y0078329D01*
Y0079294D02*
Y0079792D01*
Y0079868D02*
Y0080381D01*
X011737Y0070958D02*
Y0071969D01*
Y0072609D02*
Y0073086D01*
Y0073467D02*
Y0073981D01*
Y0074407D02*
Y0076358D01*
Y0076536D02*
Y0077039D01*
Y007778D02*
Y0078329D01*
Y0079289D02*
Y0079792D01*
Y0079868D02*
Y0080381D01*
X0117375Y0070958D02*
Y0071969D01*
Y0072609D02*
Y0073086D01*
Y0073462D02*
Y0073975D01*
Y0074407D02*
Y0075088D01*
Y0075093D02*
Y0075906D01*
Y0075916D02*
Y0076358D01*
Y0076536D02*
Y0077039D01*
Y0077775D02*
Y0078324D01*
Y0079289D02*
Y0079792D01*
Y0079873D02*
Y0080386D01*
X011738Y0070958D02*
Y0071964D01*
Y0072609D02*
Y0073081D01*
Y0073462D02*
Y0073975D01*
Y0074407D02*
Y0076358D01*
Y0076536D02*
Y0077039D01*
Y0077775D02*
Y0078324D01*
Y0079289D02*
Y0079787D01*
Y0079873D02*
Y0080386D01*
X0117385Y0070958D02*
Y0071959D01*
Y0072604D02*
Y0073081D01*
Y0073462D02*
Y0073975D01*
Y0074407D02*
Y0075967D01*
Y0075977D02*
Y0075997D01*
Y0076007D02*
Y0076358D01*
Y0076531D02*
Y0077034D01*
Y0077775D02*
Y0078324D01*
Y0079289D02*
Y0079787D01*
Y0079878D02*
Y0080391D01*
X011739Y0070958D02*
Y0071954D01*
Y0072604D02*
Y0073081D01*
Y0073462D02*
Y0073975D01*
Y0074407D02*
Y0075068D01*
Y0075073D02*
Y0075174D01*
Y0075184D02*
Y0075936D01*
Y0075946D02*
Y0076358D01*
Y0076531D02*
Y0077034D01*
Y007777D02*
Y0078319D01*
Y0079284D02*
Y0079787D01*
Y0079878D02*
Y0080391D01*
X0117395Y0070963D02*
Y0071949D01*
Y0072604D02*
Y0073081D01*
Y0073457D02*
Y007397D01*
Y0074407D02*
Y0075063D01*
Y0075068D02*
Y0075174D01*
Y0075184D02*
Y0075936D01*
Y0075946D02*
Y0076358D01*
Y0076531D02*
Y0077034D01*
Y007777D02*
Y0078319D01*
Y0079284D02*
Y0079782D01*
Y0079883D02*
Y0080397D01*
X0117401Y0070963D02*
Y0071943D01*
Y0072599D02*
Y0073076D01*
Y0073457D02*
Y007397D01*
Y0074407D02*
Y0075134D01*
Y0075144D02*
Y0076358D01*
Y0076526D02*
Y0077034D01*
Y007777D02*
Y0078319D01*
Y0079284D02*
Y0079782D01*
Y0079883D02*
Y0080397D01*
X0117406Y0070963D02*
Y0071943D01*
Y0072599D02*
Y0073076D01*
Y0073457D02*
Y007397D01*
Y0074407D02*
Y0075134D01*
Y0075144D02*
Y0076358D01*
Y0076526D02*
Y0077029D01*
Y007777D02*
Y0078319D01*
Y0079279D02*
Y0079782D01*
Y0079889D02*
Y0080402D01*
X0117411Y0070963D02*
Y0071938D01*
Y0072599D02*
Y0073076D01*
Y0073452D02*
Y007397D01*
Y0074407D02*
Y0076358D01*
Y0076526D02*
Y0077029D01*
Y0077765D02*
Y0078314D01*
Y0079279D02*
Y0079782D01*
Y0079889D02*
Y0080402D01*
X0117416Y0070963D02*
Y0071933D01*
Y0072599D02*
Y0073076D01*
Y0073452D02*
Y0073965D01*
Y0074407D02*
Y0076358D01*
Y0076526D02*
Y0077029D01*
Y0077765D02*
Y0078314D01*
Y0079279D02*
Y0079777D01*
Y0079894D02*
Y0080407D01*
X0117421Y0070968D02*
Y0071928D01*
Y0072594D02*
Y0073071D01*
Y0073452D02*
Y0073965D01*
Y0074407D02*
Y0075164D01*
Y0075169D02*
Y0076358D01*
Y0076521D02*
Y0077023D01*
Y0077765D02*
Y0078314D01*
Y0079279D02*
Y0079777D01*
Y0079894D02*
Y0080407D01*
X0117426Y0070968D02*
Y0071923D01*
Y0072594D02*
Y0073071D01*
Y0073452D02*
Y0073965D01*
Y0074407D02*
Y0076358D01*
Y0076521D02*
Y0077023D01*
Y0077765D02*
Y0078309D01*
Y0079274D02*
Y0079777D01*
Y0079899D02*
Y0080412D01*
X0117431Y0070968D02*
Y0071918D01*
Y0072594D02*
Y0073071D01*
Y0073447D02*
Y0073965D01*
Y0074407D02*
Y0076038D01*
Y0076058D02*
Y0076084D01*
Y0076089D02*
Y0076358D01*
Y0076521D02*
Y0077023D01*
Y007776D02*
Y0078309D01*
Y0079274D02*
Y0079772D01*
Y0079899D02*
Y0080412D01*
X0117436Y0070968D02*
Y0071918D01*
Y0072594D02*
Y0073066D01*
Y0073447D02*
Y007396D01*
Y0074407D02*
Y0076038D01*
Y0076058D02*
Y0076358D01*
Y0076515D02*
Y0077023D01*
Y007776D02*
Y0078309D01*
Y0079274D02*
Y0079772D01*
Y0079904D02*
Y0080417D01*
X0117441Y0070973D02*
Y0071913D01*
Y0072589D02*
Y0073066D01*
Y0073447D02*
Y007396D01*
Y0074407D02*
Y0075418D01*
Y0075428D02*
Y007555D01*
Y0075571D02*
Y0076358D01*
Y0076515D02*
Y0077018D01*
Y007776D02*
Y0078309D01*
Y0079269D02*
Y0079772D01*
Y0079904D02*
Y0080417D01*
X0117446Y0070973D02*
Y0071908D01*
Y0072589D02*
Y0073066D01*
Y0073442D02*
Y007396D01*
Y0074407D02*
Y0075418D01*
Y0075428D02*
Y007555D01*
Y0075571D02*
Y0076358D01*
Y0076515D02*
Y0077018D01*
Y007776D02*
Y0078304D01*
Y0079269D02*
Y0079772D01*
Y0079909D02*
Y0080422D01*
X0117451Y0070973D02*
Y0071903D01*
Y0072589D02*
Y0073066D01*
Y0073442D02*
Y0073955D01*
Y0074407D02*
Y0075469D01*
Y0075474D02*
Y0075713D01*
Y0075723D02*
Y0076358D01*
Y0076515D02*
Y0077018D01*
Y0077755D02*
Y0078304D01*
Y0079269D02*
Y0079767D01*
Y0079909D02*
Y0080422D01*
X0117456Y0070973D02*
Y0071898D01*
Y0072584D02*
Y0073061D01*
Y0073442D02*
Y0073955D01*
Y0074407D02*
Y0075469D01*
Y0075474D02*
Y0075713D01*
Y0075723D02*
Y0076358D01*
Y007651D02*
Y0077013D01*
Y0077755D02*
Y0078304D01*
Y0079269D02*
Y0079767D01*
Y0079914D02*
Y0080427D01*
X0117462Y0070973D02*
Y0071893D01*
Y0072584D02*
Y0073061D01*
Y0073442D02*
Y0073955D01*
Y0074407D02*
Y0076358D01*
Y007651D02*
Y0077013D01*
Y0077755D02*
Y0078299D01*
Y0079264D02*
Y0079767D01*
Y0079914D02*
Y0080427D01*
X0117467Y0070978D02*
Y0071893D01*
Y0072584D02*
Y0073061D01*
Y0073437D02*
Y0073955D01*
Y0074407D02*
Y0076358D01*
Y007651D02*
Y0077013D01*
Y007775D02*
Y0078299D01*
Y0079264D02*
Y0079762D01*
Y0079919D02*
Y0080432D01*
X0117472Y0070978D02*
Y0071888D01*
Y0072584D02*
Y0073056D01*
Y0073437D02*
Y007395D01*
Y0074407D02*
Y0075652D01*
Y0075662D02*
Y0075713D01*
Y0075723D02*
Y0076358D01*
Y0076505D02*
Y0077013D01*
Y007775D02*
Y0078299D01*
Y0079264D02*
Y0079762D01*
Y0079919D02*
Y0080432D01*
X0117477Y0070978D02*
Y0071882D01*
Y0072578D02*
Y0073056D01*
Y0073437D02*
Y007395D01*
Y0074407D02*
Y0075652D01*
Y0075662D02*
Y0075713D01*
Y0075723D02*
Y0076358D01*
Y0076505D02*
Y0077008D01*
Y007775D02*
Y0078959D01*
Y0079259D02*
Y0079762D01*
Y0079924D02*
Y0080437D01*
X0117482Y0070978D02*
Y0071877D01*
Y0072578D02*
Y0073056D01*
Y0073437D02*
Y007395D01*
Y0074412D02*
Y007554D01*
Y0075545D02*
Y0076358D01*
Y0076505D02*
Y0077008D01*
Y007775D02*
Y0078959D01*
Y0079259D02*
Y0079762D01*
Y0079924D02*
Y0080437D01*
X0117487Y0070978D02*
Y0071872D01*
Y0072578D02*
Y0073056D01*
Y0073432D02*
Y007395D01*
Y0074412D02*
Y0076358D01*
Y0076505D02*
Y0077008D01*
Y0077745D02*
Y0078959D01*
Y0079259D02*
Y0079756D01*
Y0079929D02*
Y0080442D01*
X0117492Y0070983D02*
Y0071867D01*
Y0072578D02*
Y0073051D01*
Y0073432D02*
Y0073945D01*
Y0074412D02*
Y0076358D01*
Y00765D02*
Y0077008D01*
Y0077745D02*
Y0078959D01*
Y0079259D02*
Y0079756D01*
Y0079929D02*
Y0080442D01*
X0117497Y0070983D02*
Y0071867D01*
Y0072573D02*
Y0073051D01*
Y0073432D02*
Y0073945D01*
Y0074412D02*
Y0076358D01*
Y00765D02*
Y0077694D01*
Y0077745D02*
Y0078959D01*
Y0079254D02*
Y0079756D01*
Y0079934D02*
Y0080447D01*
X0117502Y0070983D02*
Y0071862D01*
Y0072573D02*
Y0073051D01*
Y0073427D02*
Y0073945D01*
Y0074412D02*
Y0076358D01*
Y00765D02*
Y0077689D01*
Y0077745D02*
Y0078954D01*
Y0079254D02*
Y0079751D01*
Y0079934D02*
Y0080447D01*
X0117507Y0070983D02*
Y0071857D01*
Y0072573D02*
Y0073046D01*
Y0073427D02*
Y0073945D01*
Y0074412D02*
Y0076358D01*
Y00765D02*
Y0077684D01*
Y007774D02*
Y0078954D01*
Y0079254D02*
Y0079751D01*
Y0079939D02*
Y0080452D01*
X0117512Y0070983D02*
Y0071852D01*
Y0072568D02*
Y0073046D01*
Y0073427D02*
Y007394D01*
Y0074412D02*
Y0076134D01*
Y007614D02*
Y0076353D01*
Y0076495D02*
Y0077679D01*
Y007774D02*
Y0078954D01*
Y0079248D02*
Y0079751D01*
Y0079939D02*
Y0080452D01*
X0117517Y0070988D02*
Y0071847D01*
Y0072568D02*
Y0073046D01*
Y0073427D02*
Y007394D01*
Y0074412D02*
Y0076129D01*
Y007614D02*
Y0076353D01*
Y0076495D02*
Y0077679D01*
Y007774D02*
Y0078954D01*
Y0079248D02*
Y0079751D01*
Y0079944D02*
Y0080458D01*
X0117522Y0070988D02*
Y0071842D01*
Y0072568D02*
Y0073046D01*
Y0073422D02*
Y007394D01*
Y0074412D02*
Y0075931D01*
Y0075936D02*
Y0076353D01*
Y0076495D02*
Y0077674D01*
Y007774D02*
Y0078949D01*
Y0079248D02*
Y0079746D01*
Y0079944D02*
Y0080458D01*
X0117528Y0070988D02*
Y0071842D01*
Y0072568D02*
Y0073041D01*
Y0073422D02*
Y0073935D01*
Y0074412D02*
Y0075926D01*
Y0075936D02*
Y0076353D01*
Y007649D02*
Y0077669D01*
Y0077735D02*
Y0078949D01*
Y0079248D02*
Y0079746D01*
Y007995D02*
Y0080463D01*
X0117533Y0070988D02*
Y0071837D01*
Y0072563D02*
Y0073041D01*
Y0073422D02*
Y0073935D01*
Y0074412D02*
Y0076353D01*
Y007649D02*
Y0077664D01*
Y0077735D02*
Y0078949D01*
Y0079243D02*
Y0079746D01*
Y007995D02*
Y0080463D01*
X0117538Y0070988D02*
Y0071832D01*
Y0072563D02*
Y0073041D01*
Y0073417D02*
Y0073935D01*
Y0074412D02*
Y0076353D01*
Y007649D02*
Y0077658D01*
Y0077735D02*
Y0078949D01*
Y0079243D02*
Y0079741D01*
Y0079955D02*
Y0080468D01*
X0117543Y0070993D02*
Y0071827D01*
Y0072563D02*
Y0073041D01*
Y0073417D02*
Y0073935D01*
Y0074412D02*
Y0076353D01*
Y007649D02*
Y0077653D01*
Y007773D02*
Y0078944D01*
Y0079243D02*
Y0079741D01*
Y0079955D02*
Y0080468D01*
X0117548Y0070993D02*
Y0071822D01*
Y0072563D02*
Y0073036D01*
Y0073417D02*
Y007393D01*
Y0074412D02*
Y0076353D01*
Y0076485D02*
Y0077653D01*
Y007773D02*
Y0078944D01*
Y0079238D02*
Y0079741D01*
Y007996D02*
Y0080473D01*
X0117553Y0070993D02*
Y0071816D01*
Y0072558D02*
Y0073036D01*
Y0073417D02*
Y007393D01*
Y0074412D02*
Y0076353D01*
Y0076485D02*
Y0077648D01*
Y007773D02*
Y0078944D01*
Y0079238D02*
Y0079741D01*
Y007996D02*
Y0080473D01*
X0117558Y0070993D02*
Y0071816D01*
Y0072558D02*
Y0073036D01*
Y0073412D02*
Y007393D01*
Y0074412D02*
Y0076353D01*
Y0076485D02*
Y0077643D01*
Y007773D02*
Y0078939D01*
Y0079238D02*
Y0079736D01*
Y0079965D02*
Y0080478D01*
X0117563Y0070993D02*
Y0071811D01*
Y0072558D02*
Y0073031D01*
Y0073412D02*
Y007393D01*
Y0074412D02*
Y0076353D01*
Y007648D02*
Y0077638D01*
Y0077724D02*
Y0078939D01*
Y0079238D02*
Y0079736D01*
Y0079965D02*
Y0080483D01*
X0117568Y0070999D02*
Y0071806D01*
Y0072553D02*
Y0073031D01*
Y0073412D02*
Y0073925D01*
Y0074412D02*
Y0076353D01*
Y007648D02*
Y0077633D01*
Y0077724D02*
Y0078939D01*
Y0079233D02*
Y0079736D01*
Y007997D02*
Y0080483D01*
X0117573Y0070999D02*
Y0071801D01*
Y0072553D02*
Y0073031D01*
Y0073412D02*
Y0073925D01*
Y0074412D02*
Y0076353D01*
Y007648D02*
Y0077633D01*
Y0077724D02*
Y0078939D01*
Y0079233D02*
Y0079731D01*
Y007997D02*
Y0080488D01*
X0117578Y0070999D02*
Y0071796D01*
Y0072553D02*
Y0073031D01*
Y0073406D02*
Y0073925D01*
Y0074412D02*
Y0076353D01*
Y007648D02*
Y0077628D01*
Y0077724D02*
Y0078934D01*
Y0079233D02*
Y0079731D01*
Y0079975D02*
Y0080488D01*
X0117583Y0070999D02*
Y0071791D01*
Y0072553D02*
Y0073025D01*
Y0073406D02*
Y0073925D01*
Y0074412D02*
Y0076353D01*
Y0076475D02*
Y0077623D01*
Y0077719D02*
Y0078934D01*
Y0079228D02*
Y0079731D01*
Y0079975D02*
Y0080493D01*
X0117589Y0070999D02*
Y0071791D01*
Y0072548D02*
Y0073025D01*
Y0073406D02*
Y007392D01*
Y0074412D02*
Y0076353D01*
Y0076475D02*
Y0077618D01*
Y0077719D02*
Y0078934D01*
Y0079228D02*
Y0079731D01*
Y007998D02*
Y0080493D01*
X0117594Y0071004D02*
Y0071786D01*
Y0072548D02*
Y0073025D01*
Y0073401D02*
Y007392D01*
Y0074412D02*
Y0076353D01*
Y0076475D02*
Y0077613D01*
Y0077719D02*
Y0078934D01*
Y0079228D02*
Y0079726D01*
Y007998D02*
Y0080498D01*
X0117599Y0071004D02*
Y0071781D01*
Y0072548D02*
Y007302D01*
Y0073401D02*
Y007392D01*
Y0074412D02*
Y0076353D01*
Y007647D02*
Y0077608D01*
Y0077719D02*
Y0078928D01*
Y0079228D02*
Y0079726D01*
Y0079985D02*
Y0080498D01*
X0117604Y0071004D02*
Y0071776D01*
Y0072548D02*
Y007302D01*
Y0073401D02*
Y007392D01*
Y0074412D02*
Y0076353D01*
Y007647D02*
Y0077608D01*
Y0077714D02*
Y0078928D01*
Y0079223D02*
Y0079726D01*
Y0079985D02*
Y0080503D01*
X0117609Y0071004D02*
Y0071771D01*
Y0072543D02*
Y007302D01*
Y0073401D02*
Y0073914D01*
Y0074417D02*
Y0076353D01*
Y007647D02*
Y0077603D01*
Y0077714D02*
Y0078928D01*
Y0079223D02*
Y0079721D01*
Y007999D02*
Y0080503D01*
X0117614Y0071009D02*
Y0071771D01*
Y0072543D02*
Y007302D01*
Y0073396D02*
Y0073914D01*
Y0074417D02*
Y0076353D01*
Y007647D02*
Y0077597D01*
Y0077714D02*
Y0078923D01*
Y0079223D02*
Y0079721D01*
Y007999D02*
Y0080508D01*
X0117619Y0071009D02*
Y0071766D01*
Y0072543D02*
Y0073015D01*
Y0073396D02*
Y0073914D01*
Y0074417D02*
Y0076353D01*
Y0076465D02*
Y0077592D01*
Y0077709D02*
Y0078923D01*
Y0079218D02*
Y0079721D01*
Y0079995D02*
Y0080508D01*
X0117624Y0071009D02*
Y0071761D01*
Y0072543D02*
Y0073015D01*
Y0073396D02*
Y0073909D01*
Y0074417D02*
Y0076353D01*
Y0076465D02*
Y0077587D01*
Y0077709D02*
Y0078923D01*
Y0079218D02*
Y0079721D01*
Y0079995D02*
Y0080513D01*
X0117629Y0071009D02*
Y0071755D01*
Y0072538D02*
Y0073015D01*
Y0073396D02*
Y0073909D01*
Y0074417D02*
Y0076155D01*
Y007616D02*
Y0076353D01*
Y0076465D02*
Y0077587D01*
Y0077709D02*
Y0078923D01*
Y0079218D02*
Y0079716D01*
Y008D02*
Y0080513D01*
X0117634Y0071009D02*
Y007175D01*
Y0072538D02*
Y007301D01*
Y0073391D02*
Y0073909D01*
Y0074417D02*
Y0076353D01*
Y0076465D02*
Y0077582D01*
Y0077709D02*
Y0078918D01*
Y0079218D02*
Y0079716D01*
Y008D02*
Y0080518D01*
X0117639Y0071014D02*
Y0071745D01*
Y0072538D02*
Y007301D01*
Y0073391D02*
Y0073909D01*
Y0074417D02*
Y0076353D01*
Y007646D02*
Y0077577D01*
Y0077704D02*
Y0078918D01*
Y0079213D02*
Y0079716D01*
Y0080005D02*
Y0080518D01*
X0117644Y0071014D02*
Y0071745D01*
Y0072533D02*
Y007301D01*
Y0073391D02*
Y0073904D01*
Y0074417D02*
Y0076353D01*
Y007646D02*
Y0077572D01*
Y0077704D02*
Y0078918D01*
Y0079213D02*
Y0079711D01*
Y0080005D02*
Y0080524D01*
X0117649Y0071014D02*
Y007174D01*
Y0072533D02*
Y007301D01*
Y0073386D02*
Y0073904D01*
Y0074417D02*
Y0076353D01*
Y007646D02*
Y0077567D01*
Y0077704D02*
Y0078918D01*
Y0079213D02*
Y0079711D01*
Y008001D02*
Y0080524D01*
X0117655Y0071014D02*
Y0071735D01*
Y0072533D02*
Y0073005D01*
Y0073386D02*
Y0073904D01*
Y0074417D02*
Y0076353D01*
Y0076454D02*
Y0077567D01*
Y0077704D02*
Y0078913D01*
Y0079208D02*
Y0079711D01*
Y008001D02*
Y0080529D01*
X011766Y0071014D02*
Y007173D01*
Y0072533D02*
Y0073005D01*
Y0073386D02*
Y0073904D01*
Y0074417D02*
Y0076353D01*
Y0076454D02*
Y0077562D01*
Y0077699D02*
Y0078913D01*
Y0079208D02*
Y0079711D01*
Y0080016D02*
Y0080529D01*
X0117665Y0071019D02*
Y0071725D01*
Y0072528D02*
Y0073005D01*
Y0073386D02*
Y0073899D01*
Y0074417D02*
Y0076353D01*
Y0076454D02*
Y0077557D01*
Y0077699D02*
Y0078913D01*
Y0079208D02*
Y0079706D01*
Y0080016D02*
Y0080534D01*
X011767Y0071019D02*
Y007172D01*
Y0072528D02*
Y0073D01*
Y0073381D02*
Y0073899D01*
Y0074417D02*
Y0076353D01*
Y0076454D02*
Y0077552D01*
Y0077699D02*
Y0078913D01*
Y0079208D02*
Y0079706D01*
Y0080021D02*
Y0080534D01*
X0117675Y0071019D02*
Y007172D01*
Y0072528D02*
Y0073D01*
Y0073381D02*
Y0073899D01*
Y0074417D02*
Y0076353D01*
Y0076449D02*
Y0077547D01*
Y0077699D02*
Y0078908D01*
Y0079203D02*
Y0079706D01*
Y0080021D02*
Y0080539D01*
X011768Y0071019D02*
Y0071715D01*
Y0072528D02*
Y0073D01*
Y0073381D02*
Y0073899D01*
Y0074417D02*
Y0076353D01*
Y0076449D02*
Y0077542D01*
Y0077694D02*
Y0078908D01*
Y0079203D02*
Y0079701D01*
Y0080026D02*
Y0080539D01*
X0117685Y0071019D02*
Y007171D01*
Y0072523D02*
Y0073D01*
Y0073376D02*
Y0073894D01*
Y0074417D02*
Y0076353D01*
Y0076449D02*
Y0077542D01*
Y0077694D02*
Y0078908D01*
Y0079203D02*
Y0079701D01*
Y0080026D02*
Y0080544D01*
X011769Y0071024D02*
Y0071705D01*
Y0072523D02*
Y0072995D01*
Y0073376D02*
Y0073894D01*
Y0074417D02*
Y0076348D01*
Y0076444D02*
Y0077537D01*
Y0077694D02*
Y0078903D01*
Y0079198D02*
Y0079701D01*
Y0080031D02*
Y0080544D01*
X0117695Y0071024D02*
Y00717D01*
Y0072523D02*
Y0072995D01*
Y0073376D02*
Y0073894D01*
Y0074417D02*
Y0076348D01*
Y0076444D02*
Y0077531D01*
Y0077694D02*
Y0078903D01*
Y0079198D02*
Y0079701D01*
Y0080031D02*
Y0080549D01*
X01177Y0071024D02*
Y0071695D01*
Y0072517D02*
Y0072995D01*
Y0073376D02*
Y0073889D01*
Y0074417D02*
Y0076348D01*
Y0076444D02*
Y0077526D01*
Y0077689D02*
Y0078903D01*
Y0079198D02*
Y0079696D01*
Y0080036D02*
Y0080549D01*
X0117705Y0071024D02*
Y0071695D01*
Y0072517D02*
Y0072995D01*
Y0073371D02*
Y0073889D01*
Y0074417D02*
Y0076348D01*
Y0076444D02*
Y0077521D01*
Y0077689D02*
Y0078903D01*
Y0079198D02*
Y0079696D01*
Y0080036D02*
Y0080554D01*
X011771Y0071024D02*
Y0071689D01*
Y0072517D02*
Y007299D01*
Y0073371D02*
Y0073889D01*
Y0074417D02*
Y0076348D01*
Y0076439D02*
Y0077521D01*
Y0077689D02*
Y0078898D01*
Y0079193D02*
Y0079696D01*
Y0080041D02*
Y0080554D01*
X0117716Y0071029D02*
Y0071684D01*
Y0072517D02*
Y007299D01*
Y0073371D02*
Y0073889D01*
Y0074417D02*
Y0076348D01*
Y0076439D02*
Y0077516D01*
Y0077684D02*
Y0078898D01*
Y0079193D02*
Y007969D01*
Y0080041D02*
Y0080559D01*
X0117721Y0071029D02*
Y0071679D01*
Y0072512D02*
Y007299D01*
Y0073371D02*
Y0073884D01*
Y0074417D02*
Y0076348D01*
Y0076439D02*
Y0077511D01*
Y0077684D02*
Y0078898D01*
Y0079193D02*
Y007969D01*
Y0080046D02*
Y0080559D01*
X0117726Y0071029D02*
Y0071674D01*
Y0072512D02*
Y0072985D01*
Y0073366D02*
Y0073884D01*
Y0074417D02*
Y0076348D01*
Y0076434D02*
Y0077506D01*
Y0077684D02*
Y0078898D01*
Y0079188D02*
Y007969D01*
Y0080046D02*
Y0080564D01*
X0117731Y0071029D02*
Y0071669D01*
Y0072512D02*
Y0072985D01*
Y0073366D02*
Y0073884D01*
Y0074417D02*
Y0076348D01*
Y0076434D02*
Y0077501D01*
Y0077684D02*
Y0078893D01*
Y0079188D02*
Y007969D01*
Y0080051D02*
Y0080564D01*
X0117736Y0071029D02*
Y0071669D01*
Y0072512D02*
Y0072985D01*
Y0073366D02*
Y0073884D01*
Y0074422D02*
Y0076348D01*
Y0076434D02*
Y0077496D01*
Y0077679D02*
Y0078893D01*
Y0079188D02*
Y0079685D01*
Y0080051D02*
Y0080569D01*
X0117741Y0071034D02*
Y0071664D01*
Y0072507D02*
Y0072985D01*
Y0073361D02*
Y0073879D01*
Y0074422D02*
Y0076348D01*
Y0076434D02*
Y0077496D01*
Y0077679D02*
Y0078893D01*
Y0079188D02*
Y0079685D01*
Y0080056D02*
Y0080569D01*
X0117746Y0071034D02*
Y0071659D01*
Y0072507D02*
Y007298D01*
Y0073361D02*
Y0073879D01*
Y0074422D02*
Y0076348D01*
Y0076429D02*
Y0077491D01*
Y0077679D02*
Y0078893D01*
Y0079182D02*
Y0079685D01*
Y0080056D02*
Y0080574D01*
X0117751Y0071034D02*
Y0071654D01*
Y0072507D02*
Y007298D01*
Y0073361D02*
Y0073879D01*
Y0074422D02*
Y0076348D01*
Y0076429D02*
Y0077486D01*
Y0077679D02*
Y0078888D01*
Y0079182D02*
Y007968D01*
Y0080061D02*
Y0080574D01*
X0117756Y0071034D02*
Y0071649D01*
Y0072502D02*
Y007298D01*
Y0073361D02*
Y0073879D01*
Y0074422D02*
Y0076348D01*
Y0076429D02*
Y0077481D01*
Y0077674D02*
Y0078888D01*
Y0079182D02*
Y007968D01*
Y0080061D02*
Y0080579D01*
X0117761Y0071034D02*
Y0071644D01*
Y0072502D02*
Y0072975D01*
Y0073356D02*
Y0073874D01*
Y0074422D02*
Y0076348D01*
Y0076429D02*
Y0077476D01*
Y0077674D02*
Y0078888D01*
Y0079177D02*
Y007968D01*
Y0080066D02*
Y0080579D01*
X0117766Y0071039D02*
Y0071644D01*
Y0072502D02*
Y0072975D01*
Y0073356D02*
Y0073874D01*
Y0074422D02*
Y0076348D01*
Y0076424D02*
Y0077476D01*
Y0077674D02*
Y0078883D01*
Y0079177D02*
Y007968D01*
Y0080066D02*
Y0080585D01*
X0117771Y0071039D02*
Y0071639D01*
Y0072502D02*
Y0072975D01*
Y0073356D02*
Y0073874D01*
Y0074422D02*
Y0076348D01*
Y0076424D02*
Y007747D01*
Y0077674D02*
Y0078883D01*
Y0079177D02*
Y0079675D01*
Y0080071D02*
Y0080585D01*
X0117776Y0071039D02*
Y0071634D01*
Y0072497D02*
Y0072975D01*
Y0073351D02*
Y0073874D01*
Y0074422D02*
Y0076348D01*
Y0076424D02*
Y0077465D01*
Y0077669D02*
Y0078883D01*
Y0079177D02*
Y0079675D01*
Y0080071D02*
Y008059D01*
X0117782Y0071039D02*
Y0071628D01*
Y0072497D02*
Y007297D01*
Y0073351D02*
Y0073869D01*
Y0074422D02*
Y0076348D01*
Y0076419D02*
Y007746D01*
Y0077669D02*
Y0078883D01*
Y0079172D02*
Y0079675D01*
Y0080077D02*
Y008059D01*
X0117787Y0071044D02*
Y0071623D01*
Y0072497D02*
Y007297D01*
Y0073351D02*
Y0073869D01*
Y0074422D02*
Y0076348D01*
Y0076419D02*
Y0077455D01*
Y0077669D02*
Y0078878D01*
Y0079172D02*
Y007967D01*
Y0080077D02*
Y0080595D01*
X0117792Y0071044D02*
Y0071618D01*
Y0072497D02*
Y007297D01*
Y0073351D02*
Y0073869D01*
Y0074422D02*
Y0076348D01*
Y0076419D02*
Y0077455D01*
Y0077664D02*
Y0078878D01*
Y0079172D02*
Y007967D01*
Y0080082D02*
Y0080595D01*
X0117797Y0071044D02*
Y0071618D01*
Y0072492D02*
Y0072965D01*
Y0073346D02*
Y0073864D01*
Y0074422D02*
Y0076348D01*
Y0076419D02*
Y007745D01*
Y0077664D02*
Y0078878D01*
Y0079167D02*
Y007967D01*
Y0080082D02*
Y00806D01*
X0117802Y0071044D02*
Y0071613D01*
Y0072492D02*
Y0072965D01*
Y0073346D02*
Y0073864D01*
Y0074422D02*
Y0076348D01*
Y0076414D02*
Y0077445D01*
Y0077664D02*
Y0078878D01*
Y0079167D02*
Y007967D01*
Y0080087D02*
Y00806D01*
X0117807Y0071044D02*
Y0071608D01*
Y0072492D02*
Y0072965D01*
Y0073346D02*
Y0073864D01*
Y0074422D02*
Y0076348D01*
Y0076414D02*
Y007744D01*
Y0077664D02*
Y0078873D01*
Y0079167D02*
Y0079665D01*
Y0080087D02*
Y0080605D01*
X0117812Y0071049D02*
Y0071603D01*
Y0072487D02*
Y0072965D01*
Y0073346D02*
Y0073864D01*
Y0074422D02*
Y0076348D01*
Y0076414D02*
Y0077435D01*
Y0077658D02*
Y0078873D01*
Y0079167D02*
Y0079665D01*
Y0080092D02*
Y0080605D01*
X0117817Y0071049D02*
Y0071598D01*
Y0072487D02*
Y0072959D01*
Y007334D02*
Y0073859D01*
Y0074422D02*
Y0076348D01*
Y0076409D02*
Y007743D01*
Y0077658D02*
Y0078873D01*
Y0079162D02*
Y0079665D01*
Y0080092D02*
Y008061D01*
X0117822Y0071049D02*
Y0071593D01*
Y0072487D02*
Y0072959D01*
Y007334D02*
Y0073859D01*
Y0074422D02*
Y0076348D01*
Y0076409D02*
Y007743D01*
Y0077658D02*
Y0078873D01*
Y0079162D02*
Y007966D01*
Y0080097D02*
Y0080615D01*
X0117827Y0071049D02*
Y0071593D01*
Y0072487D02*
Y0072959D01*
Y007334D02*
Y0073859D01*
Y0074422D02*
Y0076348D01*
Y0076409D02*
Y0077425D01*
Y0077658D02*
Y0078867D01*
Y0079162D02*
Y007966D01*
Y0080097D02*
Y0080615D01*
X0117832Y0071049D02*
Y0071588D01*
Y0072482D02*
Y0072954D01*
Y0073335D02*
Y0073859D01*
Y0074422D02*
Y0076348D01*
Y0076409D02*
Y007742D01*
Y0077653D02*
Y0078867D01*
Y0079157D02*
Y007966D01*
Y0080102D02*
Y008062D01*
X0117837Y0071054D02*
Y0071583D01*
Y0072482D02*
Y0072954D01*
Y0073335D02*
Y0073854D01*
Y0074428D02*
Y0076348D01*
Y0076404D02*
Y0077415D01*
Y0077653D02*
Y0078867D01*
Y0079157D02*
Y007966D01*
Y0080102D02*
Y008062D01*
X0117843Y0071054D02*
Y0071578D01*
Y0072482D02*
Y0072954D01*
Y0073335D02*
Y0073854D01*
Y0074428D02*
Y0076348D01*
Y0076404D02*
Y007741D01*
Y0077653D02*
Y0078862D01*
Y0079157D02*
Y0079655D01*
Y0080107D02*
Y0080625D01*
X0117848Y0071054D02*
Y0071573D01*
Y0072482D02*
Y0072954D01*
Y0073335D02*
Y0073854D01*
Y0074443D02*
Y0076348D01*
Y0076404D02*
Y0077404D01*
Y0077653D02*
Y0078862D01*
Y0079157D02*
Y0079655D01*
Y0080112D02*
Y0080625D01*
X0117853Y0074463D02*
Y0076348D01*
X0117858Y0074483D02*
Y0076348D01*
X0117863Y0074509D02*
Y0076343D01*
X0117868Y0074529D02*
Y0076343D01*
X0117873Y0074555D02*
Y0076343D01*
X0117878Y0074575D02*
Y0076343D01*
X0117883Y0074595D02*
Y0076343D01*
X0117888Y0074621D02*
Y0076343D01*
X0117893Y0074641D02*
Y0076343D01*
X0117898Y0074661D02*
Y0076343D01*
X0117903Y0074687D02*
Y0076343D01*
X0117909Y0074707D02*
Y0076343D01*
X0117914Y0074732D02*
Y0076343D01*
X0117919Y0074753D02*
Y0076343D01*
X0117924Y0074773D02*
Y0076343D01*
X0117929Y0074798D02*
Y0076343D01*
X0117934Y0074819D02*
Y0076343D01*
X0117939Y0074839D02*
Y0076343D01*
X0117944Y0074864D02*
Y0076343D01*
X0117949Y0074885D02*
Y0076343D01*
X0117954Y0074905D02*
Y0076343D01*
X0117959Y007493D02*
Y0076343D01*
X0117964Y0074951D02*
Y0076343D01*
X011797Y0074976D02*
Y0076343D01*
X0117975Y0074997D02*
Y0076343D01*
X011798Y0075017D02*
Y0076343D01*
X0117985Y0075042D02*
Y0076343D01*
X011799Y0075063D02*
Y0076343D01*
X0117995Y0075083D02*
Y0076343D01*
X0118Y0075108D02*
Y0076338D01*
X0118005Y0075129D02*
Y0076333D01*
X011801Y0075149D02*
Y007618D01*
Y007619D02*
Y0076327D01*
X0118015Y0075174D02*
Y007618D01*
Y007619D02*
Y0076322D01*
X011802Y0075195D02*
Y0076317D01*
X0118025Y007522D02*
Y0076312D01*
X011803Y007524D02*
Y0076312D01*
X0118036Y0075261D02*
Y0076307D01*
X0118041Y0075286D02*
Y0076302D01*
X0118046Y0075306D02*
Y0076297D01*
X0118051Y0075327D02*
Y007617D01*
Y007618D02*
Y0076292D01*
X0118056Y0075352D02*
Y007617D01*
Y007618D02*
Y0076287D01*
X0118061Y0075372D02*
Y0076282D01*
X0118066Y0075398D02*
Y0076277D01*
X0118071Y0075418D02*
Y0076272D01*
X0118076Y0075438D02*
Y0076267D01*
X0118081Y0075464D02*
Y0076261D01*
X0118086Y0075484D02*
Y0076256D01*
X0118091Y0075505D02*
Y0076256D01*
X0118097Y007553D02*
Y0076251D01*
X0118102Y007555D02*
Y0076246D01*
X0118107Y0075571D02*
Y0076241D01*
X0118112Y0075596D02*
Y0076236D01*
X0118117Y0075616D02*
Y0076231D01*
X0118122Y0075642D02*
Y0076226D01*
X0118127Y0075662D02*
Y0076221D01*
X0118132Y0075682D02*
Y0076216D01*
X0118137Y0075708D02*
Y0076211D01*
X0118142Y0075728D02*
Y0076206D01*
X0118147Y0075748D02*
Y00762D01*
X0118152Y0075774D02*
Y0076195D01*
X0118157Y0075794D02*
Y0076195D01*
X0118163Y0075819D02*
Y007619D01*
X0118168Y007584D02*
Y0076185D01*
X0118173Y007586D02*
Y007618D01*
X0118178Y0075886D02*
Y0076175D01*
X0118183Y0075906D02*
Y007617D01*
X0118188Y0075926D02*
Y0076165D01*
X0118193Y0075952D02*
Y007616D01*
X0118198Y0075972D02*
Y0076155D01*
X0118203Y0075992D02*
Y007615D01*
X0118208Y0076018D02*
Y0076145D01*
X0118213Y0076038D02*
Y0076145D01*
X0118218Y0076063D02*
Y007614D01*
D33*
X0094933Y0115185D02*
Y0115697D01*
Y0114173D02*
Y0114681D01*
D34*
X0093933Y0114685D02*
X0095933D01*
X0093933Y0115185D02*
X0095933D01*
M02*
