%FSTAX43Y43*%
%MOMM*%
G71*
G01*
G75*
G04 Layer_Physical_Order=2*
G04 Layer_Color=255*
G04:AMPARAMS|DCode=10|XSize=2.5mm|YSize=2mm|CornerRadius=0.5mm|HoleSize=0mm|Usage=FLASHONLY|Rotation=90.000|XOffset=0mm|YOffset=0mm|HoleType=Round|Shape=RoundedRectangle|*
%AMROUNDEDRECTD10*
21,1,2.500,1.000,0,0,90.0*
21,1,1.500,2.000,0,0,90.0*
1,1,1.000,0.500,0.750*
1,1,1.000,0.500,-0.750*
1,1,1.000,-0.500,-0.750*
1,1,1.000,-0.500,0.750*
%
%ADD10ROUNDEDRECTD10*%
%ADD11O,0.500X2.250*%
G04:AMPARAMS|DCode=12|XSize=1.3mm|YSize=1mm|CornerRadius=0.25mm|HoleSize=0mm|Usage=FLASHONLY|Rotation=0.000|XOffset=0mm|YOffset=0mm|HoleType=Round|Shape=RoundedRectangle|*
%AMROUNDEDRECTD12*
21,1,1.300,0.500,0,0,0.0*
21,1,0.800,1.000,0,0,0.0*
1,1,0.500,0.400,-0.250*
1,1,0.500,-0.400,-0.250*
1,1,0.500,-0.400,0.250*
1,1,0.500,0.400,0.250*
%
%ADD12ROUNDEDRECTD12*%
G04:AMPARAMS|DCode=13|XSize=1mm|YSize=2.8mm|CornerRadius=0.25mm|HoleSize=0mm|Usage=FLASHONLY|Rotation=270.000|XOffset=0mm|YOffset=0mm|HoleType=Round|Shape=RoundedRectangle|*
%AMROUNDEDRECTD13*
21,1,1.000,2.300,0,0,270.0*
21,1,0.500,2.800,0,0,270.0*
1,1,0.500,-1.150,-0.250*
1,1,0.500,-1.150,0.250*
1,1,0.500,1.150,0.250*
1,1,0.500,1.150,-0.250*
%
%ADD13ROUNDEDRECTD13*%
G04:AMPARAMS|DCode=14|XSize=0.9mm|YSize=2.7mm|CornerRadius=0.225mm|HoleSize=0mm|Usage=FLASHONLY|Rotation=270.000|XOffset=0mm|YOffset=0mm|HoleType=Round|Shape=RoundedRectangle|*
%AMROUNDEDRECTD14*
21,1,0.900,2.250,0,0,270.0*
21,1,0.450,2.700,0,0,270.0*
1,1,0.450,-1.125,-0.225*
1,1,0.450,-1.125,0.225*
1,1,0.450,1.125,0.225*
1,1,0.450,1.125,-0.225*
%
%ADD14ROUNDEDRECTD14*%
G04:AMPARAMS|DCode=15|XSize=1.5mm|YSize=1.25mm|CornerRadius=0.313mm|HoleSize=0mm|Usage=FLASHONLY|Rotation=180.000|XOffset=0mm|YOffset=0mm|HoleType=Round|Shape=RoundedRectangle|*
%AMROUNDEDRECTD15*
21,1,1.500,0.625,0,0,180.0*
21,1,0.875,1.250,0,0,180.0*
1,1,0.625,-0.438,0.313*
1,1,0.625,0.438,0.313*
1,1,0.625,0.438,-0.313*
1,1,0.625,-0.438,-0.313*
%
%ADD15ROUNDEDRECTD15*%
G04:AMPARAMS|DCode=16|XSize=1.9mm|YSize=0.5mm|CornerRadius=0.125mm|HoleSize=0mm|Usage=FLASHONLY|Rotation=0.000|XOffset=0mm|YOffset=0mm|HoleType=Round|Shape=RoundedRectangle|*
%AMROUNDEDRECTD16*
21,1,1.900,0.250,0,0,0.0*
21,1,1.650,0.500,0,0,0.0*
1,1,0.250,0.825,-0.125*
1,1,0.250,-0.825,-0.125*
1,1,0.250,-0.825,0.125*
1,1,0.250,0.825,0.125*
%
%ADD16ROUNDEDRECTD16*%
G04:AMPARAMS|DCode=17|XSize=1.9mm|YSize=0.5mm|CornerRadius=0.125mm|HoleSize=0mm|Usage=FLASHONLY|Rotation=90.000|XOffset=0mm|YOffset=0mm|HoleType=Round|Shape=RoundedRectangle|*
%AMROUNDEDRECTD17*
21,1,1.900,0.250,0,0,90.0*
21,1,1.650,0.500,0,0,90.0*
1,1,0.250,0.125,0.825*
1,1,0.250,0.125,-0.825*
1,1,0.250,-0.125,-0.825*
1,1,0.250,-0.125,0.825*
%
%ADD17ROUNDEDRECTD17*%
G04:AMPARAMS|DCode=18|XSize=1.3mm|YSize=1mm|CornerRadius=0.25mm|HoleSize=0mm|Usage=FLASHONLY|Rotation=90.000|XOffset=0mm|YOffset=0mm|HoleType=Round|Shape=RoundedRectangle|*
%AMROUNDEDRECTD18*
21,1,1.300,0.500,0,0,90.0*
21,1,0.800,1.000,0,0,90.0*
1,1,0.500,0.250,0.400*
1,1,0.500,0.250,-0.400*
1,1,0.500,-0.250,-0.400*
1,1,0.500,-0.250,0.400*
%
%ADD18ROUNDEDRECTD18*%
G04:AMPARAMS|DCode=19|XSize=2.65mm|YSize=1.75mm|CornerRadius=0.438mm|HoleSize=0mm|Usage=FLASHONLY|Rotation=270.000|XOffset=0mm|YOffset=0mm|HoleType=Round|Shape=RoundedRectangle|*
%AMROUNDEDRECTD19*
21,1,2.650,0.875,0,0,270.0*
21,1,1.775,1.750,0,0,270.0*
1,1,0.875,-0.438,-0.887*
1,1,0.875,-0.438,0.887*
1,1,0.875,0.438,0.887*
1,1,0.875,0.438,-0.887*
%
%ADD19ROUNDEDRECTD19*%
G04:AMPARAMS|DCode=20|XSize=1.5mm|YSize=1.3mm|CornerRadius=0.325mm|HoleSize=0mm|Usage=FLASHONLY|Rotation=0.000|XOffset=0mm|YOffset=0mm|HoleType=Round|Shape=RoundedRectangle|*
%AMROUNDEDRECTD20*
21,1,1.500,0.650,0,0,0.0*
21,1,0.850,1.300,0,0,0.0*
1,1,0.650,0.425,-0.325*
1,1,0.650,-0.425,-0.325*
1,1,0.650,-0.425,0.325*
1,1,0.650,0.425,0.325*
%
%ADD20ROUNDEDRECTD20*%
G04:AMPARAMS|DCode=21|XSize=1.5mm|YSize=1.3mm|CornerRadius=0.325mm|HoleSize=0mm|Usage=FLASHONLY|Rotation=270.000|XOffset=0mm|YOffset=0mm|HoleType=Round|Shape=RoundedRectangle|*
%AMROUNDEDRECTD21*
21,1,1.500,0.650,0,0,270.0*
21,1,0.850,1.300,0,0,270.0*
1,1,0.650,-0.325,-0.425*
1,1,0.650,-0.325,0.425*
1,1,0.650,0.325,0.425*
1,1,0.650,0.325,-0.425*
%
%ADD21ROUNDEDRECTD21*%
%ADD22C,1.000*%
%ADD23C,0.500*%
%ADD24C,0.300*%
%ADD25C,1.300*%
%ADD26C,1.600*%
%ADD27C,1.000*%
%ADD28C,1.100*%
%ADD29C,0.700*%
G04:AMPARAMS|DCode=30|XSize=0.9mm|YSize=0.8mm|CornerRadius=0.2mm|HoleSize=0mm|Usage=FLASHONLY|Rotation=270.000|XOffset=0mm|YOffset=0mm|HoleType=Round|Shape=RoundedRectangle|*
%AMROUNDEDRECTD30*
21,1,0.900,0.400,0,0,270.0*
21,1,0.500,0.800,0,0,270.0*
1,1,0.400,-0.200,-0.250*
1,1,0.400,-0.200,0.250*
1,1,0.400,0.200,0.250*
1,1,0.400,0.200,-0.250*
%
%ADD30ROUNDEDRECTD30*%
G36*
X0122263Y0092418D02*
X0122434Y0092287D01*
Y0086072D01*
X0122362Y0085899D01*
X0122333Y0085677D01*
X0122362Y0085456D01*
X0122448Y0085249D01*
X0122584Y0085071D01*
X0122761Y0084935D01*
X0122968Y0084849D01*
X012319Y008482D01*
X0123412Y0084849D01*
X0123619Y0084935D01*
X0123796Y0085071D01*
X0123932Y0085249D01*
X0124018Y0085456D01*
X0124047Y0085677D01*
X0124018Y0085899D01*
X0123946Y0086072D01*
Y0092287D01*
X0124117Y0092418D01*
X012431Y0092669D01*
X012461D01*
X0124803Y0092418D01*
X0124974Y0092287D01*
Y0065031D01*
X0124974Y0065031D01*
X0124974D01*
X0124999Y0064835D01*
X0125075Y0064652D01*
X0125195Y0064496D01*
X0132692Y0056998D01*
X0132664Y0056785D01*
X0132692Y0056572D01*
X0130487Y0054366D01*
X0121665D01*
X0121499Y0054616D01*
X0121599Y0054858D01*
X0121644Y0055197D01*
X0121599Y0055537D01*
X0121468Y0055853D01*
X012126Y0056125D01*
X0121008Y0056318D01*
Y0056618D01*
X012126Y005681D01*
X0121468Y0057082D01*
X0121599Y0057398D01*
X0121644Y0057737D01*
X0121599Y0058077D01*
X0121468Y0058393D01*
X012126Y0058665D01*
X0120988Y0058873D01*
X0120672Y0059004D01*
X0120332Y0059049D01*
X0119993Y0059004D01*
X0119677Y0058873D01*
X0119405Y0058665D01*
X0119197Y0058393D01*
X0119066Y0058077D01*
X0119021Y0057737D01*
X0119066Y0057398D01*
X0119197Y0057082D01*
X0119405Y005681D01*
X0119657Y0056618D01*
Y0056318D01*
X0119405Y0056125D01*
X0119197Y0055853D01*
X0119066Y0055537D01*
X0119021Y0055197D01*
X0119066Y0054858D01*
X0119166Y0054616D01*
X0119Y0054366D01*
X011849D01*
X0118324Y0054616D01*
X0118424Y0054858D01*
X0118469Y0055197D01*
X0118424Y0055537D01*
X0118293Y0055853D01*
X0118085Y0056125D01*
X0117833Y0056318D01*
Y0056618D01*
X0118085Y005681D01*
X0118293Y0057082D01*
X0118424Y0057398D01*
X0118469Y0057737D01*
X0118424Y0058077D01*
X0118293Y0058393D01*
X0118085Y0058665D01*
X0117813Y0058873D01*
X0117497Y0059004D01*
X0117158Y0059049D01*
X0116818Y0059004D01*
X0116502Y0058873D01*
X011623Y0058665D01*
X0116022Y0058393D01*
X0115891Y0058077D01*
X0115846Y0057737D01*
X0115891Y0057398D01*
X0116022Y0057082D01*
X011623Y005681D01*
X0116482Y0056618D01*
Y0056318D01*
X011623Y0056125D01*
X0116022Y0055853D01*
X0115928Y0055627D01*
X0115634Y0055568D01*
X011547Y0055732D01*
X0115313Y0055853D01*
X0115131Y0055928D01*
X0114935Y0055954D01*
X0109262D01*
X0109213Y0056018D01*
X0108972Y0056202D01*
X0108694Y0056318D01*
Y0056618D01*
X0108972Y0056733D01*
X0109213Y0056917D01*
X0109397Y0057158D01*
X0109513Y0057437D01*
X0109552Y0057737D01*
X0109513Y0058038D01*
X0109397Y0058317D01*
X0109213Y0058558D01*
X0108972Y0058742D01*
X0108694Y0058857D01*
Y0059158D01*
X0108972Y0059273D01*
X0109213Y0059457D01*
X0109397Y0059698D01*
X0109513Y0059977D01*
X0109552Y0060278D01*
X0109513Y0060578D01*
X0109397Y0060857D01*
X0109213Y0061098D01*
X0108972Y0061282D01*
X0108694Y0061397D01*
Y0061697D01*
X0108972Y0061813D01*
X0109213Y0061997D01*
X0109397Y0062238D01*
X0109513Y0062517D01*
X0109552Y0062818D01*
X0109513Y0063118D01*
X0109397Y0063397D01*
X0109213Y0063638D01*
X0108972Y0063822D01*
X0108694Y0063938D01*
Y0064238D01*
X0108972Y0064353D01*
X0109213Y0064537D01*
X0109321Y0064679D01*
X0110004D01*
X0110108Y0064543D01*
X0110278Y0064413D01*
X0110475Y0064331D01*
X0110688Y0064303D01*
X0111562D01*
X0111775Y0064331D01*
X0111972Y0064413D01*
X0112142Y0064543D01*
X0112272Y0064713D01*
X0112354Y006491D01*
X0112382Y0065122D01*
Y0065747D01*
X0112354Y006596D01*
X0112272Y0066157D01*
X0112155Y006631D01*
X0112272Y0066463D01*
X0112354Y006666D01*
X0112382Y0066872D01*
Y0066935D01*
X0109868D01*
Y0066872D01*
X0109896Y006666D01*
X0109978Y0066463D01*
X0109979Y0066461D01*
X0109847Y0066191D01*
X0109195D01*
X0108972Y0066362D01*
X0108694Y0066478D01*
Y0066777D01*
X0108972Y0066893D01*
X0109213Y0067077D01*
X0109397Y0067318D01*
X0109513Y0067597D01*
X010952Y0067647D01*
X0107266D01*
X0107272Y0067597D01*
X0107388Y0067318D01*
X0107572Y0067077D01*
X0107813Y0066893D01*
X0108091Y0066777D01*
Y0066478D01*
X0107813Y0066362D01*
X0107572Y0066178D01*
X0107388Y0065937D01*
X0107272Y0065658D01*
X0107233Y0065357D01*
X0107272Y0065057D01*
X0107388Y0064778D01*
X0107572Y0064537D01*
X0107813Y0064353D01*
X0108091Y0064238D01*
Y0063938D01*
X0107822Y0063826D01*
X0106736D01*
Y0067897D01*
X0106736Y0067897D01*
X0106736Y0067897D01*
Y0067897D01*
Y0084942D01*
X0109595Y0087801D01*
X0109812Y008783D01*
X0109846Y0087844D01*
X0118353D01*
X0118614Y0087878D01*
X0118857Y0087979D01*
X0119066Y0088139D01*
X0121363Y0090437D01*
X0121523Y0090646D01*
X0121624Y0090889D01*
X0121659Y009115D01*
X0121659Y009115D01*
X0121659Y009115D01*
Y009115D01*
Y0092524D01*
X012177Y0092669D01*
X012207D01*
X0122263Y0092418D01*
D02*
G37*
G36*
X0112024Y0110601D02*
X0112201Y0110465D01*
X0112374Y0110393D01*
X0112909Y0109859D01*
Y0096943D01*
X0112738Y0096812D01*
X0112529Y0096541D01*
X0112398Y0096224D01*
X0112354Y0095885D01*
X0112398Y0095546D01*
X0112529Y0095229D01*
X0112738Y0094958D01*
X0112989Y0094765D01*
Y0094465D01*
X0112738Y0094272D01*
X0112529Y0094001D01*
X0112398Y0093684D01*
X0112354Y0093345D01*
X0112398Y0093006D01*
X0112529Y0092689D01*
X0112738Y0092418D01*
X0113009Y0092209D01*
X0113326Y0092078D01*
X0113665Y0092034D01*
X0114004Y0092078D01*
X0114321Y0092209D01*
X0114592Y0092418D01*
X0114801Y0092689D01*
X0114932Y0093006D01*
X0114976Y0093345D01*
X0114932Y0093684D01*
X0114801Y0094001D01*
X0114592Y0094272D01*
X0114341Y0094465D01*
Y0094765D01*
X0114592Y0094958D01*
X0114801Y0095229D01*
X0114932Y0095546D01*
X0114976Y0095885D01*
X0114932Y0096224D01*
X0114801Y0096541D01*
X0114592Y0096812D01*
X0114465Y009691D01*
X0114514Y0097206D01*
X0114706Y0097271D01*
X0114718Y0097255D01*
X0115874Y0096098D01*
X0115846Y0095885D01*
X0115891Y0095546D01*
X0116022Y0095229D01*
X011623Y0094958D01*
X0116482Y0094765D01*
Y0094465D01*
X011623Y0094272D01*
X0116022Y0094001D01*
X0115891Y0093684D01*
X0115879Y0093595D01*
X0118436D01*
X0118424Y0093684D01*
X0118293Y0094001D01*
X0118085Y0094272D01*
X0117833Y0094465D01*
Y0094765D01*
X0118085Y0094958D01*
X0118293Y0095229D01*
X0118424Y0095546D01*
X0118469Y0095885D01*
X0118424Y0096224D01*
X0118293Y0096541D01*
X0118085Y0096812D01*
X0117813Y0097021D01*
X0117497Y0097152D01*
X0117158Y0097196D01*
X0116944Y0097168D01*
X0116009Y0098103D01*
Y0104449D01*
X0116303Y0104507D01*
X0116328Y0104448D01*
X0116458Y0104278D01*
X0116628Y0104148D01*
X0116825Y0104066D01*
X0117037Y0104038D01*
X0117225D01*
Y010517D01*
X0117475D01*
Y010542D01*
X0118732D01*
Y0105482D01*
X011871Y0105649D01*
X0118979Y0105782D01*
X0119641Y010512D01*
Y0096706D01*
X0119514Y0096541D01*
X0119383Y0096224D01*
X0119339Y0095885D01*
X0119383Y0095546D01*
X0119514Y0095229D01*
X0119723Y0094958D01*
X0119974Y0094765D01*
Y0094465D01*
X0119723Y0094272D01*
X0119514Y0094001D01*
X0119383Y0093684D01*
X0119339Y0093345D01*
X0119383Y0093006D01*
X0119514Y0092689D01*
X0119641Y0092524D01*
Y0091568D01*
X0117935Y0089861D01*
X0109846D01*
X0109812Y0089875D01*
X0109537Y0089912D01*
X0109263Y0089875D01*
X0109229Y0089861D01*
X010922D01*
X0108959Y0089827D01*
X0108716Y0089726D01*
X0108507Y0089566D01*
X0105014Y0086073D01*
X0104863Y0085876D01*
X0104655Y0085947D01*
X0104579Y0085978D01*
Y0086682D01*
X0109959Y0092062D01*
X0110173Y0092034D01*
X0110512Y0092078D01*
X0110828Y0092209D01*
X01111Y0092418D01*
X0111308Y0092689D01*
X0111439Y0093006D01*
X0111484Y0093345D01*
X0111439Y0093684D01*
X0111308Y0094001D01*
X01111Y0094272D01*
X0110848Y0094465D01*
Y0094765D01*
X01111Y0094958D01*
X0111308Y0095229D01*
X0111439Y0095546D01*
X0111484Y0095885D01*
X0111439Y0096224D01*
X0111308Y0096541D01*
X01111Y0096812D01*
X0111074Y0096832D01*
Y0097132D01*
X0111107Y0097158D01*
X0111228Y0097314D01*
X0111303Y0097497D01*
X0111329Y0097692D01*
Y0098192D01*
X0111303Y0098388D01*
X0111228Y0098571D01*
X0111107Y0098727D01*
Y0098758D01*
X0111228Y0098914D01*
X0111303Y0099097D01*
X0111329Y0099293D01*
Y0099793D01*
X0111303Y0099988D01*
X0111228Y0100171D01*
X0111107Y0100327D01*
X0110951Y0100448D01*
X0110828Y0100498D01*
Y0101283D01*
X0110806Y0101452D01*
X0110787Y0101498D01*
X011074Y010161D01*
X0110636Y0101746D01*
X0108304Y0104078D01*
X0108335Y0104154D01*
Y0105488D01*
X0108585D01*
Y0105738D01*
X0109842D01*
Y01058D01*
X0109814Y0106012D01*
X0109732Y010621D01*
X0109731Y0106212D01*
X0109863Y0106481D01*
X0110272D01*
X0110468Y0106507D01*
X0110651Y0106582D01*
X0110731Y0106644D01*
X0110738Y0106643D01*
X0111012Y010668D01*
X0111267Y0106785D01*
X0111486Y0106954D01*
X0111655Y0107173D01*
X011176Y0107428D01*
X0111797Y0107702D01*
X011176Y0107977D01*
X0111746Y0108011D01*
Y0109024D01*
X0111748Y0109028D01*
X0111784Y0109302D01*
X0111748Y0109577D01*
X0111734Y0109611D01*
Y0110513D01*
X0112018Y0110609D01*
X0112024Y0110601D01*
D02*
G37*
G36*
X0132709Y0120354D02*
X0132697Y0120265D01*
X0133975D01*
Y0119765D01*
X0132697D01*
X0132709Y0119676D01*
X013284Y0119359D01*
X0133048Y0119088D01*
X01333Y0118895D01*
Y0118595D01*
X0133048Y0118402D01*
X013284Y0118131D01*
X0132709Y0117814D01*
X0132664Y0117475D01*
X0132709Y0117136D01*
X013284Y0116819D01*
X0133048Y0116548D01*
X013332Y0116339D01*
X0133636Y0116208D01*
X0133975Y0116164D01*
X0134315Y0116208D01*
X0134631Y0116339D01*
X0134903Y0116548D01*
X0134915Y0116564D01*
X0135199Y0116467D01*
Y0086685D01*
X0134915Y0086589D01*
X0134903Y0086605D01*
X0134631Y0086813D01*
X0134315Y0086944D01*
X0133975Y0086989D01*
X0133636Y0086944D01*
X013332Y0086813D01*
X0133048Y0086605D01*
X013284Y0086333D01*
X0132709Y0086017D01*
X0132664Y0085677D01*
X0132709Y0085338D01*
X013284Y0085022D01*
X0133048Y008475D01*
X01333Y0084558D01*
Y0084257D01*
X0133048Y0084065D01*
X013284Y0083793D01*
X0132709Y0083477D01*
X0132664Y0083137D01*
X0132709Y0082798D01*
X013284Y0082482D01*
X0133048Y008221D01*
X01333Y0082018D01*
Y0081717D01*
X0133048Y0081525D01*
X013284Y0081253D01*
X0132709Y0080937D01*
X0132664Y0080598D01*
X0132709Y0080258D01*
X013284Y0079942D01*
X0133048Y007967D01*
X01333Y0079478D01*
Y0079177D01*
X0133048Y0078985D01*
X013284Y0078713D01*
X0132709Y0078397D01*
X0132664Y0078058D01*
X0132709Y0077718D01*
X013284Y0077402D01*
X0133048Y007713D01*
X01333Y0076938D01*
Y0076637D01*
X0133048Y0076445D01*
X013284Y0076173D01*
X0132709Y0075857D01*
X0132664Y0075518D01*
X0132709Y0075178D01*
X013284Y0074862D01*
X0133048Y007459D01*
X01333Y0074397D01*
Y0074098D01*
X0133048Y0073905D01*
X013284Y0073633D01*
X0132709Y0073317D01*
X0132664Y0072978D01*
X0132709Y0072638D01*
X013284Y0072322D01*
X0133048Y007205D01*
X01333Y0071857D01*
Y0071558D01*
X0133048Y0071365D01*
X013284Y0071093D01*
X0132709Y0070777D01*
X0132664Y0070438D01*
X0132709Y0070098D01*
X013284Y0069782D01*
X0133048Y006951D01*
X01333Y0069317D01*
Y0069018D01*
X0133048Y0068825D01*
X013284Y0068553D01*
X0132709Y0068237D01*
X0132664Y0067897D01*
X0132709Y0067558D01*
X013284Y0067242D01*
X0133048Y006697D01*
X013332Y0066762D01*
X0133636Y0066631D01*
X0133975Y0066586D01*
X0134315Y0066631D01*
X0134631Y0066762D01*
X0134903Y006697D01*
X0134915Y0066986D01*
X0135199Y006689D01*
Y0062873D01*
X0134915Y0062776D01*
X0134903Y0062792D01*
X0134631Y0063001D01*
X0134315Y0063132D01*
X0133975Y0063176D01*
X0133762Y0063148D01*
X0131566Y0065344D01*
Y0092287D01*
X0131737Y0092418D01*
X0131946Y0092689D01*
X0132077Y0093006D01*
X0132121Y0093345D01*
X0132077Y0093684D01*
X0131946Y0094001D01*
X0131737Y0094272D01*
X0131486Y0094465D01*
Y0094765D01*
X0131737Y0094958D01*
X0131946Y0095229D01*
X0132077Y0095546D01*
X0132121Y0095885D01*
X0132077Y0096224D01*
X0131946Y0096541D01*
X0131737Y0096812D01*
X0131466Y0097021D01*
X0131149Y0097152D01*
X013081Y0097196D01*
X0130471Y0097152D01*
X0130154Y0097021D01*
X0129883Y0096812D01*
X012969Y0096561D01*
X012939D01*
X0129197Y0096812D01*
X0128926Y0097021D01*
X0128609Y0097152D01*
X012827Y0097196D01*
X0127931Y0097152D01*
X0127614Y0097021D01*
X0127343Y0096812D01*
X012715Y0096561D01*
X012685D01*
X0126657Y0096812D01*
X0126386Y0097021D01*
X0126069Y0097152D01*
X012573Y0097196D01*
X0125391Y0097152D01*
X0125074Y0097021D01*
X0124803Y0096812D01*
X012461Y0096561D01*
X012431D01*
X0124117Y0096812D01*
X0123846Y0097021D01*
X0123529Y0097152D01*
X012319Y0097196D01*
X0122851Y0097152D01*
X0122534Y0097021D01*
X0122263Y0096812D01*
X012207Y0096561D01*
X012177D01*
X0121659Y0096706D01*
Y0105537D01*
X0121624Y0105799D01*
X0121523Y0106042D01*
X0121363Y0106251D01*
X0120294Y010732D01*
Y0117576D01*
X0120297Y011758D01*
X0120403Y0117836D01*
X0120439Y011811D01*
X0120403Y0118384D01*
X0120297Y011864D01*
X0120129Y0118859D01*
X011991Y0119027D01*
X0119654Y0119133D01*
X011938Y0119169D01*
X0119106Y0119133D01*
X011885Y0119027D01*
X0118631Y0118859D01*
X0118463Y011864D01*
X0118415Y0118524D01*
X0118411Y0118519D01*
X0118311Y0118276D01*
X0118276Y0118015D01*
Y0108232D01*
X0118051Y0108034D01*
X0117912Y0108052D01*
X0117037D01*
X0116825Y0108024D01*
X0116628Y0107942D01*
X0116458Y0107812D01*
X0116328Y0107642D01*
X0116303Y0107583D01*
X0116009Y0107641D01*
Y011073D01*
X0116081Y0110903D01*
X011611Y0111125D01*
X0116081Y0111347D01*
X0115995Y0111554D01*
X0115859Y0111731D01*
X0115681Y0111867D01*
X0115474Y0111953D01*
X0115253Y0111982D01*
X0115031Y0111953D01*
X0114824Y0111867D01*
X0114646Y0111731D01*
X011451Y0111554D01*
X0114424Y0111347D01*
X0114395Y0111125D01*
X0114424Y0110903D01*
X0114427Y0110896D01*
X0114178Y0110729D01*
X0113444Y0111463D01*
X0113372Y0111636D01*
X0113236Y0111814D01*
X0113059Y011195D01*
X0112852Y0112036D01*
X011263Y0112065D01*
X0112408Y0112036D01*
X0112201Y011195D01*
X0112024Y0111814D01*
X0112018Y0111806D01*
X0111734Y0111902D01*
Y0117602D01*
X011183Y0117836D01*
X0111867Y011811D01*
X011183Y0118384D01*
X0111725Y011864D01*
X0111556Y0118859D01*
X0111337Y0119027D01*
X0111082Y0119133D01*
X0110808Y0119169D01*
X0110533Y0119133D01*
X0110278Y0119027D01*
X0110059Y0118859D01*
X010989Y011864D01*
X0109785Y0118384D01*
X0109782Y0118364D01*
X0109751Y0118289D01*
X0109716Y0118027D01*
Y0113982D01*
X0109432Y0113886D01*
X0109298Y0114061D01*
X0109089Y0114221D01*
X0108846Y0114322D01*
X0108585Y0114356D01*
X0108324Y0114322D01*
X0108081Y0114221D01*
X0107872Y0114061D01*
X0107712Y0113852D01*
X010763Y0113655D01*
X0107336Y0113713D01*
Y0115028D01*
X0107422Y0115141D01*
X0107508Y0115348D01*
X0107537Y011557D01*
X0107508Y0115792D01*
X0107422Y0115999D01*
X0107286Y0116176D01*
X0107109Y0116312D01*
X0106902Y0116398D01*
X010668Y0116427D01*
X0106458Y0116398D01*
X0106251Y0116312D01*
X0106074Y0116176D01*
X0105938Y0115999D01*
X0105852Y0115792D01*
X0105823Y011557D01*
X0105728Y0115475D01*
X0105506Y0115446D01*
X0105299Y011536D01*
X0105121Y0115224D01*
X0104985Y0115046D01*
X0104899Y0114839D01*
X010487Y0114618D01*
X0104899Y0114396D01*
X0104985Y0114189D01*
X0105072Y0114076D01*
Y011145D01*
X0104803Y0111317D01*
X0104758Y0111351D01*
X0104588Y0111422D01*
X0104405Y0111446D01*
X0104005D01*
X0103822Y0111422D01*
X0103652Y0111351D01*
Y0111351D01*
X0103652Y0111351D01*
D01*
X0103504Y0111239D01*
D01*
X0103358Y0111351D01*
X0103188Y0111422D01*
X0103055Y0111439D01*
Y011049D01*
X0102805D01*
Y011024D01*
X0101899D01*
X0101923Y0110057D01*
X0101994Y0109887D01*
X0102106Y0109741D01*
X0102252Y0109629D01*
X0102422Y0109558D01*
X0102605Y0109534D01*
X0102928D01*
X0103024Y0109391D01*
X0103052Y010918D01*
X010302Y0109103D01*
X010298Y0108802D01*
X010302Y0108502D01*
X0103135Y0108223D01*
X010332Y0107982D01*
X010356Y0107798D01*
X010384Y0107682D01*
X010414Y0107643D01*
X010444Y0107682D01*
X010472Y0107798D01*
X0104803Y0107862D01*
X0105072Y0107729D01*
Y0104996D01*
X0104803Y0104863D01*
X010472Y0104927D01*
X010444Y0105043D01*
X010414Y0105082D01*
X010384Y0105043D01*
X010356Y0104927D01*
X010332Y0104743D01*
X0103135Y0104502D01*
X010302Y0104223D01*
X010298Y0103923D01*
X010302Y0103622D01*
X0103052Y0103545D01*
X0103024Y0103334D01*
X0102928Y0103191D01*
X0102605D01*
X0102422Y0103167D01*
X0102252Y0103096D01*
X0102106Y0102984D01*
X0101994Y0102838D01*
X0101923Y0102668D01*
X0101899Y0102485D01*
X0102805D01*
Y0102235D01*
X0103055D01*
Y0101286D01*
X0103188Y0101303D01*
X0103358Y0101374D01*
X0103504Y0101486D01*
X0103504Y0101486D01*
Y0101486D01*
X0103652Y0101374D01*
D01*
X0103652Y0101374D01*
Y0101374D01*
X0103822Y0101303D01*
X0104005Y0101279D01*
X0104405D01*
X0104588Y0101303D01*
X0104758Y0101374D01*
X0104904Y0101486D01*
X0105016Y0101632D01*
X0105087Y0101802D01*
X0105111Y0101985D01*
Y0102485D01*
X0105087Y0102668D01*
X0105016Y0102838D01*
X0104961Y010291D01*
Y0103104D01*
X0105145Y0103343D01*
X010526Y0103622D01*
X0105692Y0103565D01*
X0106977Y0102281D01*
Y0100498D01*
X0106854Y0100448D01*
X0106698Y0100327D01*
X0106577Y0100171D01*
X0106502Y0099988D01*
X0106476Y0099793D01*
Y0099293D01*
X0106502Y0099097D01*
X0106577Y0098914D01*
X0106698Y0098758D01*
Y0098727D01*
X0106577Y0098571D01*
X0106502Y0098388D01*
X0106476Y0098192D01*
Y0097692D01*
X0106502Y0097497D01*
X0106577Y0097314D01*
X0106698Y0097158D01*
X0106731Y0097132D01*
Y0096832D01*
X0106705Y0096812D01*
X0106497Y0096541D01*
X0106366Y0096224D01*
X0106321Y0095885D01*
X0106366Y0095546D01*
X0106497Y0095229D01*
X0106705Y0094958D01*
X0106957Y0094765D01*
Y0094465D01*
X0106705Y0094272D01*
X0106497Y0094001D01*
X0106366Y0093684D01*
X0106321Y0093345D01*
X0106349Y0093132D01*
X01017Y0088482D01*
X010158Y0088326D01*
X0101504Y0088143D01*
X0101479Y0087948D01*
Y0084193D01*
X0101209Y008406D01*
X0101102Y0084142D01*
X0100823Y0084258D01*
X0100522Y0084297D01*
X0100222Y0084258D01*
X0099943Y0084142D01*
X0099702Y0083958D01*
X0099518Y0083717D01*
X0099402Y0083438D01*
X0099363Y0083137D01*
X0099373Y0083058D01*
X0088683Y0072367D01*
X0088562Y0072211D01*
X0088487Y0072028D01*
X0088461Y0071832D01*
Y0047678D01*
X0088192Y0047545D01*
X008816Y004757D01*
X0087962Y0047652D01*
X008775Y004768D01*
X0087562D01*
Y0046548D01*
X0087312D01*
Y0046298D01*
X0086055D01*
Y0046235D01*
X0086083Y0046023D01*
X0086165Y0045825D01*
X0086282Y0045673D01*
X0086165Y004552D01*
X0086083Y0045322D01*
X0086055Y004511D01*
Y0044485D01*
X0086083Y0044273D01*
X0086165Y0044075D01*
X0086296Y0043906D01*
X0086465Y0043775D01*
X0086663Y0043693D01*
X0086875Y0043665D01*
X008775D01*
X0087962Y0043693D01*
X008816Y0043775D01*
X0088329Y0043906D01*
X0088393Y0043906D01*
X0088397Y00439D01*
X0088638Y0043715D01*
X0088917Y00436D01*
X0089217Y004356D01*
X0089518Y00436D01*
X0089797Y0043715D01*
X0090038Y00439D01*
X0090182Y0044088D01*
X0090344Y0043967D01*
X0090344Y0043967D01*
X0090527Y0043892D01*
X0090723Y0043866D01*
X0091522D01*
X0091718Y0043892D01*
X0091901Y0043967D01*
X0092057Y0044088D01*
X0092178Y0044244D01*
X0092253Y0044427D01*
X0092279Y0044623D01*
Y0045123D01*
X0092253Y0045318D01*
X0092178Y0045501D01*
X0092057Y0045657D01*
Y0045688D01*
X0092178Y0045844D01*
X0092253Y0046027D01*
X0092279Y0046222D01*
Y0046722D01*
X0092253Y0046918D01*
X0092178Y0047101D01*
X0092057Y0047257D01*
X0091901Y0047378D01*
X0091879Y0047387D01*
Y0048426D01*
X009204Y0048635D01*
X0092145Y0048891D01*
X0092182Y0049165D01*
X0092145Y0049439D01*
X009204Y0049695D01*
X0091871Y0049914D01*
X0091652Y0050082D01*
X0091397Y0050188D01*
X0091122Y0050224D01*
X0090848Y0050188D01*
X0090593Y0050082D01*
X0090374Y0049914D01*
X0090258Y0049763D01*
X0089974Y004986D01*
Y0071519D01*
X0099087Y0080632D01*
X0099371Y0080535D01*
X0099402Y0080297D01*
X0099518Y0080018D01*
X0099702Y0079777D01*
X0099943Y0079593D01*
X0100221Y0079478D01*
Y0079177D01*
X0099943Y0079062D01*
X0099702Y0078878D01*
X0099518Y0078637D01*
X0099402Y0078358D01*
X0099363Y0078058D01*
X0099402Y0077757D01*
X0099518Y0077478D01*
X0099702Y0077237D01*
X0099943Y0077053D01*
X0100221Y0076938D01*
Y0076637D01*
X0099943Y0076522D01*
X0099702Y0076338D01*
X0099518Y0076097D01*
X0099402Y0075818D01*
X0099363Y0075518D01*
X0099373Y0075438D01*
X0098208Y0074272D01*
X0098087Y0074116D01*
X0098012Y0073933D01*
X0097986Y0073738D01*
Y0049482D01*
X0098012Y0049287D01*
X0098087Y0049104D01*
X0098208Y0048948D01*
X0102818Y0044338D01*
X0102974Y0044217D01*
X0103157Y0044142D01*
X0103353Y0044116D01*
X0113661D01*
X0113683Y0044088D01*
X0113839Y0043967D01*
X0114022Y0043892D01*
X0114217Y0043866D01*
X0115018D01*
X0115213Y0043892D01*
X0115396Y0043967D01*
X0115396Y0043967D01*
X0115558Y0044088D01*
X0115702Y00439D01*
X0115943Y0043715D01*
X0116222Y00436D01*
X0116522Y004356D01*
X0116823Y00436D01*
X0117102Y0043715D01*
X0117343Y00439D01*
X0117347Y0043906D01*
X0117411Y0043906D01*
X011758Y0043775D01*
X0117778Y0043693D01*
X011799Y0043665D01*
X0118865D01*
X0119077Y0043693D01*
X0119275Y0043775D01*
X0119444Y0043906D01*
X0119575Y0044075D01*
X0119657Y0044273D01*
X0119685Y0044485D01*
Y004511D01*
X0119657Y0045322D01*
X0119575Y004552D01*
X0119458Y0045673D01*
X0119575Y0045825D01*
X0119657Y0046023D01*
X0119685Y0046235D01*
Y0046298D01*
X011717D01*
Y0046235D01*
X0117198Y0046023D01*
X0117217Y0045977D01*
X0117005Y0045765D01*
X0116823Y004584D01*
X0116522Y004588D01*
X0116222Y004584D01*
X0115943Y0045725D01*
X0115934Y0045718D01*
X0115696Y0045901D01*
X0115748Y0046027D01*
X0115774Y0046222D01*
Y0046722D01*
X0115748Y0046918D01*
X0115673Y0047101D01*
X0115552Y0047257D01*
X0115396Y0047378D01*
X0115213Y0047453D01*
X0115018Y0047479D01*
X0114217D01*
X0114022Y0047453D01*
X0113839Y0047378D01*
X0113683Y0047257D01*
X0113661Y0047229D01*
X0106736D01*
Y0047586D01*
X010675Y0047621D01*
X0106787Y0047895D01*
X010675Y0048169D01*
X0106736Y0048204D01*
Y0061809D01*
X0107822D01*
X0108091Y0061697D01*
Y0061397D01*
X0107813Y0061282D01*
X0107572Y0061098D01*
X0107388Y0060857D01*
X0107272Y0060578D01*
X0107233Y0060278D01*
X0107272Y0059977D01*
X0107388Y0059698D01*
X0107572Y0059457D01*
X0107813Y0059273D01*
X0108091Y0059158D01*
Y0058857D01*
X0107813Y0058742D01*
X0107572Y0058558D01*
X0107388Y0058317D01*
X0107272Y0058038D01*
X0107233Y0057737D01*
X0107272Y0057437D01*
X0107388Y0057158D01*
X0107572Y0056917D01*
X0107813Y0056733D01*
X0108091Y0056618D01*
Y0056318D01*
X0107813Y0056202D01*
X0107572Y0056018D01*
X0107388Y0055777D01*
X0107272Y0055498D01*
X0107233Y0055197D01*
X0107272Y0054897D01*
X0107388Y0054618D01*
X0107572Y0054377D01*
X0107813Y0054193D01*
X0108091Y0054077D01*
Y0053778D01*
X0107813Y0053662D01*
X0107572Y0053478D01*
X0107388Y0053237D01*
X0107272Y0052958D01*
X0107233Y0052658D01*
X0107272Y0052357D01*
X0107388Y0052078D01*
X0107572Y0051837D01*
X0107813Y0051653D01*
X0108091Y0051537D01*
Y0051237D01*
X0107813Y0051122D01*
X0107572Y0050938D01*
X0107388Y0050697D01*
X0107272Y0050418D01*
X0107233Y0050118D01*
X0107272Y0049817D01*
X0107388Y0049538D01*
X0107572Y0049297D01*
X0107813Y0049113D01*
X0108092Y0048997D01*
X0108393Y0048958D01*
X0108693Y0048997D01*
X0108972Y0049113D01*
X0109213Y0049297D01*
X0109262Y0049361D01*
X013208D01*
X0132276Y0049387D01*
X013244Y0049455D01*
X0132498Y0049411D01*
X0132668Y004919D01*
X0132664Y0049165D01*
X0132709Y0048826D01*
X013284Y0048509D01*
X0133048Y0048238D01*
X013332Y0048029D01*
X0133636Y0047898D01*
X0133975Y0047854D01*
X0134315Y0047898D01*
X0134631Y0048029D01*
X0134903Y0048238D01*
X0134915Y0048254D01*
X0135199Y0048157D01*
Y0041601D01*
X0079431D01*
Y0048145D01*
X0079715Y0048241D01*
X0079718Y0048238D01*
X0079989Y0048029D01*
X0080306Y0047898D01*
X0080645Y0047854D01*
X0080984Y0047898D01*
X0081301Y0048029D01*
X0081572Y0048238D01*
X0081781Y0048509D01*
X0081912Y0048826D01*
X0081956Y0049165D01*
X0081912Y0049504D01*
X0081781Y0049821D01*
X0081572Y0050092D01*
X0081321Y0050285D01*
Y0050585D01*
X0081572Y0050778D01*
X0081781Y0051049D01*
X0081912Y0051366D01*
X0081956Y0051705D01*
X0081912Y0052044D01*
X0081781Y0052361D01*
X0081572Y0052632D01*
X0081321Y0052825D01*
Y0053125D01*
X0081572Y0053318D01*
X0081781Y0053589D01*
X0081912Y0053906D01*
X0081923Y0053995D01*
X0080645D01*
Y0054495D01*
X0081923D01*
X0081912Y0054584D01*
X0081781Y0054901D01*
X0081572Y0055172D01*
X0081321Y0055365D01*
Y0055665D01*
X0081572Y0055858D01*
X0081781Y0056129D01*
X0081912Y0056446D01*
X0081923Y0056535D01*
X0080645D01*
Y0056785D01*
X0080395D01*
Y0058063D01*
X0080306Y0058052D01*
X0079989Y0057921D01*
X0079718Y0057712D01*
X0079715Y0057709D01*
X0079431Y0057805D01*
Y0061797D01*
X0079715Y0061894D01*
X0079718Y006189D01*
X0079989Y0061682D01*
X0080306Y0061551D01*
X0080645Y0061506D01*
X0080984Y0061551D01*
X0081301Y0061682D01*
X0081572Y006189D01*
X0081781Y0062162D01*
X0081912Y0062478D01*
X0081956Y0062818D01*
X0081912Y0063157D01*
X0081781Y0063473D01*
X0081572Y0063745D01*
X0081321Y0063938D01*
Y0064238D01*
X0081572Y006443D01*
X0081781Y0064702D01*
X0081912Y0065018D01*
X0081956Y0065357D01*
X0081912Y0065697D01*
X0081781Y0066013D01*
X0081572Y0066285D01*
X0081321Y0066478D01*
Y0066777D01*
X0081572Y006697D01*
X0081781Y0067242D01*
X0081912Y0067558D01*
X0081956Y0067897D01*
X0081912Y0068237D01*
X0081781Y0068553D01*
X0081572Y0068825D01*
X0081321Y0069018D01*
Y0069317D01*
X0081572Y006951D01*
X0081781Y0069782D01*
X0081912Y0070098D01*
X0081956Y0070438D01*
X0081912Y0070777D01*
X0081781Y0071093D01*
X0081572Y0071365D01*
X0081321Y0071558D01*
Y0071857D01*
X0081572Y007205D01*
X0081781Y0072322D01*
X0081912Y0072638D01*
X0081956Y0072978D01*
X0081912Y0073317D01*
X0081781Y0073633D01*
X0081572Y0073905D01*
X0081321Y0074098D01*
Y0074397D01*
X0081572Y007459D01*
X0081781Y0074862D01*
X0081912Y0075178D01*
X0081956Y0075518D01*
X0081912Y0075857D01*
X0081781Y0076173D01*
X0081572Y0076445D01*
X0081321Y0076637D01*
Y0076938D01*
X0081572Y007713D01*
X0081781Y0077402D01*
X0081912Y0077718D01*
X0081956Y0078058D01*
X0081912Y0078397D01*
X0081781Y0078713D01*
X0081572Y0078985D01*
X0081321Y0079177D01*
Y0079478D01*
X0081572Y007967D01*
X0081781Y0079942D01*
X0081912Y0080258D01*
X0081956Y0080598D01*
X0081912Y0080937D01*
X0081781Y0081253D01*
X0081572Y0081525D01*
X0081321Y0081717D01*
Y0082018D01*
X0081572Y008221D01*
X0081781Y0082482D01*
X0081912Y0082798D01*
X0081956Y0083137D01*
X0081912Y0083477D01*
X0081781Y0083793D01*
X0081572Y0084065D01*
X0081321Y0084257D01*
Y0084558D01*
X0081572Y008475D01*
X0081781Y0085022D01*
X0081912Y0085338D01*
X0081923Y0085427D01*
X0080645D01*
Y0085677D01*
X0080395D01*
Y0086956D01*
X0080306Y0086944D01*
X0079989Y0086813D01*
X0079718Y0086605D01*
X0079715Y0086601D01*
X0079431Y0086698D01*
Y0120594D01*
X0132549D01*
X0132709Y0120354D01*
D02*
G37*
G36*
X0104719Y0062818D02*
Y0048204D01*
X0104705Y0048169D01*
X0104668Y0047895D01*
X0104705Y0047621D01*
X0104719Y0047586D01*
Y0046472D01*
X0104753Y0046211D01*
X0104854Y0045968D01*
X0104908Y0045898D01*
X0104775Y0045629D01*
X0103666D01*
X0100599Y0048696D01*
X0100695Y004898D01*
X0100823Y0048997D01*
X0101102Y0049113D01*
X0101343Y0049297D01*
X0101527Y0049538D01*
X0101643Y0049817D01*
X0101682Y0050118D01*
X0101643Y0050418D01*
X0101527Y0050697D01*
X0101343Y0050938D01*
X0101102Y0051122D01*
X0100824Y0051237D01*
Y0051537D01*
X0101102Y0051653D01*
X0101343Y0051837D01*
X0101527Y0052078D01*
X0101643Y0052357D01*
X0101682Y0052658D01*
X0101643Y0052958D01*
X0101527Y0053237D01*
X0101343Y0053478D01*
X0101102Y0053662D01*
X0100824Y0053778D01*
Y0054077D01*
X0101102Y0054193D01*
X0101343Y0054377D01*
X0101527Y0054618D01*
X0101643Y0054897D01*
X0101682Y0055197D01*
X0101643Y0055498D01*
X0101527Y0055777D01*
X0101343Y0056018D01*
X0101102Y0056202D01*
X0100824Y0056318D01*
Y0056618D01*
X0101102Y0056733D01*
X0101343Y0056917D01*
X0101527Y0057158D01*
X0101643Y0057437D01*
X0101682Y0057737D01*
X0101643Y0058038D01*
X0101527Y0058317D01*
X0101343Y0058558D01*
X0101102Y0058742D01*
X0100824Y0058857D01*
Y0059158D01*
X0101102Y0059273D01*
X0101343Y0059457D01*
X0101527Y0059698D01*
X0101643Y0059977D01*
X0101682Y0060278D01*
X0101643Y0060578D01*
X0101527Y0060857D01*
X0101343Y0061098D01*
X0101102Y0061282D01*
X0100824Y0061397D01*
Y0061697D01*
X0101102Y0061813D01*
X0101343Y0061997D01*
X0101527Y0062238D01*
X0101643Y0062517D01*
X0101682Y0062818D01*
X0101643Y0063118D01*
X0101527Y0063397D01*
X0101343Y0063638D01*
X0101102Y0063822D01*
X0100824Y0063938D01*
Y0064238D01*
X0101102Y0064353D01*
X0101343Y0064537D01*
X0101527Y0064778D01*
X0101643Y0065057D01*
X010165Y0065107D01*
X0100522D01*
Y0065607D01*
X010165D01*
X0101643Y0065658D01*
X0101527Y0065937D01*
X0101343Y0066178D01*
X0101102Y0066362D01*
X0100824Y0066478D01*
Y0066777D01*
X0101093Y0066889D01*
X0104719D01*
Y0062818D01*
D02*
G37*
%LPC*%
G36*
X0080895Y0058063D02*
Y0057035D01*
X0081923D01*
X0081912Y0057124D01*
X0081781Y0057441D01*
X0081572Y0057712D01*
X0081301Y0057921D01*
X0080984Y0058052D01*
X0080895Y0058063D01*
D02*
G37*
G36*
X0118865Y004768D02*
X0118677D01*
Y0046798D01*
X0119685D01*
Y004686D01*
X0119657Y0047072D01*
X0119575Y004727D01*
X0119444Y0047439D01*
X0119275Y004757D01*
X0119077Y0047652D01*
X0118865Y004768D01*
D02*
G37*
G36*
X00943Y0056853D02*
X0093644D01*
X0093668Y005667D01*
X0093739Y0056499D01*
X0093851Y0056353D01*
X0093997Y0056241D01*
X0094167Y0056171D01*
X00943Y0056153D01*
Y0056853D01*
D02*
G37*
G36*
Y0065743D02*
X0093644D01*
X0093668Y006556D01*
X0093739Y0065389D01*
X0093851Y0065243D01*
X0093997Y0065131D01*
X0094167Y0065061D01*
X00943Y0065043D01*
Y0065743D01*
D02*
G37*
G36*
Y0066942D02*
X0094167Y0066924D01*
X0093997Y0066854D01*
X0093851Y0066742D01*
X0093739Y0066596D01*
X0093668Y0066425D01*
X0093644Y0066243D01*
X00943D01*
Y0066942D01*
D02*
G37*
G36*
Y0058052D02*
X0094167Y0058034D01*
X0093997Y0057964D01*
X0093851Y0057852D01*
X0093739Y0057706D01*
X0093668Y0057535D01*
X0093644Y0057353D01*
X00943D01*
Y0058052D01*
D02*
G37*
G36*
X0095885Y0060267D02*
X0095585Y0060228D01*
X0095305Y0060112D01*
X0095065Y0059928D01*
X009488Y0059687D01*
X0094765Y0059408D01*
X0094725Y0059107D01*
X0094765Y0058807D01*
X009488Y0058528D01*
X0095057Y0058298D01*
X0094907Y0058038D01*
X00948Y0058052D01*
Y0057103D01*
Y0056153D01*
X0094933Y0056171D01*
X0095103Y0056241D01*
X0095249Y0056353D01*
X0095249Y0056353D01*
Y0056353D01*
X0095397Y0056241D01*
D01*
X0095397Y0056241D01*
Y0056241D01*
X0095567Y0056171D01*
X009575Y0056146D01*
X009615D01*
X0096333Y0056171D01*
X0096503Y0056241D01*
X0096649Y0056353D01*
X0096761Y0056499D01*
X0096832Y005667D01*
X0096856Y0056853D01*
Y0057353D01*
X0096832Y0057535D01*
X0096761Y0057706D01*
X0096706Y0057777D01*
Y0058289D01*
X009689Y0058528D01*
X0097005Y0058807D01*
X0097045Y0059107D01*
X0097005Y0059408D01*
X009689Y0059687D01*
X0096705Y0059928D01*
X0096465Y0060112D01*
X0096185Y0060228D01*
X0095885Y0060267D01*
D02*
G37*
G36*
X0118177Y004768D02*
X011799D01*
X0117778Y0047652D01*
X011758Y004757D01*
X0117411Y0047439D01*
X011728Y004727D01*
X0117198Y0047072D01*
X011717Y004686D01*
Y0046798D01*
X0118177D01*
Y004768D01*
D02*
G37*
G36*
X0121353Y004447D02*
X0120475D01*
X0120482Y004442D01*
X0120598Y004414D01*
X0120782Y00439D01*
X0121023Y0043715D01*
X0121302Y00436D01*
X0121353Y0043593D01*
Y004447D01*
D02*
G37*
G36*
X012273D02*
X0121853D01*
Y0043593D01*
X0121903Y00436D01*
X0122182Y0043715D01*
X0122423Y00439D01*
X0122607Y004414D01*
X0122723Y004442D01*
X012273Y004447D01*
D02*
G37*
G36*
X0094048D02*
X009317D01*
X0093177Y004442D01*
X0093293Y004414D01*
X0093477Y00439D01*
X0093718Y0043715D01*
X0093997Y00436D01*
X0094048Y0043593D01*
Y004447D01*
D02*
G37*
G36*
X0095425D02*
X0094548D01*
Y0043593D01*
X0094598Y00436D01*
X0094877Y0043715D01*
X0095118Y00439D01*
X0095302Y004414D01*
X0095418Y004442D01*
X0095425Y004447D01*
D02*
G37*
G36*
X0094048Y0045847D02*
X0093997Y004584D01*
X0093718Y0045725D01*
X0093477Y004554D01*
X0093293Y00453D01*
X0093177Y004502D01*
X009317Y004497D01*
X0094048D01*
Y0045847D01*
D02*
G37*
G36*
X0121853D02*
Y004497D01*
X012273D01*
X0122723Y004502D01*
X0122607Y00453D01*
X0122423Y004554D01*
X0122182Y0045725D01*
X0121903Y004584D01*
X0121853Y0045847D01*
D02*
G37*
G36*
X0087062Y004768D02*
X0086875D01*
X0086663Y0047652D01*
X0086465Y004757D01*
X0086296Y0047439D01*
X0086165Y004727D01*
X0086083Y0047072D01*
X0086055Y004686D01*
Y0046798D01*
X0087062D01*
Y004768D01*
D02*
G37*
G36*
X0094548Y0045847D02*
Y004497D01*
X0095425D01*
X0095418Y004502D01*
X0095302Y00453D01*
X0095118Y004554D01*
X0094877Y0045725D01*
X0094598Y004584D01*
X0094548Y0045847D01*
D02*
G37*
G36*
X0121353D02*
X0121302Y004584D01*
X0121023Y0045725D01*
X0120782Y004554D01*
X0120598Y00453D01*
X0120482Y004502D01*
X0120475Y004497D01*
X0121353D01*
Y0045847D01*
D02*
G37*
G36*
X0102555Y0101985D02*
X0101899D01*
X0101923Y0101802D01*
X0101994Y0101632D01*
X0102106Y0101486D01*
X0102252Y0101374D01*
X0102422Y0101303D01*
X0102555Y0101286D01*
Y0101985D01*
D02*
G37*
G36*
X0118732Y010492D02*
X0117725D01*
Y0104038D01*
X0117912D01*
X0118125Y0104066D01*
X0118322Y0104148D01*
X0118492Y0104278D01*
X0118622Y0104448D01*
X0118704Y0104645D01*
X0118732Y0104857D01*
Y010492D01*
D02*
G37*
G36*
X0088515Y0101775D02*
Y0100897D01*
X0089392D01*
X0089385Y0100948D01*
X008927Y0101227D01*
X0089085Y0101468D01*
X0088845Y0101652D01*
X0088565Y0101768D01*
X0088515Y0101775D01*
D02*
G37*
G36*
X0088015D02*
X0087965Y0101768D01*
X0087685Y0101652D01*
X0087445Y0101468D01*
X008726Y0101227D01*
X0087145Y0100949D01*
X0086845D01*
X008673Y0101227D01*
X0086545Y0101468D01*
X0086305Y0101652D01*
X0086025Y0101768D01*
X0085975Y0101775D01*
Y0100647D01*
Y009952D01*
X0086025Y0099527D01*
X0086305Y0099643D01*
X0086545Y0099827D01*
X008673Y0100068D01*
X0086845Y0100346D01*
X0087145D01*
X008726Y0100068D01*
X0087445Y0099827D01*
X0087685Y0099643D01*
X0087965Y0099527D01*
X0088015Y009952D01*
Y0100647D01*
Y0101775D01*
D02*
G37*
G36*
X0109842Y0105238D02*
X0108835D01*
Y0104355D01*
X0109022D01*
X0109235Y0104383D01*
X0109432Y0104465D01*
X0109602Y0104596D01*
X0109732Y0104765D01*
X0109814Y0104963D01*
X0109842Y0105175D01*
Y0105238D01*
D02*
G37*
G36*
X0084478Y0115974D02*
X0084216Y0115939D01*
X0083973Y0115839D01*
X0083764Y0115678D01*
X0083604Y0115469D01*
X0083503Y0115226D01*
X0083469Y0114965D01*
X0083503Y0114704D01*
X0083604Y0114461D01*
X0083764Y0114252D01*
X0083973Y0114091D01*
X0084216Y0113991D01*
X0084478Y0113956D01*
X0084739Y0113991D01*
X0084982Y0114091D01*
X0085191Y0114252D01*
X0085351Y0114461D01*
X0085452Y0114704D01*
X0085486Y0114965D01*
X0085452Y0115226D01*
X0085351Y0115469D01*
X0085191Y0115678D01*
X0084982Y0115839D01*
X0084739Y0115939D01*
X0084478Y0115974D01*
D02*
G37*
G36*
X0088878D02*
X0088616Y0115939D01*
X0088373Y0115839D01*
X0088164Y0115678D01*
X0088004Y0115469D01*
X0087903Y0115226D01*
X0087869Y0114965D01*
X0087903Y0114704D01*
X0088004Y0114461D01*
X0088164Y0114252D01*
X0088373Y0114091D01*
X0088616Y0113991D01*
X0088878Y0113956D01*
X0089139Y0113991D01*
X0089382Y0114091D01*
X0089591Y0114252D01*
X0089751Y0114461D01*
X0089852Y0114704D01*
X0089886Y0114965D01*
X0089852Y0115226D01*
X0089751Y0115469D01*
X0089591Y0115678D01*
X0089382Y0115839D01*
X0089139Y0115939D01*
X0088878Y0115974D01*
D02*
G37*
G36*
X0088265Y0109427D02*
X0087965Y0109388D01*
X0087685Y0109272D01*
X0087445Y0109088D01*
X008726Y0108847D01*
X0087145Y0108569D01*
X0086845D01*
X008673Y0108847D01*
X0086545Y0109088D01*
X0086305Y0109272D01*
X0086025Y0109388D01*
X0085725Y0109427D01*
X0085425Y0109388D01*
X0085145Y0109272D01*
X0084905Y0109088D01*
X008472Y0108847D01*
X0084605Y0108568D01*
X0084565Y0108268D01*
X0084605Y0107967D01*
X008472Y0107688D01*
X0084905Y0107447D01*
X0085145Y0107263D01*
X0085425Y0107147D01*
X0085725Y0107108D01*
X0086025Y0107147D01*
X0086305Y0107263D01*
X0086545Y0107447D01*
X008673Y0107688D01*
X0086845Y0107966D01*
X0087145D01*
X008726Y0107688D01*
X0087445Y0107447D01*
X0087685Y0107263D01*
X0087965Y0107147D01*
X0088265Y0107108D01*
X0088565Y0107147D01*
X0088845Y0107263D01*
X0089085Y0107447D01*
X008927Y0107688D01*
X0089385Y0107967D01*
X0089425Y0108268D01*
X0089385Y0108568D01*
X008927Y0108847D01*
X0089085Y0109088D01*
X0088845Y0109272D01*
X0088565Y0109388D01*
X0088265Y0109427D01*
D02*
G37*
G36*
X0102555Y0111439D02*
X0102422Y0111422D01*
X0102252Y0111351D01*
X0102106Y0111239D01*
X0101994Y0111093D01*
X0101923Y0110923D01*
X0101899Y011074D01*
X0102555D01*
Y0111439D01*
D02*
G37*
G36*
X0085475Y0101775D02*
X0085425Y0101768D01*
X0085145Y0101652D01*
X0084905Y0101468D01*
X008472Y0101227D01*
X0084605Y0100948D01*
X0084598Y0100897D01*
X0085475D01*
Y0101775D01*
D02*
G37*
G36*
X0111562Y0068317D02*
X0111375D01*
Y0067435D01*
X0112382D01*
Y0067497D01*
X0112354Y006771D01*
X0112272Y0067907D01*
X0112142Y0068077D01*
X0111972Y0068207D01*
X0111775Y0068289D01*
X0111562Y0068317D01*
D02*
G37*
G36*
X0108393Y0084297D02*
X0108092Y0084258D01*
X0107813Y0084142D01*
X0107572Y0083958D01*
X0107388Y0083717D01*
X0107272Y0083438D01*
X0107233Y0083137D01*
X0107272Y0082837D01*
X0107388Y0082558D01*
X0107572Y0082317D01*
X0107813Y0082133D01*
X0108091Y0082018D01*
Y0081717D01*
X0107813Y0081602D01*
X0107572Y0081418D01*
X0107388Y0081177D01*
X0107272Y0080898D01*
X0107233Y0080598D01*
X0107272Y0080297D01*
X0107388Y0080018D01*
X0107572Y0079777D01*
X0107813Y0079593D01*
X0108091Y0079478D01*
Y0079177D01*
X0107813Y0079062D01*
X0107572Y0078878D01*
X0107388Y0078637D01*
X0107272Y0078358D01*
X0107233Y0078058D01*
X0107272Y0077757D01*
X0107388Y0077478D01*
X0107572Y0077237D01*
X0107813Y0077053D01*
X0108091Y0076938D01*
Y0076637D01*
X0107813Y0076522D01*
X0107572Y0076338D01*
X0107388Y0076097D01*
X0107272Y0075818D01*
X0107233Y0075518D01*
X0107272Y0075217D01*
X0107388Y0074938D01*
X0107572Y0074697D01*
X0107813Y0074513D01*
X0108091Y0074397D01*
Y0074098D01*
X0107813Y0073982D01*
X0107572Y0073798D01*
X0107388Y0073557D01*
X0107272Y0073278D01*
X0107233Y0072978D01*
X0107272Y0072677D01*
X0107388Y0072398D01*
X0107572Y0072157D01*
X0107813Y0071973D01*
X0108091Y0071857D01*
Y0071558D01*
X0107813Y0071442D01*
X0107572Y0071258D01*
X0107388Y0071017D01*
X0107272Y0070738D01*
X0107233Y0070438D01*
X0107272Y0070137D01*
X0107388Y0069858D01*
X0107572Y0069617D01*
X0107813Y0069433D01*
X0108091Y0069317D01*
Y0069018D01*
X0107813Y0068902D01*
X0107572Y0068718D01*
X0107388Y0068477D01*
X0107272Y0068198D01*
X0107266Y0068147D01*
X010952D01*
X0109513Y0068198D01*
X0109397Y0068477D01*
X0109213Y0068718D01*
X0108972Y0068902D01*
X0108694Y0069018D01*
Y0069317D01*
X0108972Y0069433D01*
X0109213Y0069617D01*
X0109397Y0069858D01*
X0109513Y0070137D01*
X0109552Y0070438D01*
X0109513Y0070738D01*
X0109397Y0071017D01*
X0109213Y0071258D01*
X0108972Y0071442D01*
X0108694Y0071558D01*
Y0071857D01*
X0108972Y0071973D01*
X0109213Y0072157D01*
X0109397Y0072398D01*
X0109513Y0072677D01*
X0109552Y0072978D01*
X0109513Y0073278D01*
X0109397Y0073557D01*
X0109213Y0073798D01*
X0108972Y0073982D01*
X0108694Y0074098D01*
Y0074397D01*
X0108972Y0074513D01*
X0109213Y0074697D01*
X0109397Y0074938D01*
X0109513Y0075217D01*
X0109552Y0075518D01*
X0109513Y0075818D01*
X0109397Y0076097D01*
X0109213Y0076338D01*
X0108972Y0076522D01*
X0108694Y0076637D01*
Y0076938D01*
X0108972Y0077053D01*
X0109213Y0077237D01*
X0109397Y0077478D01*
X0109513Y0077757D01*
X0109552Y0078058D01*
X0109513Y0078358D01*
X0109397Y0078637D01*
X0109213Y0078878D01*
X0108972Y0079062D01*
X0108694Y0079177D01*
Y0079478D01*
X0108972Y0079593D01*
X0109213Y0079777D01*
X0109397Y0080018D01*
X0109513Y0080297D01*
X0109552Y0080598D01*
X0109513Y0080898D01*
X0109397Y0081177D01*
X0109213Y0081418D01*
X0108972Y0081602D01*
X0108694Y0081717D01*
Y0082018D01*
X0108972Y0082133D01*
X0109213Y0082317D01*
X0109397Y0082558D01*
X0109513Y0082837D01*
X0109552Y0083137D01*
X0109513Y0083438D01*
X0109397Y0083717D01*
X0109213Y0083958D01*
X0108972Y0084142D01*
X0108693Y0084258D01*
X0108393Y0084297D01*
D02*
G37*
G36*
X009615Y0066949D02*
X009575D01*
X0095567Y0066924D01*
X0095397Y0066854D01*
Y0066854D01*
X0095397Y0066854D01*
D01*
X0095249Y0066742D01*
D01*
X0095103Y0066854D01*
X0094933Y0066924D01*
X00948Y0066942D01*
Y0065993D01*
Y0065043D01*
X0094907Y0065057D01*
X0095057Y0064797D01*
X009488Y0064567D01*
X0094765Y0064288D01*
X0094725Y0063987D01*
X0094765Y0063687D01*
X009488Y0063408D01*
X0095065Y0063167D01*
X0095305Y0062983D01*
X0095585Y0062867D01*
X0095885Y0062828D01*
X0096185Y0062867D01*
X0096465Y0062983D01*
X0096705Y0063167D01*
X009689Y0063408D01*
X0097005Y0063687D01*
X0097045Y0063987D01*
X0097005Y0064288D01*
X009689Y0064567D01*
X0096706Y0064806D01*
Y0065318D01*
X0096761Y0065389D01*
X0096832Y006556D01*
X0096856Y0065743D01*
Y0066243D01*
X0096832Y0066425D01*
X0096761Y0066596D01*
X0096649Y0066742D01*
X0096503Y0066854D01*
X0096333Y0066924D01*
X009615Y0066949D01*
D02*
G37*
G36*
X0110875Y0068317D02*
X0110688D01*
X0110475Y0068289D01*
X0110278Y0068207D01*
X0110108Y0068077D01*
X0109978Y0067907D01*
X0109896Y006771D01*
X0109868Y0067497D01*
Y0067435D01*
X0110875D01*
Y0068317D01*
D02*
G37*
G36*
X0080895Y0086956D02*
Y0085927D01*
X0081923D01*
X0081912Y0086017D01*
X0081781Y0086333D01*
X0081572Y0086605D01*
X0081301Y0086813D01*
X0080984Y0086944D01*
X0080895Y0086956D01*
D02*
G37*
G36*
X0085475Y0100397D02*
X0084598D01*
X0084605Y0100347D01*
X008472Y0100068D01*
X0084905Y0099827D01*
X0085145Y0099643D01*
X0085425Y0099527D01*
X0085475Y009952D01*
Y0100397D01*
D02*
G37*
G36*
X0089392D02*
X0088515D01*
Y009952D01*
X0088565Y0099527D01*
X0088845Y0099643D01*
X0089085Y0099827D01*
X008927Y0100068D01*
X0089385Y0100347D01*
X0089392Y0100397D01*
D02*
G37*
G36*
X0116908Y0093095D02*
X0115879D01*
X0115891Y0093006D01*
X0116022Y0092689D01*
X011623Y0092418D01*
X0116502Y0092209D01*
X0116818Y0092078D01*
X0116908Y0092067D01*
Y0093095D01*
D02*
G37*
G36*
X0118436D02*
X0117408D01*
Y0092067D01*
X0117497Y0092078D01*
X0117813Y0092209D01*
X0118085Y0092418D01*
X0118293Y0092689D01*
X0118424Y0093006D01*
X0118436Y0093095D01*
D02*
G37*
%LPD*%
D12*
X0091122Y0044873D02*
D03*
Y0046472D02*
D03*
X0114618Y0044873D02*
D03*
Y0046472D02*
D03*
X0107632Y0099543D02*
D03*
Y0097942D02*
D03*
X0110173Y0099543D02*
D03*
Y0097942D02*
D03*
D15*
X0087312Y0044798D02*
D03*
Y0046548D02*
D03*
X0118427Y0044798D02*
D03*
Y0046548D02*
D03*
X0111125Y0067185D02*
D03*
Y0065435D02*
D03*
X0108585Y0105488D02*
D03*
Y0107238D02*
D03*
Y0111365D02*
D03*
Y0109615D02*
D03*
X0117475Y010517D02*
D03*
Y010692D02*
D03*
D22*
X012065Y009115D02*
Y0093345D01*
X0118353Y0088853D02*
X012065Y009115D01*
X0109537Y0088853D02*
X0118353D01*
X0108585Y0111365D02*
Y0113348D01*
X0119285Y0106902D02*
Y0118015D01*
X0110725Y0118027D02*
X0110808Y011811D01*
X0110725Y0109302D02*
Y0118027D01*
Y0109302D02*
X0110738Y010929D01*
Y0107702D02*
Y010929D01*
X0100522Y0067897D02*
X0105728D01*
Y0062818D02*
X0108393D01*
X0105728D02*
Y0067897D01*
Y008536D01*
X010922Y0088853D01*
X0109537D01*
X0105728Y0046472D02*
Y0047895D01*
Y0062818D01*
X012065Y0095885D02*
Y0105537D01*
X0119285Y0106902D02*
X012065Y0105537D01*
D23*
X0103353Y0044873D02*
X0114618D01*
X0098743Y0049482D02*
X0103353Y0044873D01*
X0098743Y0049482D02*
Y0073738D01*
X0108393Y0065357D02*
X010847Y0065435D01*
X0111125D01*
X0089217Y0071832D02*
X0100522Y0083137D01*
X0089217Y004472D02*
Y0071832D01*
X0098743Y0073738D02*
X0100522Y0075518D01*
X0091122Y0046472D02*
Y0049165D01*
X013081Y0065031D02*
X0133975Y0061865D01*
X013081Y0065031D02*
Y0093345D01*
X012827Y0065031D02*
X0133975Y0059325D01*
X012827Y0065031D02*
Y0093345D01*
X0116522Y005361D02*
X0130801D01*
X0132388Y0052658D02*
X0133975Y0054245D01*
X0108393Y0052658D02*
X0132388D01*
X0133667Y0051705D02*
X0133975D01*
X013208Y0050118D02*
X0133667Y0051705D01*
X0108393Y0050118D02*
X013208D01*
X012573Y0065031D02*
Y0093345D01*
X0130801Y005361D02*
X0133975Y0056785D01*
X012573Y0065031D02*
X0133975Y0056785D01*
X012319Y0085677D02*
Y0093345D01*
X0115253Y009779D02*
X0117158Y0095885D01*
X0115253Y009779D02*
Y0111125D01*
X0113665Y0095885D02*
Y0110173D01*
X011263Y0111207D02*
X0113665Y0110173D01*
X0095885Y0059107D02*
X009595Y0059042D01*
Y0057103D02*
Y0059042D01*
X0095885Y0063987D02*
X009595Y0064052D01*
Y0065993D01*
X0110272Y0107238D02*
X0110738Y0107702D01*
X0108585Y0107238D02*
X0110272D01*
X0110412Y0109615D02*
X0110725Y0109302D01*
X0108585Y0109615D02*
X0110412D01*
X0119268Y010692D02*
X0119285Y0106902D01*
X0117475Y010692D02*
X0119268D01*
X010414Y0103923D02*
X0104205Y0103857D01*
Y0102235D02*
Y0103857D01*
X010414Y0108802D02*
X0104205Y0108868D01*
Y011049D01*
X0110173Y0095885D02*
Y0097942D01*
X0107632Y0095885D02*
Y0097942D01*
X0108393Y0055197D02*
X0114935D01*
X0116522Y005361D01*
X0100522Y0078058D02*
X0103823Y0081357D01*
Y0086995D01*
X0110173Y0093345D01*
X0100522Y0080598D02*
X0102235Y008231D01*
Y0087948D01*
X0107632Y0093345D01*
X008937Y0044873D02*
X0091122D01*
X0089217Y004472D02*
X008937Y0044873D01*
X0087312Y0044798D02*
X008914D01*
X0089217Y004472D01*
X0105728Y0046472D02*
X0114618D01*
Y0044873D02*
X011637D01*
X01166Y0044798D02*
X0118427D01*
X0116522Y004472D02*
X0116762Y004448D01*
D24*
X010668Y0104775D02*
Y011557D01*
Y0104775D02*
X0110173Y0101283D01*
X0105728Y0104457D02*
Y0114618D01*
Y0104457D02*
X0107632Y0102552D01*
X0110173Y0099543D02*
Y0101283D01*
X0107632Y0099543D02*
Y0102552D01*
D25*
X0100522Y0080598D02*
D03*
Y0078058D02*
D03*
Y0075518D02*
D03*
Y0072978D02*
D03*
Y0070438D02*
D03*
Y0067897D02*
D03*
Y0065357D02*
D03*
Y0062818D02*
D03*
Y0060278D02*
D03*
Y0057737D02*
D03*
Y0055197D02*
D03*
Y0052658D02*
D03*
Y0050118D02*
D03*
Y0083137D02*
D03*
X0108393D02*
D03*
Y0080598D02*
D03*
Y0078058D02*
D03*
Y0075518D02*
D03*
Y0072978D02*
D03*
Y0070438D02*
D03*
Y0067897D02*
D03*
Y0065357D02*
D03*
Y0062818D02*
D03*
Y0060278D02*
D03*
Y0057737D02*
D03*
Y0055197D02*
D03*
Y0052658D02*
D03*
Y0050118D02*
D03*
X0085725Y0100647D02*
D03*
Y0108268D02*
D03*
X0088265Y0100647D02*
D03*
Y0108268D02*
D03*
X010414Y0108802D02*
D03*
Y0103923D02*
D03*
X0094298Y004472D02*
D03*
X0089217D02*
D03*
X0095885Y0063987D02*
D03*
Y0059107D02*
D03*
X0121603Y004472D02*
D03*
X0116522D02*
D03*
D26*
X0080645Y0056785D02*
D03*
Y0054245D02*
D03*
Y0051705D02*
D03*
Y0049165D02*
D03*
X0117158Y0055197D02*
D03*
Y0057737D02*
D03*
X012065Y0093345D02*
D03*
X012319D02*
D03*
X012573D02*
D03*
X012827D02*
D03*
X013081D02*
D03*
X0133975Y0061865D02*
D03*
Y0059325D02*
D03*
Y0056785D02*
D03*
Y0054245D02*
D03*
Y0051705D02*
D03*
Y0049165D02*
D03*
Y0085677D02*
D03*
Y0083137D02*
D03*
Y0080598D02*
D03*
Y0078058D02*
D03*
Y0075518D02*
D03*
Y0072978D02*
D03*
Y0070438D02*
D03*
Y0067897D02*
D03*
X0080645Y0062818D02*
D03*
Y0065357D02*
D03*
Y0067897D02*
D03*
Y0070438D02*
D03*
Y0072978D02*
D03*
Y0075518D02*
D03*
Y0078058D02*
D03*
Y0080598D02*
D03*
Y0083137D02*
D03*
Y0085677D02*
D03*
X0107632Y0093345D02*
D03*
X0110173D02*
D03*
X0120332Y0055197D02*
D03*
Y0057737D02*
D03*
X0113665Y0095885D02*
D03*
Y0093345D02*
D03*
X0117158D02*
D03*
Y0095885D02*
D03*
X012065D02*
D03*
X012319D02*
D03*
X012573D02*
D03*
X012827D02*
D03*
X013081D02*
D03*
X0110173D02*
D03*
X0107632D02*
D03*
X0133975Y0120015D02*
D03*
Y0117475D02*
D03*
D27*
X0088878Y0114965D02*
D03*
X0084478D02*
D03*
D28*
X01171Y00983D02*
D03*
X01298Y01167D02*
D03*
X0108585Y0113348D02*
D03*
X0099378Y0106363D02*
D03*
X010414D02*
D03*
X0098107Y0112077D02*
D03*
X0094933Y011176D02*
D03*
X0091122Y0049165D02*
D03*
X011938Y011811D02*
D03*
X0110808D02*
D03*
X0119285Y0106902D02*
D03*
X0110738Y0107702D02*
D03*
X0110725Y0109302D02*
D03*
X0109537Y0088853D02*
D03*
X0105728Y0047895D02*
D03*
X01256Y00563D02*
D03*
D29*
X010325Y005015D02*
D03*
Y005515D02*
D03*
Y006025D02*
D03*
X00849Y01176D02*
D03*
X01Y011D02*
D03*
Y0105D02*
D03*
X0095D02*
D03*
X0133Y01D02*
D03*
Y0095D02*
D03*
Y0089D02*
D03*
X01D02*
D03*
Y0095D02*
D03*
X0095D02*
D03*
X009D02*
D03*
X0085D02*
D03*
X0095Y0089D02*
D03*
X009D02*
D03*
X0085D02*
D03*
X0115Y0064D02*
D03*
X012D02*
D03*
X0125D02*
D03*
X012Y0069D02*
D03*
X0115D02*
D03*
X0095D02*
D03*
X0085D02*
D03*
Y0059D02*
D03*
Y00527D02*
D03*
X0115Y0049D02*
D03*
X011D02*
D03*
X013Y0043D02*
D03*
X0125D02*
D03*
X011D02*
D03*
X0105D02*
D03*
X01D02*
D03*
X0085D02*
D03*
X012319Y0085677D02*
D03*
X0115253Y0111125D02*
D03*
X010668Y011557D02*
D03*
X0105728Y0114618D02*
D03*
X011263Y0111207D02*
D03*
X0114Y01115D02*
D03*
D30*
X009455Y0057103D02*
D03*
X009595D02*
D03*
X009455Y0065993D02*
D03*
X009595D02*
D03*
X0102805Y011049D02*
D03*
X0104205D02*
D03*
X0102805Y0102235D02*
D03*
X0104205D02*
D03*
M02*
